%TF.GenerationSoftware,KiCad,Pcbnew,9.0.6*%
%TF.CreationDate,2026-03-21T13:44:15-03:00*%
%TF.ProjectId,ColorTemp,436f6c6f-7254-4656-9d70-2e6b69636164,00*%
%TF.SameCoordinates,PX8f0d180PY5f5e100*%
%TF.FileFunction,Copper,L2,Bot*%
%TF.FilePolarity,Positive*%
%FSLAX46Y46*%
G04 Gerber Fmt 4.6, Leading zero omitted, Abs format (unit mm)*
G04 Created by KiCad (PCBNEW 9.0.6) date 2026-03-21 13:44:15*
%MOMM*%
%LPD*%
G01*
G04 APERTURE LIST*
%TA.AperFunction,HeatsinkPad*%
%ADD10O,1.100000X1.700000*%
%TD*%
%TA.AperFunction,ComponentPad*%
%ADD11R,1.700000X1.700000*%
%TD*%
%TA.AperFunction,ComponentPad*%
%ADD12C,1.700000*%
%TD*%
%TA.AperFunction,ViaPad*%
%ADD13C,0.400000*%
%TD*%
%TA.AperFunction,Conductor*%
%ADD14C,0.175000*%
%TD*%
G04 APERTURE END LIST*
D10*
%TO.P,J1,S1,SHIELD*%
%TO.N,GND*%
X4320000Y7580000D03*
X4320000Y11380000D03*
X-4320000Y7580000D03*
X-4320000Y11380000D03*
%TD*%
D11*
%TO.P,J2,1,Pin_1*%
%TO.N,+5V*%
X-8725000Y5080000D03*
D12*
%TO.P,J2,2,Pin_2*%
%TO.N,GND*%
X-11265000Y5080000D03*
%TO.P,J2,3,Pin_3*%
%TO.N,DIO*%
X-8725000Y2540000D03*
%TO.P,J2,4,Pin_4*%
%TO.N,PC4*%
X-11265000Y2540000D03*
%TO.P,J2,5,Pin_5*%
%TO.N,PC5*%
X-8725000Y0D03*
%TO.P,J2,6,Pin_6*%
%TO.N,PC6*%
X-11265000Y0D03*
%TO.P,J2,7,Pin_7*%
%TO.N,UART TX*%
X-8725000Y-2540000D03*
%TO.P,J2,8,Pin_8*%
%TO.N,UART RX*%
X-11265000Y-2540000D03*
%TO.P,J2,9,Pin_9*%
%TO.N,I2C SDA*%
X-8725000Y-5080000D03*
%TO.P,J2,10,Pin_10*%
%TO.N,I2C SCL*%
X-11265000Y-5080000D03*
%TD*%
D13*
%TO.N,GND*%
X-1055000Y-4445000D03*
X10795000Y0D03*
X3302000Y-4445000D03*
X-1016000Y-3175000D03*
X0Y-3175000D03*
X-2000000Y-8250000D03*
X-1250000Y-9000000D03*
X-3937000Y3175000D03*
X7500000Y10000000D03*
X10000000Y7500000D03*
X10000000Y-7500000D03*
X9500000Y-6000000D03*
X5600000Y-10700000D03*
X7500000Y-10000000D03*
%TO.N,+5V*%
X1500000Y-9000000D03*
X250000Y-11000000D03*
%TO.N,GND*%
X-9000000Y13000000D03*
X-7500000Y-10000000D03*
X863711Y-672378D03*
X-9000000Y-13000000D03*
X-7493000Y-1905000D03*
X500000Y3250000D03*
X9000000Y-13000000D03*
X-10000000Y0D03*
X-13000000Y1000000D03*
X-1000000Y13000000D03*
X-7000000Y13000000D03*
X-7493000Y-5715000D03*
X-3000000Y13000000D03*
X-12000000Y12000000D03*
X-13000000Y-9000000D03*
X6750000Y-7750000D03*
X1000000Y-13000000D03*
X-3937000Y-5715000D03*
X3500000Y-8250000D03*
X2750000Y4500000D03*
X-13000000Y-7000000D03*
X2750000Y6250073D03*
X3302000Y-3175000D03*
X1000000Y13000000D03*
X-889000Y-635000D03*
X-13000000Y-5000000D03*
X5000000Y-13000000D03*
X-7493000Y-3175000D03*
X-3937000Y1905000D03*
X-7493000Y-6985000D03*
X12000000Y12000000D03*
X-4750000Y4500000D03*
X-5000000Y-13000000D03*
X-10000000Y-7500000D03*
X-13000000Y5000000D03*
X-7493000Y1905000D03*
X-10000000Y-5080000D03*
X3000000Y-11500000D03*
X-889000Y-1905000D03*
X-12000000Y-12000000D03*
X2375000Y-9000000D03*
X-889000Y1905000D03*
X13000000Y9000000D03*
X-10000000Y2540000D03*
X889000Y1905000D03*
X-7493000Y3175000D03*
X12750000Y0D03*
X-3937000Y-4445000D03*
X12000000Y-12000000D03*
X-3937000Y-1905000D03*
X889000Y635000D03*
X125000Y-8125000D03*
X-2750000Y6250000D03*
X7875000Y-3375000D03*
X5000000Y-6250000D03*
X6250000Y-875000D03*
X9000000Y13000000D03*
X-1000000Y-13000000D03*
X-3000000Y-13000000D03*
X-3937000Y-635000D03*
X-7000000Y-13000000D03*
X10250000Y-4375000D03*
X13000000Y-3000000D03*
X1750000Y-10000000D03*
X-889000Y635000D03*
X-7500000Y10000000D03*
X-7493000Y635000D03*
X-5000000Y13000000D03*
X-7493000Y-635000D03*
X13000000Y7000000D03*
X-10000000Y7500000D03*
X-10000000Y-2540000D03*
X1500000Y-8250000D03*
X-3937000Y-3175000D03*
X-3937000Y635000D03*
X-2750000Y4500000D03*
X-255000Y-9995000D03*
X3000000Y13000000D03*
X13000000Y-7000000D03*
X-500000Y3250000D03*
X3000000Y-13000000D03*
X13000000Y3000000D03*
X8375000Y-1000000D03*
X-13000000Y3000000D03*
X-4250000Y-10000000D03*
X-13000000Y-1000000D03*
X-13000000Y9000000D03*
X5000000Y13000000D03*
X-2750000Y-10000000D03*
X889000Y-1905000D03*
X-3937000Y-6985000D03*
X4500000Y875000D03*
X0Y-5000000D03*
X-13000000Y-3000000D03*
X2687500Y-6812500D03*
X13000000Y-9000000D03*
X-7493000Y-4445000D03*
%TO.N,DIO*%
X7250000Y-2750000D03*
%TO.N,/MCU PA1*%
X0Y-2000000D03*
X0Y-5900000D03*
%TO.N,TEMPERATURE*%
X0Y-7000000D03*
X-2050000Y-9050000D03*
%TO.N,~{RESET}*%
X2500000Y-4450000D03*
X9750000Y-5050000D03*
%TO.N,PC6*%
X7500000Y-5850000D03*
%TO.N,PC4*%
X7500000Y-7450000D03*
%TO.N,PC5*%
X7500000Y-6650000D03*
%TO.N,USER*%
X3550000Y-7500000D03*
X12000000Y0D03*
%TD*%
D14*
%TO.N,+5V*%
X250000Y-10250000D02*
X1500000Y-9000000D01*
X250000Y-11000000D02*
X250000Y-10250000D01*
%TO.N,GND*%
X4319927Y6250073D02*
X4320000Y6250000D01*
%TO.N,DIO*%
X7250000Y-2750000D02*
X1960000Y2540000D01*
X1960000Y2540000D02*
X-8725000Y2540000D01*
%TO.N,/MCU PA1*%
X0Y-5900000D02*
X-500000Y-5400000D01*
X-500000Y-5400000D02*
X-500000Y-2500000D01*
X-500000Y-2500000D02*
X0Y-2000000D01*
%TO.N,TEMPERATURE*%
X-2050000Y-9050000D02*
X0Y-7000000D01*
%TO.N,~{RESET}*%
X7350000Y-8400000D02*
X9000000Y-6750000D01*
X9000000Y-6750000D02*
X9000000Y-5800000D01*
X2500000Y-4450000D02*
X6450000Y-8400000D01*
X9000000Y-5800000D02*
X9750000Y-5050000D01*
X6450000Y-8400000D02*
X7350000Y-8400000D01*
%TO.N,PC6*%
X-9995000Y-1270000D02*
X-11265000Y0D01*
X2920000Y-1270000D02*
X-9995000Y-1270000D01*
X7500000Y-5850000D02*
X2920000Y-1270000D01*
%TO.N,PC4*%
X-9995000Y1270000D02*
X2230000Y1270000D01*
X8500000Y-6450000D02*
X7500000Y-7450000D01*
X2230000Y1270000D02*
X8500000Y-5000000D01*
X8500000Y-5000000D02*
X8500000Y-6450000D01*
X-11265000Y2540000D02*
X-9995000Y1270000D01*
%TO.N,PC5*%
X2500000Y0D02*
X7988500Y-5488500D01*
X7988500Y-5488500D02*
X7988500Y-6161500D01*
X-8725000Y0D02*
X2500000Y0D01*
X7988500Y-6161500D02*
X7500000Y-6650000D01*
%TO.N,USER*%
X3550000Y-7500000D02*
X4800000Y-8750000D01*
X4800000Y-8750000D02*
X7500000Y-8750000D01*
X7500000Y-8750000D02*
X12000000Y-4250000D01*
X12000000Y-4250000D02*
X12000000Y0D01*
%TD*%
%TA.AperFunction,Conductor*%
%TO.N,GND*%
G36*
X2140833Y986763D02*
G01*
X2146397Y981665D01*
X8211665Y-5083603D01*
X8219646Y-5100718D01*
X8231783Y-5115183D01*
X8235062Y-5133778D01*
X8236671Y-5137229D01*
X8237000Y-5144768D01*
X8237000Y-5156232D01*
X8216763Y-5211833D01*
X8165521Y-5241418D01*
X8107250Y-5231143D01*
X8089339Y-5217400D01*
X2648977Y222961D01*
X2648974Y222963D01*
X2648973Y222963D01*
X2600645Y242980D01*
X2552314Y263000D01*
X-7666147Y263000D01*
X-7721748Y283237D01*
X-7746062Y316397D01*
X-7777598Y392528D01*
X-7816214Y485756D01*
X-7928442Y653718D01*
X-8071282Y796558D01*
X-8149137Y848579D01*
X-8184123Y896295D01*
X-8180253Y955338D01*
X-8139337Y998079D01*
X-8101079Y1007000D01*
X2085232Y1007000D01*
X2140833Y986763D01*
G37*
%TD.AperFunction*%
%TA.AperFunction,Conductor*%
G36*
X1870833Y2256763D02*
G01*
X1876397Y2251665D01*
X6824165Y-2696103D01*
X6832146Y-2713218D01*
X6844283Y-2727683D01*
X6847562Y-2746278D01*
X6849171Y-2749729D01*
X6849500Y-2757268D01*
X6849500Y-2768732D01*
X6829263Y-2824333D01*
X6778021Y-2853918D01*
X6719750Y-2843643D01*
X6701837Y-2829899D01*
X2378977Y1492961D01*
X2378975Y1492962D01*
X2378974Y1492963D01*
X2326976Y1514500D01*
X2326974Y1514501D01*
X2282315Y1533000D01*
X2282314Y1533000D01*
X-8101079Y1533000D01*
X-8156680Y1553237D01*
X-8186265Y1604479D01*
X-8175990Y1662750D01*
X-8149136Y1691422D01*
X-8071282Y1743442D01*
X-7928442Y1886282D01*
X-7816214Y2054244D01*
X-7769472Y2167090D01*
X-7746062Y2223603D01*
X-7706088Y2267227D01*
X-7666147Y2277000D01*
X1815232Y2277000D01*
X1870833Y2256763D01*
G37*
%TD.AperFunction*%
%TA.AperFunction,Conductor*%
G36*
X2410833Y-283237D02*
G01*
X2416397Y-288335D01*
X2987397Y-859335D01*
X3012403Y-912961D01*
X2997089Y-970114D01*
X2948620Y-1004053D01*
X2926232Y-1007000D01*
X-8101079Y-1007000D01*
X-8156680Y-986763D01*
X-8186265Y-935521D01*
X-8175990Y-877250D01*
X-8149136Y-848578D01*
X-8071282Y-796558D01*
X-7928442Y-653718D01*
X-7816214Y-485756D01*
X-7755517Y-339223D01*
X-7746062Y-316397D01*
X-7706088Y-272773D01*
X-7666147Y-263000D01*
X2355232Y-263000D01*
X2410833Y-283237D01*
G37*
%TD.AperFunction*%
%TA.AperFunction,Conductor*%
G36*
X10002270Y13249382D02*
G01*
X10335142Y13231937D01*
X10344129Y13230992D01*
X10671129Y13179201D01*
X10679982Y13177320D01*
X10999789Y13091627D01*
X11008368Y13088839D01*
X11317463Y12970189D01*
X11325733Y12966507D01*
X11620717Y12816205D01*
X11628545Y12811686D01*
X11772317Y12718319D01*
X11906206Y12631370D01*
X11913531Y12626048D01*
X12170812Y12417706D01*
X12177541Y12411648D01*
X12411647Y12177542D01*
X12417705Y12170813D01*
X12626047Y11913532D01*
X12631369Y11906207D01*
X12811681Y11628552D01*
X12816208Y11620711D01*
X12966505Y11325735D01*
X12970188Y11317464D01*
X13050883Y11107248D01*
X13076503Y11040504D01*
X13088833Y11008385D01*
X13091631Y10999774D01*
X13177318Y10679984D01*
X13179200Y10671128D01*
X13230990Y10344139D01*
X13231936Y10335134D01*
X13249381Y10002271D01*
X13249500Y9997744D01*
X13249500Y-9997743D01*
X13249381Y-10002270D01*
X13231936Y-10335133D01*
X13230990Y-10344138D01*
X13179200Y-10671127D01*
X13177318Y-10679983D01*
X13091631Y-10999773D01*
X13088833Y-11008384D01*
X12970188Y-11317463D01*
X12966505Y-11325734D01*
X12816208Y-11620710D01*
X12811681Y-11628551D01*
X12631369Y-11906206D01*
X12626047Y-11913531D01*
X12417705Y-12170812D01*
X12411647Y-12177541D01*
X12177541Y-12411647D01*
X12170812Y-12417705D01*
X11913531Y-12626047D01*
X11906206Y-12631369D01*
X11628551Y-12811681D01*
X11620710Y-12816208D01*
X11325734Y-12966505D01*
X11317463Y-12970188D01*
X11008384Y-13088833D01*
X10999773Y-13091631D01*
X10679983Y-13177318D01*
X10671127Y-13179200D01*
X10344138Y-13230990D01*
X10335133Y-13231936D01*
X10002271Y-13249381D01*
X9997744Y-13249500D01*
X-9997744Y-13249500D01*
X-10002271Y-13249381D01*
X-10335134Y-13231936D01*
X-10344139Y-13230990D01*
X-10671128Y-13179200D01*
X-10679984Y-13177318D01*
X-10935402Y-13108879D01*
X-10999778Y-13091629D01*
X-11008381Y-13088834D01*
X-11107248Y-13050883D01*
X-11317464Y-12970188D01*
X-11325735Y-12966505D01*
X-11620711Y-12816208D01*
X-11628552Y-12811681D01*
X-11906207Y-12631369D01*
X-11913532Y-12626047D01*
X-12170813Y-12417705D01*
X-12177542Y-12411647D01*
X-12411648Y-12177541D01*
X-12417706Y-12170812D01*
X-12626048Y-11913531D01*
X-12631370Y-11906206D01*
X-12753138Y-11718700D01*
X-12811686Y-11628545D01*
X-12816205Y-11620717D01*
X-12966507Y-11325733D01*
X-12970189Y-11317463D01*
X-13088839Y-11008368D01*
X-13091627Y-10999789D01*
X-13177320Y-10679982D01*
X-13179201Y-10671127D01*
X-13226647Y-10371562D01*
X-13230992Y-10344129D01*
X-13231937Y-10335133D01*
X-13239202Y-10196512D01*
X-13249381Y-10002270D01*
X-13249500Y-9997743D01*
X-13249500Y-9875435D01*
X-11900500Y-9875435D01*
X-11900500Y-10124565D01*
X-11867982Y-10371565D01*
X-11803502Y-10612207D01*
X-11777240Y-10675609D01*
X-11708165Y-10842371D01*
X-11708159Y-10842383D01*
X-11617290Y-10999773D01*
X-11583599Y-11058127D01*
X-11431938Y-11255776D01*
X-11255776Y-11431938D01*
X-11058127Y-11583599D01*
X-10986851Y-11624750D01*
X-10842384Y-11708158D01*
X-10842380Y-11708160D01*
X-10842373Y-11708164D01*
X-10612207Y-11803502D01*
X-10371565Y-11867982D01*
X-10167168Y-11894891D01*
X-10124567Y-11900500D01*
X-10124565Y-11900500D01*
X-9875433Y-11900500D01*
X-9836215Y-11895336D01*
X-9628435Y-11867982D01*
X-9387793Y-11803502D01*
X-9157627Y-11708164D01*
X-8941873Y-11583599D01*
X-8744224Y-11431938D01*
X-8568062Y-11255776D01*
X-8416401Y-11058127D01*
X-8352400Y-10947273D01*
X-150500Y-10947273D01*
X-150500Y-11052727D01*
X-123207Y-11154587D01*
X-70480Y-11245913D01*
X4087Y-11320480D01*
X95413Y-11373207D01*
X197273Y-11400500D01*
X197275Y-11400500D01*
X302725Y-11400500D01*
X302727Y-11400500D01*
X404587Y-11373207D01*
X495913Y-11320480D01*
X570480Y-11245913D01*
X623207Y-11154587D01*
X650500Y-11052727D01*
X650500Y-10947273D01*
X623207Y-10845413D01*
X570480Y-10754087D01*
X538335Y-10721942D01*
X513329Y-10668316D01*
X513000Y-10660777D01*
X513000Y-10394768D01*
X533237Y-10339167D01*
X538335Y-10333603D01*
X996503Y-9875435D01*
X8099500Y-9875435D01*
X8099500Y-10124565D01*
X8132018Y-10371565D01*
X8196498Y-10612207D01*
X8222760Y-10675609D01*
X8291835Y-10842371D01*
X8291841Y-10842383D01*
X8382710Y-10999773D01*
X8416401Y-11058127D01*
X8568062Y-11255776D01*
X8744224Y-11431938D01*
X8941873Y-11583599D01*
X9013149Y-11624750D01*
X9157616Y-11708158D01*
X9157620Y-11708160D01*
X9157627Y-11708164D01*
X9387793Y-11803502D01*
X9628435Y-11867982D01*
X9832832Y-11894891D01*
X9875433Y-11900500D01*
X9875435Y-11900500D01*
X10124567Y-11900500D01*
X10163785Y-11895336D01*
X10371565Y-11867982D01*
X10612207Y-11803502D01*
X10842373Y-11708164D01*
X11058127Y-11583599D01*
X11255776Y-11431938D01*
X11431938Y-11255776D01*
X11583599Y-11058127D01*
X11708164Y-10842373D01*
X11803502Y-10612207D01*
X11867982Y-10371565D01*
X11900500Y-10124565D01*
X11900500Y-9875435D01*
X11867982Y-9628435D01*
X11803502Y-9387793D01*
X11708164Y-9157627D01*
X11583599Y-8941873D01*
X11431938Y-8744224D01*
X11255776Y-8568062D01*
X11058127Y-8416401D01*
X11017528Y-8392961D01*
X10842383Y-8291841D01*
X10842371Y-8291835D01*
X10747033Y-8252345D01*
X10612207Y-8196498D01*
X10612205Y-8196497D01*
X10612204Y-8196497D01*
X10565002Y-8183849D01*
X10371565Y-8132018D01*
X10216968Y-8111665D01*
X10124567Y-8099500D01*
X10124565Y-8099500D01*
X9875435Y-8099500D01*
X9875433Y-8099500D01*
X9783032Y-8111665D01*
X9628435Y-8132018D01*
X9499477Y-8166572D01*
X9387795Y-8196497D01*
X9157628Y-8291835D01*
X9157616Y-8291841D01*
X8941872Y-8416401D01*
X8744225Y-8568061D01*
X8568061Y-8744225D01*
X8416401Y-8941872D01*
X8291841Y-9157616D01*
X8291835Y-9157628D01*
X8196497Y-9387795D01*
X8166572Y-9499477D01*
X8132018Y-9628435D01*
X8099500Y-9875435D01*
X996503Y-9875435D01*
X1446103Y-9425835D01*
X1499729Y-9400829D01*
X1507268Y-9400500D01*
X1552725Y-9400500D01*
X1552727Y-9400500D01*
X1654587Y-9373207D01*
X1745913Y-9320480D01*
X1820480Y-9245913D01*
X1873207Y-9154587D01*
X1900500Y-9052727D01*
X1900500Y-8947273D01*
X1873207Y-8845413D01*
X1820480Y-8754087D01*
X1745913Y-8679520D01*
X1654587Y-8626793D01*
X1552727Y-8599500D01*
X1447273Y-8599500D01*
X1345413Y-8626793D01*
X1345412Y-8626793D01*
X1345410Y-8626794D01*
X1254086Y-8679520D01*
X1179520Y-8754086D01*
X1126794Y-8845410D01*
X1126793Y-8845412D01*
X1126793Y-8845413D01*
X1099500Y-8947273D01*
X1099500Y-8947275D01*
X1099500Y-8992732D01*
X1079263Y-9048333D01*
X1074165Y-9053897D01*
X27039Y-10101023D01*
X27037Y-10101026D01*
X17288Y-10124565D01*
X17287Y-10124566D01*
X-13000Y-10197683D01*
X-13000Y-10660777D01*
X-33237Y-10716378D01*
X-38335Y-10721942D01*
X-70480Y-10754086D01*
X-123206Y-10845410D01*
X-123207Y-10845412D01*
X-123207Y-10845413D01*
X-150500Y-10947273D01*
X-8352400Y-10947273D01*
X-8291836Y-10842373D01*
X-8196498Y-10612207D01*
X-8132018Y-10371565D01*
X-8099500Y-10124565D01*
X-8099500Y-9875435D01*
X-8132018Y-9628435D01*
X-8196498Y-9387793D01*
X-8291836Y-9157627D01*
X-8384416Y-8997273D01*
X-2450500Y-8997273D01*
X-2450500Y-9102727D01*
X-2435789Y-9157628D01*
X-2423206Y-9204589D01*
X-2370480Y-9295913D01*
X-2295913Y-9370480D01*
X-2204587Y-9423207D01*
X-2102727Y-9450500D01*
X-2102725Y-9450500D01*
X-1997275Y-9450500D01*
X-1997273Y-9450500D01*
X-1895413Y-9423207D01*
X-1804087Y-9370480D01*
X-1729520Y-9295913D01*
X-1676793Y-9204587D01*
X-1649500Y-9102727D01*
X-1649500Y-9057268D01*
X-1629263Y-9001667D01*
X-1624165Y-8996103D01*
X-53897Y-7425835D01*
X-271Y-7400829D01*
X7268Y-7400500D01*
X52725Y-7400500D01*
X52727Y-7400500D01*
X154587Y-7373207D01*
X245913Y-7320480D01*
X320480Y-7245913D01*
X373207Y-7154587D01*
X400500Y-7052727D01*
X400500Y-6947273D01*
X373207Y-6845413D01*
X320480Y-6754087D01*
X245913Y-6679520D01*
X154587Y-6626793D01*
X52727Y-6599500D01*
X-52727Y-6599500D01*
X-154587Y-6626793D01*
X-154588Y-6626793D01*
X-154590Y-6626794D01*
X-245914Y-6679520D01*
X-320480Y-6754086D01*
X-373206Y-6845410D01*
X-373207Y-6845412D01*
X-373207Y-6845413D01*
X-400500Y-6947273D01*
X-400500Y-6947275D01*
X-400500Y-6992732D01*
X-420737Y-7048333D01*
X-425835Y-7053897D01*
X-1996103Y-8624165D01*
X-2049729Y-8649171D01*
X-2057268Y-8649500D01*
X-2102727Y-8649500D01*
X-2204587Y-8676793D01*
X-2204588Y-8676793D01*
X-2204590Y-8676794D01*
X-2295914Y-8729520D01*
X-2370480Y-8804086D01*
X-2423206Y-8895410D01*
X-2423207Y-8895412D01*
X-2423207Y-8895413D01*
X-2450500Y-8997273D01*
X-8384416Y-8997273D01*
X-8416401Y-8941873D01*
X-8568062Y-8744224D01*
X-8744224Y-8568062D01*
X-8941873Y-8416401D01*
X-8982472Y-8392961D01*
X-9157617Y-8291841D01*
X-9157629Y-8291835D01*
X-9252967Y-8252345D01*
X-9387793Y-8196498D01*
X-9387795Y-8196497D01*
X-9387796Y-8196497D01*
X-9434998Y-8183849D01*
X-9628435Y-8132018D01*
X-9783032Y-8111665D01*
X-9875433Y-8099500D01*
X-9875435Y-8099500D01*
X-10124565Y-8099500D01*
X-10124567Y-8099500D01*
X-10216968Y-8111665D01*
X-10371565Y-8132018D01*
X-10500523Y-8166572D01*
X-10612205Y-8196497D01*
X-10842372Y-8291835D01*
X-10842384Y-8291841D01*
X-11058128Y-8416401D01*
X-11255775Y-8568061D01*
X-11431939Y-8744225D01*
X-11583599Y-8941872D01*
X-11708159Y-9157616D01*
X-11708165Y-9157628D01*
X-11803503Y-9387795D01*
X-11833428Y-9499477D01*
X-11867982Y-9628435D01*
X-11900500Y-9875435D01*
X-13249500Y-9875435D01*
X-13249500Y-4978992D01*
X-12290500Y-4978992D01*
X-12290500Y-5181007D01*
X-12251092Y-5379123D01*
X-12251089Y-5379133D01*
X-12193817Y-5517397D01*
X-12173786Y-5565756D01*
X-12061558Y-5733718D01*
X-11918718Y-5876558D01*
X-11750756Y-5988786D01*
X-11564127Y-6066091D01*
X-11366003Y-6105500D01*
X-11365998Y-6105500D01*
X-11164002Y-6105500D01*
X-11163997Y-6105500D01*
X-10965873Y-6066091D01*
X-10779244Y-5988786D01*
X-10611282Y-5876558D01*
X-10468442Y-5733718D01*
X-10356214Y-5565756D01*
X-10278909Y-5379127D01*
X-10239500Y-5181003D01*
X-10239500Y-4978997D01*
X-10239501Y-4978992D01*
X-9750500Y-4978992D01*
X-9750500Y-5181007D01*
X-9711092Y-5379123D01*
X-9711089Y-5379133D01*
X-9653817Y-5517397D01*
X-9633786Y-5565756D01*
X-9521558Y-5733718D01*
X-9378718Y-5876558D01*
X-9210756Y-5988786D01*
X-9024127Y-6066091D01*
X-8826003Y-6105500D01*
X-8825998Y-6105500D01*
X-8624002Y-6105500D01*
X-8623997Y-6105500D01*
X-8425873Y-6066091D01*
X-8239244Y-5988786D01*
X-8071282Y-5876558D01*
X-7928442Y-5733718D01*
X-7816214Y-5565756D01*
X-7738909Y-5379127D01*
X-7699500Y-5181003D01*
X-7699500Y-4978997D01*
X-7738909Y-4780873D01*
X-7816214Y-4594244D01*
X-7928442Y-4426282D01*
X-8071282Y-4283442D01*
X-8239244Y-4171214D01*
X-8339901Y-4129520D01*
X-8425867Y-4093911D01*
X-8425872Y-4093909D01*
X-8425873Y-4093909D01*
X-8425875Y-4093908D01*
X-8425877Y-4093908D01*
X-8623993Y-4054500D01*
X-8623997Y-4054500D01*
X-8826003Y-4054500D01*
X-8826008Y-4054500D01*
X-9024124Y-4093908D01*
X-9024134Y-4093911D01*
X-9210752Y-4171212D01*
X-9210760Y-4171216D01*
X-9378718Y-4283442D01*
X-9378721Y-4283444D01*
X-9521556Y-4426279D01*
X-9521558Y-4426282D01*
X-9633784Y-4594240D01*
X-9633788Y-4594248D01*
X-9711089Y-4780866D01*
X-9711092Y-4780876D01*
X-9750500Y-4978992D01*
X-10239501Y-4978992D01*
X-10278909Y-4780873D01*
X-10356214Y-4594244D01*
X-10468442Y-4426282D01*
X-10611282Y-4283442D01*
X-10779244Y-4171214D01*
X-10879901Y-4129520D01*
X-10965867Y-4093911D01*
X-10965872Y-4093909D01*
X-10965873Y-4093909D01*
X-10965875Y-4093908D01*
X-10965877Y-4093908D01*
X-11163993Y-4054500D01*
X-11163997Y-4054500D01*
X-11366003Y-4054500D01*
X-11366008Y-4054500D01*
X-11564124Y-4093908D01*
X-11564134Y-4093911D01*
X-11750752Y-4171212D01*
X-11750760Y-4171216D01*
X-11918718Y-4283442D01*
X-11918721Y-4283444D01*
X-12061556Y-4426279D01*
X-12061558Y-4426282D01*
X-12173784Y-4594240D01*
X-12173788Y-4594248D01*
X-12251089Y-4780866D01*
X-12251092Y-4780876D01*
X-12290500Y-4978992D01*
X-13249500Y-4978992D01*
X-13249500Y-2438992D01*
X-12290500Y-2438992D01*
X-12290500Y-2641007D01*
X-12251092Y-2839123D01*
X-12251089Y-2839133D01*
X-12183665Y-3001907D01*
X-12173786Y-3025756D01*
X-12061558Y-3193718D01*
X-11918718Y-3336558D01*
X-11750756Y-3448786D01*
X-11564127Y-3526091D01*
X-11366003Y-3565500D01*
X-11365998Y-3565500D01*
X-11164002Y-3565500D01*
X-11163997Y-3565500D01*
X-10965873Y-3526091D01*
X-10779244Y-3448786D01*
X-10611282Y-3336558D01*
X-10468442Y-3193718D01*
X-10356214Y-3025756D01*
X-10278909Y-2839127D01*
X-10239500Y-2641003D01*
X-10239500Y-2438997D01*
X-10278909Y-2240873D01*
X-10356214Y-2054244D01*
X-10468442Y-1886282D01*
X-10611282Y-1743442D01*
X-10779244Y-1631214D01*
X-10843787Y-1604479D01*
X-10965867Y-1553911D01*
X-10965872Y-1553909D01*
X-10965873Y-1553909D01*
X-10965875Y-1553908D01*
X-10965877Y-1553908D01*
X-11163993Y-1514500D01*
X-11163997Y-1514500D01*
X-11366003Y-1514500D01*
X-11366008Y-1514500D01*
X-11564124Y-1553908D01*
X-11564134Y-1553911D01*
X-11750752Y-1631212D01*
X-11750760Y-1631216D01*
X-11918718Y-1743442D01*
X-11918721Y-1743444D01*
X-12061556Y-1886279D01*
X-12061558Y-1886282D01*
X-12173784Y-2054240D01*
X-12173788Y-2054248D01*
X-12251089Y-2240866D01*
X-12251092Y-2240876D01*
X-12290500Y-2438992D01*
X-13249500Y-2438992D01*
X-13249500Y2641008D01*
X-12290500Y2641008D01*
X-12290500Y2438993D01*
X-12251092Y2240877D01*
X-12251089Y2240867D01*
X-12183665Y2078093D01*
X-12173786Y2054244D01*
X-12061558Y1886282D01*
X-11918718Y1743442D01*
X-11750756Y1631214D01*
X-11564127Y1553909D01*
X-11366003Y1514500D01*
X-11365998Y1514500D01*
X-11164002Y1514500D01*
X-11163997Y1514500D01*
X-10965873Y1553909D01*
X-10796516Y1624061D01*
X-10737403Y1626642D01*
X-10702249Y1605311D01*
X-10143978Y1047039D01*
X-10091976Y1025500D01*
X-10091974Y1025499D01*
X-10047315Y1007000D01*
X-10047314Y1007000D01*
X-9348921Y1007000D01*
X-9293320Y986763D01*
X-9263735Y935521D01*
X-9274010Y877250D01*
X-9300864Y848578D01*
X-9378718Y796558D01*
X-9378721Y796556D01*
X-9521556Y653721D01*
X-9521558Y653718D01*
X-9633784Y485760D01*
X-9633788Y485752D01*
X-9711089Y299134D01*
X-9711092Y299124D01*
X-9750500Y101008D01*
X-9750500Y-101007D01*
X-9711092Y-299123D01*
X-9711089Y-299133D01*
X-9694483Y-339223D01*
X-9633786Y-485756D01*
X-9521558Y-653718D01*
X-9378718Y-796558D01*
X-9300864Y-848578D01*
X-9265877Y-896295D01*
X-9269747Y-955338D01*
X-9310663Y-998079D01*
X-9348921Y-1007000D01*
X-9850231Y-1007000D01*
X-9905832Y-986763D01*
X-9911396Y-981665D01*
X-10330310Y-562752D01*
X-10355316Y-509126D01*
X-10349060Y-468484D01*
X-10278909Y-299127D01*
X-10239500Y-101003D01*
X-10239500Y101003D01*
X-10278909Y299127D01*
X-10356214Y485756D01*
X-10468442Y653718D01*
X-10611282Y796558D01*
X-10779244Y908786D01*
X-10891629Y955338D01*
X-10965867Y986089D01*
X-10965872Y986091D01*
X-10965873Y986091D01*
X-10965875Y986092D01*
X-10965877Y986092D01*
X-11163993Y1025500D01*
X-11163997Y1025500D01*
X-11366003Y1025500D01*
X-11366008Y1025500D01*
X-11564124Y986092D01*
X-11564134Y986089D01*
X-11750752Y908788D01*
X-11750760Y908784D01*
X-11918718Y796558D01*
X-11918721Y796556D01*
X-12061556Y653721D01*
X-12061558Y653718D01*
X-12173784Y485760D01*
X-12173788Y485752D01*
X-12251089Y299134D01*
X-12251092Y299124D01*
X-12290500Y101008D01*
X-12290500Y-101007D01*
X-12251092Y-299123D01*
X-12251089Y-299133D01*
X-12234483Y-339223D01*
X-12173786Y-485756D01*
X-12061558Y-653718D01*
X-11918718Y-796558D01*
X-11750756Y-908786D01*
X-11564127Y-986091D01*
X-11366003Y-1025500D01*
X-11365998Y-1025500D01*
X-11164002Y-1025500D01*
X-11163997Y-1025500D01*
X-10965873Y-986091D01*
X-10796516Y-915939D01*
X-10737403Y-913358D01*
X-10702249Y-934689D01*
X-10143978Y-1492961D01*
X-10091976Y-1514500D01*
X-10091974Y-1514501D01*
X-10047315Y-1533000D01*
X-10047314Y-1533000D01*
X-9348921Y-1533000D01*
X-9293320Y-1553237D01*
X-9263735Y-1604479D01*
X-9274010Y-1662750D01*
X-9300864Y-1691422D01*
X-9378718Y-1743442D01*
X-9378721Y-1743444D01*
X-9521556Y-1886279D01*
X-9521558Y-1886282D01*
X-9633784Y-2054240D01*
X-9633788Y-2054248D01*
X-9711089Y-2240866D01*
X-9711092Y-2240876D01*
X-9750500Y-2438992D01*
X-9750500Y-2641007D01*
X-9711092Y-2839123D01*
X-9711089Y-2839133D01*
X-9643665Y-3001907D01*
X-9633786Y-3025756D01*
X-9521558Y-3193718D01*
X-9378718Y-3336558D01*
X-9210756Y-3448786D01*
X-9024127Y-3526091D01*
X-8826003Y-3565500D01*
X-8825998Y-3565500D01*
X-8624002Y-3565500D01*
X-8623997Y-3565500D01*
X-8425873Y-3526091D01*
X-8239244Y-3448786D01*
X-8071282Y-3336558D01*
X-7928442Y-3193718D01*
X-7816214Y-3025756D01*
X-7738909Y-2839127D01*
X-7699500Y-2641003D01*
X-7699500Y-2438997D01*
X-7738909Y-2240873D01*
X-7816214Y-2054244D01*
X-7928442Y-1886282D01*
X-8071282Y-1743442D01*
X-8149137Y-1691421D01*
X-8184123Y-1643705D01*
X-8180253Y-1584662D01*
X-8139337Y-1541921D01*
X-8101079Y-1533000D01*
X-308223Y-1533000D01*
X-252622Y-1553237D01*
X-223037Y-1604479D01*
X-233312Y-1662750D01*
X-247058Y-1680665D01*
X-320480Y-1754086D01*
X-373206Y-1845410D01*
X-373207Y-1845412D01*
X-373207Y-1845413D01*
X-400500Y-1947273D01*
X-400500Y-1947275D01*
X-400500Y-1992732D01*
X-420737Y-2048333D01*
X-425835Y-2053897D01*
X-722961Y-2351023D01*
X-722964Y-2351028D01*
X-732685Y-2374499D01*
X-732686Y-2374502D01*
X-763000Y-2447685D01*
X-763000Y-5452313D01*
X-760158Y-5459174D01*
X-760157Y-5459179D01*
X-760156Y-5459179D01*
X-722961Y-5548977D01*
X-425835Y-5846103D01*
X-400829Y-5899728D01*
X-400500Y-5907267D01*
X-400500Y-5952727D01*
X-373207Y-6054587D01*
X-373206Y-6054589D01*
X-343813Y-6105499D01*
X-320480Y-6145913D01*
X-245913Y-6220480D01*
X-154587Y-6273207D01*
X-52727Y-6300500D01*
X-52725Y-6300500D01*
X52725Y-6300500D01*
X52727Y-6300500D01*
X154587Y-6273207D01*
X245913Y-6220480D01*
X320480Y-6145913D01*
X373207Y-6054587D01*
X400500Y-5952727D01*
X400500Y-5847273D01*
X373207Y-5745413D01*
X320480Y-5654087D01*
X245913Y-5579520D01*
X193009Y-5548976D01*
X154589Y-5526794D01*
X154588Y-5526793D01*
X154587Y-5526793D01*
X52727Y-5499500D01*
X52725Y-5499500D01*
X7268Y-5499500D01*
X-48333Y-5479263D01*
X-53897Y-5474165D01*
X-211665Y-5316397D01*
X-236671Y-5262771D01*
X-237000Y-5255232D01*
X-237000Y-2644768D01*
X-216763Y-2589167D01*
X-211665Y-2583603D01*
X-53897Y-2425835D01*
X-271Y-2400829D01*
X7268Y-2400500D01*
X52725Y-2400500D01*
X52727Y-2400500D01*
X154587Y-2373207D01*
X245913Y-2320480D01*
X320480Y-2245913D01*
X373207Y-2154587D01*
X400500Y-2052727D01*
X400500Y-1947273D01*
X373207Y-1845413D01*
X320480Y-1754087D01*
X247058Y-1680665D01*
X222052Y-1627039D01*
X237366Y-1569886D01*
X285835Y-1535947D01*
X308223Y-1533000D01*
X2775232Y-1533000D01*
X2830833Y-1553237D01*
X2836397Y-1558335D01*
X7074165Y-5796103D01*
X7099171Y-5849729D01*
X7099500Y-5857268D01*
X7099500Y-5902727D01*
X7126793Y-6004587D01*
X7179520Y-6095913D01*
X7254087Y-6170480D01*
X7262071Y-6175090D01*
X7300104Y-6220416D01*
X7300103Y-6279586D01*
X7262071Y-6324909D01*
X7255821Y-6328518D01*
X7254085Y-6329521D01*
X7179520Y-6404086D01*
X7126794Y-6495410D01*
X7126793Y-6495412D01*
X7126793Y-6495413D01*
X7099500Y-6597273D01*
X7099500Y-6702727D01*
X7126793Y-6804587D01*
X7179520Y-6895913D01*
X7254087Y-6970480D01*
X7262071Y-6975090D01*
X7300104Y-7020416D01*
X7300103Y-7079586D01*
X7262071Y-7124909D01*
X7258809Y-7126794D01*
X7254085Y-7129521D01*
X7179520Y-7204086D01*
X7126794Y-7295410D01*
X7126793Y-7295412D01*
X7126793Y-7295413D01*
X7099500Y-7397273D01*
X7099500Y-7502727D01*
X7126793Y-7604587D01*
X7179520Y-7695913D01*
X7254087Y-7770480D01*
X7320940Y-7809078D01*
X7340689Y-7820480D01*
X7345413Y-7823207D01*
X7365876Y-7828690D01*
X7414345Y-7862626D01*
X7429660Y-7919779D01*
X7404655Y-7973405D01*
X7404654Y-7973407D01*
X7266397Y-8111665D01*
X7212771Y-8136671D01*
X7205232Y-8137000D01*
X6594768Y-8137000D01*
X6539167Y-8116763D01*
X6533603Y-8111665D01*
X2925835Y-4503897D01*
X2900829Y-4450271D01*
X2900500Y-4442732D01*
X2900500Y-4397275D01*
X2900500Y-4397273D01*
X2873207Y-4295413D01*
X2820480Y-4204087D01*
X2745913Y-4129520D01*
X2654587Y-4076793D01*
X2552727Y-4049500D01*
X2447273Y-4049500D01*
X2345413Y-4076793D01*
X2345412Y-4076793D01*
X2345410Y-4076794D01*
X2254086Y-4129520D01*
X2179520Y-4204086D01*
X2126794Y-4295410D01*
X2126793Y-4295412D01*
X2126793Y-4295413D01*
X2099500Y-4397273D01*
X2099500Y-4502727D01*
X2126793Y-4604587D01*
X2179520Y-4695913D01*
X2254087Y-4770480D01*
X2345413Y-4823207D01*
X2447273Y-4850500D01*
X2492732Y-4850500D01*
X2548333Y-4870737D01*
X2553897Y-4875835D01*
X6017397Y-8339335D01*
X6042403Y-8392961D01*
X6027089Y-8450114D01*
X5978620Y-8484053D01*
X5956232Y-8487000D01*
X4944768Y-8487000D01*
X4889167Y-8466763D01*
X4883603Y-8461665D01*
X3975835Y-7553897D01*
X3950829Y-7500271D01*
X3950500Y-7492732D01*
X3950500Y-7447275D01*
X3950500Y-7447273D01*
X3923207Y-7345413D01*
X3870480Y-7254087D01*
X3795913Y-7179520D01*
X3709312Y-7129521D01*
X3704589Y-7126794D01*
X3704588Y-7126793D01*
X3704587Y-7126793D01*
X3602727Y-7099500D01*
X3497273Y-7099500D01*
X3395413Y-7126793D01*
X3395412Y-7126793D01*
X3395410Y-7126794D01*
X3304086Y-7179520D01*
X3229520Y-7254086D01*
X3176794Y-7345410D01*
X3176793Y-7345412D01*
X3176793Y-7345413D01*
X3149500Y-7447273D01*
X3149500Y-7552727D01*
X3176793Y-7654587D01*
X3176794Y-7654589D01*
X3229520Y-7745913D01*
X3304087Y-7820480D01*
X3395413Y-7873207D01*
X3497273Y-7900500D01*
X3542732Y-7900500D01*
X3598333Y-7920737D01*
X3603897Y-7925835D01*
X4651023Y-8972961D01*
X4699354Y-8992980D01*
X4747686Y-9013000D01*
X7552314Y-9013000D01*
X7600645Y-8992980D01*
X7648977Y-8972961D01*
X12222961Y-4398978D01*
X12259707Y-4310263D01*
X12263000Y-4302314D01*
X12263000Y-339223D01*
X12283237Y-283622D01*
X12288335Y-278058D01*
X12303393Y-263000D01*
X12320480Y-245913D01*
X12373207Y-154587D01*
X12400500Y-52727D01*
X12400500Y52727D01*
X12373207Y154587D01*
X12320480Y245913D01*
X12245913Y320480D01*
X12154587Y373207D01*
X12052727Y400500D01*
X11947273Y400500D01*
X11845413Y373207D01*
X11845412Y373207D01*
X11845410Y373206D01*
X11754086Y320480D01*
X11679520Y245914D01*
X11626794Y154590D01*
X11626793Y154588D01*
X11626793Y154587D01*
X11599500Y52727D01*
X11599500Y-52727D01*
X11626793Y-154587D01*
X11626794Y-154589D01*
X11679520Y-245913D01*
X11711665Y-278058D01*
X11736671Y-331684D01*
X11737000Y-339223D01*
X11737000Y-4105231D01*
X11716763Y-4160832D01*
X11711665Y-4166396D01*
X9410665Y-6467396D01*
X9357039Y-6492402D01*
X9299886Y-6477088D01*
X9265947Y-6428619D01*
X9263000Y-6406231D01*
X9263000Y-5944768D01*
X9283237Y-5889167D01*
X9288335Y-5883603D01*
X9696104Y-5475835D01*
X9749730Y-5450829D01*
X9757269Y-5450500D01*
X9802725Y-5450500D01*
X9802727Y-5450500D01*
X9904587Y-5423207D01*
X9995913Y-5370480D01*
X10070480Y-5295913D01*
X10123207Y-5204587D01*
X10150500Y-5102727D01*
X10150500Y-4997273D01*
X10123207Y-4895413D01*
X10070480Y-4804087D01*
X9995913Y-4729520D01*
X9904587Y-4676793D01*
X9802727Y-4649500D01*
X9697273Y-4649500D01*
X9595413Y-4676793D01*
X9595412Y-4676793D01*
X9595410Y-4676794D01*
X9504086Y-4729520D01*
X9429520Y-4804086D01*
X9376794Y-4895410D01*
X9376793Y-4895412D01*
X9376793Y-4895413D01*
X9349500Y-4997273D01*
X9349500Y-4997275D01*
X9349500Y-5042731D01*
X9329263Y-5098332D01*
X9324164Y-5103896D01*
X9088540Y-5339522D01*
X8910665Y-5517397D01*
X8857039Y-5542403D01*
X8799886Y-5527089D01*
X8765947Y-5478620D01*
X8763000Y-5456232D01*
X8763000Y-4947685D01*
X8743671Y-4901024D01*
X8743670Y-4901020D01*
X8722963Y-4851027D01*
X8722961Y-4851022D01*
X7170102Y-3298163D01*
X7145097Y-3244539D01*
X7160411Y-3187386D01*
X7208880Y-3153447D01*
X7231268Y-3150500D01*
X7302725Y-3150500D01*
X7302727Y-3150500D01*
X7404587Y-3123207D01*
X7495913Y-3070480D01*
X7570480Y-2995913D01*
X7623207Y-2904587D01*
X7650500Y-2802727D01*
X7650500Y-2697273D01*
X7623207Y-2595413D01*
X7570480Y-2504087D01*
X7495913Y-2429520D01*
X7404587Y-2376793D01*
X7302727Y-2349500D01*
X7302725Y-2349500D01*
X7257268Y-2349500D01*
X7201667Y-2329263D01*
X7196103Y-2324165D01*
X4717348Y154590D01*
X2108977Y2762961D01*
X2108974Y2762963D01*
X2108973Y2762963D01*
X2060645Y2782980D01*
X2012314Y2803000D01*
X-7666147Y2803000D01*
X-7721748Y2823237D01*
X-7746062Y2856397D01*
X-7777598Y2932528D01*
X-7816214Y3025756D01*
X-7928442Y3193718D01*
X-8071282Y3336558D01*
X-8239244Y3448786D01*
X-8263093Y3458665D01*
X-8425867Y3526089D01*
X-8425872Y3526091D01*
X-8425873Y3526091D01*
X-8425875Y3526092D01*
X-8425877Y3526092D01*
X-8623993Y3565500D01*
X-8623997Y3565500D01*
X-8826003Y3565500D01*
X-8826008Y3565500D01*
X-9024124Y3526092D01*
X-9024134Y3526089D01*
X-9210752Y3448788D01*
X-9210760Y3448784D01*
X-9378718Y3336558D01*
X-9378721Y3336556D01*
X-9521556Y3193721D01*
X-9521558Y3193718D01*
X-9633784Y3025760D01*
X-9633788Y3025752D01*
X-9711089Y2839134D01*
X-9711092Y2839124D01*
X-9750500Y2641008D01*
X-9750500Y2438993D01*
X-9711092Y2240877D01*
X-9711089Y2240867D01*
X-9643665Y2078093D01*
X-9633786Y2054244D01*
X-9521558Y1886282D01*
X-9378718Y1743442D01*
X-9300864Y1691422D01*
X-9265877Y1643705D01*
X-9269747Y1584662D01*
X-9310663Y1541921D01*
X-9348921Y1533000D01*
X-9850231Y1533000D01*
X-9905832Y1553237D01*
X-9911396Y1558335D01*
X-10330310Y1977248D01*
X-10355316Y2030874D01*
X-10349060Y2071516D01*
X-10286063Y2223603D01*
X-10278909Y2240873D01*
X-10239500Y2438997D01*
X-10239500Y2641003D01*
X-10278909Y2839127D01*
X-10356214Y3025756D01*
X-10468442Y3193718D01*
X-10611282Y3336558D01*
X-10779244Y3448786D01*
X-10803093Y3458665D01*
X-10965867Y3526089D01*
X-10965872Y3526091D01*
X-10965873Y3526091D01*
X-10965875Y3526092D01*
X-10965877Y3526092D01*
X-11163993Y3565500D01*
X-11163997Y3565500D01*
X-11366003Y3565500D01*
X-11366008Y3565500D01*
X-11564124Y3526092D01*
X-11564134Y3526089D01*
X-11750752Y3448788D01*
X-11750760Y3448784D01*
X-11918718Y3336558D01*
X-11918721Y3336556D01*
X-12061556Y3193721D01*
X-12061558Y3193718D01*
X-12173784Y3025760D01*
X-12173788Y3025752D01*
X-12251089Y2839134D01*
X-12251092Y2839124D01*
X-12290500Y2641008D01*
X-13249500Y2641008D01*
X-13249500Y5183421D01*
X-12315000Y5183421D01*
X-12315000Y4976580D01*
X-12274651Y4773730D01*
X-12274648Y4773720D01*
X-12195500Y4582643D01*
X-12195496Y4582636D01*
X-12080589Y4410665D01*
X-12080588Y4410663D01*
X-12078175Y4408250D01*
X-11682790Y4803635D01*
X-11665099Y4772993D01*
X-11572007Y4679901D01*
X-11541368Y4662212D01*
X-11936752Y4266827D01*
X-11934338Y4264413D01*
X-11934336Y4264412D01*
X-11762365Y4149505D01*
X-11762358Y4149501D01*
X-11571281Y4070353D01*
X-11571271Y4070350D01*
X-11368421Y4030001D01*
X-11368411Y4030000D01*
X-11161589Y4030000D01*
X-11161580Y4030001D01*
X-10958730Y4070350D01*
X-10958720Y4070353D01*
X-10767643Y4149501D01*
X-10767635Y4149505D01*
X-10595666Y4264410D01*
X-10593250Y4266827D01*
X-10988633Y4662212D01*
X-10957993Y4679901D01*
X-10864901Y4772993D01*
X-10847212Y4803633D01*
X-10451828Y4408251D01*
X-10449410Y4410666D01*
X-10334505Y4582635D01*
X-10334501Y4582643D01*
X-10255353Y4773720D01*
X-10255350Y4773730D01*
X-10215001Y4976580D01*
X-10215000Y4976590D01*
X-10215000Y5183411D01*
X-10215001Y5183421D01*
X-10255350Y5386271D01*
X-10255353Y5386281D01*
X-10334501Y5577358D01*
X-10334505Y5577365D01*
X-10449412Y5749336D01*
X-10449413Y5749338D01*
X-10451827Y5751752D01*
X-10847212Y5356368D01*
X-10864901Y5387007D01*
X-10957993Y5480099D01*
X-10988635Y5497790D01*
X-10593250Y5893175D01*
X-10595662Y5895587D01*
X-10595665Y5895589D01*
X-10673041Y5947290D01*
X-9750500Y5947290D01*
X-9750500Y4212711D01*
X-9740318Y4161525D01*
X-9740316Y4161521D01*
X-9701530Y4103474D01*
X-9701528Y4103472D01*
X-9643477Y4064683D01*
X-9617529Y4059522D01*
X-9592290Y4054501D01*
X-9592289Y4054501D01*
X-9592284Y4054500D01*
X-9592280Y4054500D01*
X-7857720Y4054500D01*
X-7857716Y4054500D01*
X-7806523Y4064683D01*
X-7748472Y4103472D01*
X-7709683Y4161523D01*
X-7699500Y4212716D01*
X-7699500Y5947284D01*
X-7709683Y5998477D01*
X-7748472Y6056528D01*
X-7748474Y6056530D01*
X-7806521Y6095316D01*
X-7806525Y6095318D01*
X-7857711Y6105500D01*
X-7857716Y6105500D01*
X-9592284Y6105500D01*
X-9592290Y6105500D01*
X-9643476Y6095318D01*
X-9643480Y6095316D01*
X-9701527Y6056530D01*
X-9701530Y6056527D01*
X-9740316Y5998480D01*
X-9740318Y5998476D01*
X-9750500Y5947290D01*
X-10673041Y5947290D01*
X-10767636Y6010496D01*
X-10767643Y6010500D01*
X-10958720Y6089648D01*
X-10958730Y6089651D01*
X-11161580Y6130000D01*
X-11368421Y6130000D01*
X-11571271Y6089651D01*
X-11571281Y6089648D01*
X-11762358Y6010500D01*
X-11762366Y6010496D01*
X-11934334Y5895591D01*
X-11936752Y5893174D01*
X-11541367Y5497790D01*
X-11572007Y5480099D01*
X-11665099Y5387007D01*
X-11682790Y5356367D01*
X-12078174Y5751752D01*
X-12080591Y5749334D01*
X-12195496Y5577366D01*
X-12195500Y5577358D01*
X-12274648Y5386281D01*
X-12274651Y5386271D01*
X-12315000Y5183421D01*
X-13249500Y5183421D01*
X-13249500Y7953874D01*
X-5070000Y7953874D01*
X-5070000Y7680001D01*
X-5069999Y7680000D01*
X-4620000Y7680000D01*
X-4620000Y7480000D01*
X-5069999Y7480000D01*
X-5070000Y7479999D01*
X-5070000Y7206127D01*
X-5041179Y7061237D01*
X-5041176Y7061227D01*
X-4984643Y6924747D01*
X-4984639Y6924740D01*
X-4902563Y6801904D01*
X-4902561Y6801901D01*
X-4798100Y6697440D01*
X-4798097Y6697438D01*
X-4675261Y6615362D01*
X-4675254Y6615358D01*
X-4538774Y6558825D01*
X-4538764Y6558822D01*
X-4420000Y6535199D01*
X-4420000Y6996212D01*
X-4359496Y6980000D01*
X-4280504Y6980000D01*
X-4220000Y6996212D01*
X-4220000Y6535199D01*
X-4101237Y6558822D01*
X-4101227Y6558825D01*
X-3964747Y6615358D01*
X-3964740Y6615362D01*
X-3841904Y6697438D01*
X-3841901Y6697440D01*
X-3737440Y6801901D01*
X-3737438Y6801904D01*
X-3655362Y6924740D01*
X-3655358Y6924747D01*
X-3598825Y7061227D01*
X-3598822Y7061237D01*
X-3570001Y7206127D01*
X-3570000Y7206137D01*
X-3570000Y7479999D01*
X-3570001Y7480000D01*
X-4020000Y7480000D01*
X-4020000Y7680000D01*
X-3570001Y7680000D01*
X-3570000Y7680001D01*
X-3570000Y7953864D01*
X-3570001Y7953874D01*
X3570000Y7953874D01*
X3570000Y7680001D01*
X3570001Y7680000D01*
X4020000Y7680000D01*
X4020000Y7480000D01*
X3570001Y7480000D01*
X3570000Y7479999D01*
X3570000Y7206127D01*
X3598821Y7061237D01*
X3598824Y7061227D01*
X3655357Y6924747D01*
X3655361Y6924740D01*
X3737437Y6801904D01*
X3737439Y6801901D01*
X3841900Y6697440D01*
X3841903Y6697438D01*
X3964739Y6615362D01*
X3964746Y6615358D01*
X4101226Y6558825D01*
X4101236Y6558822D01*
X4220000Y6535199D01*
X4220000Y6996212D01*
X4280504Y6980000D01*
X4359496Y6980000D01*
X4420000Y6996212D01*
X4420000Y6535199D01*
X4538763Y6558822D01*
X4538773Y6558825D01*
X4675253Y6615358D01*
X4675260Y6615362D01*
X4798096Y6697438D01*
X4798099Y6697440D01*
X4902560Y6801901D01*
X4902562Y6801904D01*
X4984638Y6924740D01*
X4984642Y6924747D01*
X5041175Y7061227D01*
X5041178Y7061237D01*
X5069999Y7206127D01*
X5070000Y7206137D01*
X5070000Y7479999D01*
X5069999Y7480000D01*
X4620000Y7480000D01*
X4620000Y7680000D01*
X5069999Y7680000D01*
X5070000Y7680001D01*
X5070000Y7953864D01*
X5069999Y7953874D01*
X5041178Y8098764D01*
X5041175Y8098774D01*
X4984642Y8235254D01*
X4984638Y8235261D01*
X4902562Y8358097D01*
X4902560Y8358100D01*
X4798099Y8462561D01*
X4798096Y8462563D01*
X4675260Y8544639D01*
X4675253Y8544643D01*
X4538768Y8601178D01*
X4420000Y8624804D01*
X4420000Y8163789D01*
X4359496Y8180000D01*
X4280504Y8180000D01*
X4220000Y8163789D01*
X4220000Y8624804D01*
X4101232Y8601178D01*
X4101231Y8601178D01*
X3964746Y8544643D01*
X3964739Y8544639D01*
X3841903Y8462563D01*
X3841900Y8462561D01*
X3737439Y8358100D01*
X3737437Y8358097D01*
X3655361Y8235261D01*
X3655357Y8235254D01*
X3598824Y8098774D01*
X3598821Y8098764D01*
X3570000Y7953874D01*
X-3570001Y7953874D01*
X-3598822Y8098764D01*
X-3598825Y8098774D01*
X-3655358Y8235254D01*
X-3655362Y8235261D01*
X-3737438Y8358097D01*
X-3737440Y8358100D01*
X-3841901Y8462561D01*
X-3841904Y8462563D01*
X-3964740Y8544639D01*
X-3964747Y8544643D01*
X-4101232Y8601178D01*
X-4220000Y8624804D01*
X-4220000Y8163789D01*
X-4280504Y8180000D01*
X-4359496Y8180000D01*
X-4420000Y8163789D01*
X-4420000Y8624804D01*
X-4538768Y8601178D01*
X-4538769Y8601178D01*
X-4675254Y8544643D01*
X-4675261Y8544639D01*
X-4798097Y8462563D01*
X-4798100Y8462561D01*
X-4902561Y8358100D01*
X-4902563Y8358097D01*
X-4984639Y8235261D01*
X-4984643Y8235254D01*
X-5041176Y8098774D01*
X-5041179Y8098764D01*
X-5070000Y7953874D01*
X-13249500Y7953874D01*
X-13249500Y9997744D01*
X-13249381Y10002271D01*
X-13242972Y10124565D01*
X-11900500Y10124565D01*
X-11900500Y9875435D01*
X-11867982Y9628435D01*
X-11816151Y9434998D01*
X-11803503Y9387796D01*
X-11708165Y9157629D01*
X-11708159Y9157617D01*
X-11583599Y8941873D01*
X-11431938Y8744224D01*
X-11255776Y8568062D01*
X-11058127Y8416401D01*
X-10957146Y8358100D01*
X-10842384Y8291842D01*
X-10842380Y8291840D01*
X-10842373Y8291836D01*
X-10612207Y8196498D01*
X-10371565Y8132018D01*
X-10167168Y8105109D01*
X-10124567Y8099500D01*
X-10124565Y8099500D01*
X-9875433Y8099500D01*
X-9836215Y8104664D01*
X-9628435Y8132018D01*
X-9387793Y8196498D01*
X-9157627Y8291836D01*
X-8941873Y8416401D01*
X-8744224Y8568062D01*
X-8568062Y8744224D01*
X-8416401Y8941873D01*
X-8291836Y9157627D01*
X-8196498Y9387793D01*
X-8132018Y9628435D01*
X-8099500Y9875435D01*
X-8099500Y10124565D01*
X8099500Y10124565D01*
X8099500Y9875435D01*
X8132018Y9628435D01*
X8183849Y9434998D01*
X8196497Y9387796D01*
X8291835Y9157629D01*
X8291841Y9157617D01*
X8416401Y8941873D01*
X8568062Y8744224D01*
X8744224Y8568062D01*
X8941873Y8416401D01*
X9042854Y8358100D01*
X9157616Y8291842D01*
X9157620Y8291840D01*
X9157627Y8291836D01*
X9387793Y8196498D01*
X9628435Y8132018D01*
X9832832Y8105109D01*
X9875433Y8099500D01*
X9875435Y8099500D01*
X10124567Y8099500D01*
X10163785Y8104664D01*
X10371565Y8132018D01*
X10612207Y8196498D01*
X10842373Y8291836D01*
X11058127Y8416401D01*
X11255776Y8568062D01*
X11431938Y8744224D01*
X11583599Y8941873D01*
X11708164Y9157627D01*
X11803502Y9387793D01*
X11867982Y9628435D01*
X11900500Y9875435D01*
X11900500Y10124565D01*
X11899531Y10131924D01*
X11891028Y10196512D01*
X11867982Y10371565D01*
X11803502Y10612207D01*
X11708164Y10842373D01*
X11583599Y11058127D01*
X11431938Y11255776D01*
X11255776Y11431938D01*
X11058127Y11583599D01*
X10980266Y11628552D01*
X10842383Y11708159D01*
X10842371Y11708165D01*
X10732019Y11753874D01*
X10612207Y11803502D01*
X10612205Y11803503D01*
X10612204Y11803503D01*
X10565002Y11816151D01*
X10371565Y11867982D01*
X10223365Y11887493D01*
X10124567Y11900500D01*
X10124565Y11900500D01*
X9875435Y11900500D01*
X9875433Y11900500D01*
X9751935Y11884241D01*
X9628435Y11867982D01*
X9499477Y11833428D01*
X9387795Y11803503D01*
X9157628Y11708165D01*
X9157616Y11708159D01*
X8941872Y11583599D01*
X8744225Y11431939D01*
X8568061Y11255775D01*
X8416401Y11058128D01*
X8291841Y10842384D01*
X8291835Y10842372D01*
X8196497Y10612205D01*
X8189974Y10587861D01*
X8132018Y10371565D01*
X8127222Y10335134D01*
X8100469Y10131924D01*
X8099500Y10124565D01*
X-8099500Y10124565D01*
X-8100469Y10131924D01*
X-8108972Y10196512D01*
X-8132018Y10371565D01*
X-8196498Y10612207D01*
X-8291836Y10842373D01*
X-8416401Y11058127D01*
X-8568062Y11255776D01*
X-8744224Y11431938D01*
X-8941873Y11583599D01*
X-9157627Y11708164D01*
X-9267981Y11753874D01*
X-5070000Y11753874D01*
X-5070000Y11480001D01*
X-5069999Y11480000D01*
X-4620000Y11480000D01*
X-4620000Y11280000D01*
X-5069999Y11280000D01*
X-5070000Y11279999D01*
X-5070000Y11006127D01*
X-5041179Y10861237D01*
X-5041176Y10861227D01*
X-4984643Y10724747D01*
X-4984639Y10724740D01*
X-4902563Y10601904D01*
X-4902561Y10601901D01*
X-4798100Y10497440D01*
X-4798097Y10497438D01*
X-4675261Y10415362D01*
X-4675254Y10415358D01*
X-4538774Y10358825D01*
X-4538764Y10358822D01*
X-4420000Y10335199D01*
X-4420000Y10796212D01*
X-4359496Y10780000D01*
X-4280504Y10780000D01*
X-4220000Y10796212D01*
X-4220000Y10335199D01*
X-4101237Y10358822D01*
X-4101227Y10358825D01*
X-3964747Y10415358D01*
X-3964740Y10415362D01*
X-3841904Y10497438D01*
X-3841901Y10497440D01*
X-3737440Y10601901D01*
X-3737438Y10601904D01*
X-3655362Y10724740D01*
X-3655358Y10724747D01*
X-3598825Y10861227D01*
X-3598822Y10861237D01*
X-3570001Y11006127D01*
X-3570000Y11006137D01*
X-3570000Y11279999D01*
X-3570001Y11280000D01*
X-4020000Y11280000D01*
X-4020000Y11480000D01*
X-3570001Y11480000D01*
X-3570000Y11480001D01*
X-3570000Y11753864D01*
X-3570001Y11753874D01*
X3570000Y11753874D01*
X3570000Y11480001D01*
X3570001Y11480000D01*
X4020000Y11480000D01*
X4020000Y11280000D01*
X3570001Y11280000D01*
X3570000Y11279999D01*
X3570000Y11006127D01*
X3598821Y10861237D01*
X3598824Y10861227D01*
X3655357Y10724747D01*
X3655361Y10724740D01*
X3737437Y10601904D01*
X3737439Y10601901D01*
X3841900Y10497440D01*
X3841903Y10497438D01*
X3964739Y10415362D01*
X3964746Y10415358D01*
X4101226Y10358825D01*
X4101236Y10358822D01*
X4220000Y10335199D01*
X4220000Y10796212D01*
X4280504Y10780000D01*
X4359496Y10780000D01*
X4420000Y10796212D01*
X4420000Y10335199D01*
X4538763Y10358822D01*
X4538773Y10358825D01*
X4675253Y10415358D01*
X4675260Y10415362D01*
X4798096Y10497438D01*
X4798099Y10497440D01*
X4902560Y10601901D01*
X4902562Y10601904D01*
X4984638Y10724740D01*
X4984642Y10724747D01*
X5041175Y10861227D01*
X5041178Y10861237D01*
X5069999Y11006127D01*
X5070000Y11006137D01*
X5070000Y11279999D01*
X5069999Y11280000D01*
X4620000Y11280000D01*
X4620000Y11480000D01*
X5069999Y11480000D01*
X5070000Y11480001D01*
X5070000Y11753864D01*
X5069999Y11753874D01*
X5041178Y11898764D01*
X5041175Y11898774D01*
X4984642Y12035254D01*
X4984638Y12035261D01*
X4902562Y12158097D01*
X4902560Y12158100D01*
X4798099Y12262561D01*
X4798096Y12262563D01*
X4675260Y12344639D01*
X4675253Y12344643D01*
X4538768Y12401178D01*
X4420000Y12424804D01*
X4420000Y11963789D01*
X4359496Y11980000D01*
X4280504Y11980000D01*
X4220000Y11963789D01*
X4220000Y12424804D01*
X4101232Y12401178D01*
X4101231Y12401178D01*
X3964746Y12344643D01*
X3964739Y12344639D01*
X3841903Y12262563D01*
X3841900Y12262561D01*
X3737439Y12158100D01*
X3737437Y12158097D01*
X3655361Y12035261D01*
X3655357Y12035254D01*
X3598824Y11898774D01*
X3598821Y11898764D01*
X3570000Y11753874D01*
X-3570001Y11753874D01*
X-3598822Y11898764D01*
X-3598825Y11898774D01*
X-3655358Y12035254D01*
X-3655362Y12035261D01*
X-3737438Y12158097D01*
X-3737440Y12158100D01*
X-3841901Y12262561D01*
X-3841904Y12262563D01*
X-3964740Y12344639D01*
X-3964747Y12344643D01*
X-4101232Y12401178D01*
X-4220000Y12424804D01*
X-4220000Y11963789D01*
X-4280504Y11980000D01*
X-4359496Y11980000D01*
X-4420000Y11963789D01*
X-4420000Y12424804D01*
X-4538768Y12401178D01*
X-4538769Y12401178D01*
X-4675254Y12344643D01*
X-4675261Y12344639D01*
X-4798097Y12262563D01*
X-4798100Y12262561D01*
X-4902561Y12158100D01*
X-4902563Y12158097D01*
X-4984639Y12035261D01*
X-4984643Y12035254D01*
X-5041176Y11898774D01*
X-5041179Y11898764D01*
X-5070000Y11753874D01*
X-9267981Y11753874D01*
X-9387793Y11803502D01*
X-9387795Y11803503D01*
X-9387796Y11803503D01*
X-9434998Y11816151D01*
X-9628435Y11867982D01*
X-9776635Y11887493D01*
X-9875433Y11900500D01*
X-9875435Y11900500D01*
X-10124565Y11900500D01*
X-10124567Y11900500D01*
X-10248065Y11884241D01*
X-10371565Y11867982D01*
X-10500523Y11833428D01*
X-10612205Y11803503D01*
X-10842372Y11708165D01*
X-10842384Y11708159D01*
X-11058128Y11583599D01*
X-11255775Y11431939D01*
X-11431939Y11255775D01*
X-11583599Y11058128D01*
X-11708159Y10842384D01*
X-11708165Y10842372D01*
X-11803503Y10612205D01*
X-11810026Y10587861D01*
X-11867982Y10371565D01*
X-11872778Y10335134D01*
X-11899531Y10131924D01*
X-11900500Y10124565D01*
X-13242972Y10124565D01*
X-13242586Y10131924D01*
X-13239201Y10196512D01*
X-13231936Y10335145D01*
X-13230993Y10344128D01*
X-13179200Y10671134D01*
X-13177319Y10679984D01*
X-13091626Y10999795D01*
X-13088842Y11008364D01*
X-12970187Y11317471D01*
X-12966510Y11325727D01*
X-12816201Y11620727D01*
X-12811691Y11628538D01*
X-12631365Y11906215D01*
X-12626054Y11913524D01*
X-12417698Y12170823D01*
X-12411658Y12177532D01*
X-12177532Y12411658D01*
X-12170823Y12417698D01*
X-11913524Y12626054D01*
X-11906215Y12631365D01*
X-11628538Y12811691D01*
X-11620727Y12816201D01*
X-11325727Y12966510D01*
X-11317471Y12970187D01*
X-11008364Y13088842D01*
X-10999795Y13091626D01*
X-10679979Y13177321D01*
X-10671134Y13179200D01*
X-10344128Y13230993D01*
X-10335145Y13231936D01*
X-10002271Y13249382D01*
X-9997744Y13249500D01*
X-9934108Y13249500D01*
X9934108Y13249500D01*
X9997744Y13249500D01*
X10002270Y13249382D01*
G37*
%TD.AperFunction*%
%TD*%
M02*
