%TF.GenerationSoftware,KiCad,Pcbnew,9.0.6*%
%TF.CreationDate,2026-03-21T12:36:42-03:00*%
%TF.ProjectId,ColorTemp,436f6c6f-7254-4656-9d70-2e6b69636164,00*%
%TF.SameCoordinates,PX8f0d180PY5f5e100*%
%TF.FileFunction,Legend,Bot*%
%TF.FilePolarity,Positive*%
%FSLAX46Y46*%
G04 Gerber Fmt 4.6, Leading zero omitted, Abs format (unit mm)*
G04 Created by KiCad (PCBNEW 9.0.6) date 2026-03-21 12:36:42*
%MOMM*%
%LPD*%
G01*
G04 APERTURE LIST*
%ADD10C,0.200000*%
%ADD11C,0.400000*%
%ADD12C,0.175000*%
%ADD13C,0.000000*%
%ADD14C,0.150000*%
%ADD15C,0.120000*%
%ADD16O,1.100000X1.700000*%
%ADD17C,3.200000*%
%ADD18R,1.700000X1.700000*%
%ADD19C,1.700000*%
G04 APERTURE END LIST*
D10*
X-5933725Y-2373333D02*
X-6409916Y-2040000D01*
X-5933725Y-1801905D02*
X-6933725Y-1801905D01*
X-6933725Y-1801905D02*
X-6933725Y-2182857D01*
X-6933725Y-2182857D02*
X-6886106Y-2278095D01*
X-6886106Y-2278095D02*
X-6838487Y-2325714D01*
X-6838487Y-2325714D02*
X-6743249Y-2373333D01*
X-6743249Y-2373333D02*
X-6600392Y-2373333D01*
X-6600392Y-2373333D02*
X-6505154Y-2325714D01*
X-6505154Y-2325714D02*
X-6457535Y-2278095D01*
X-6457535Y-2278095D02*
X-6409916Y-2182857D01*
X-6409916Y-2182857D02*
X-6409916Y-1801905D01*
X-6933725Y-2706667D02*
X-5933725Y-3373333D01*
X-6933725Y-3373333D02*
X-5933725Y-2706667D01*
X-5323781Y-1778095D02*
X-5323781Y-2349523D01*
X-4323781Y-2063809D02*
X-5323781Y-2063809D01*
X-5323781Y-2587619D02*
X-4323781Y-3254285D01*
X-5323781Y-3254285D02*
X-4323781Y-2587619D01*
X-6028964Y-4984761D02*
X-5981344Y-4937142D01*
X-5981344Y-4937142D02*
X-5933725Y-4794285D01*
X-5933725Y-4794285D02*
X-5933725Y-4699047D01*
X-5933725Y-4699047D02*
X-5981344Y-4556190D01*
X-5981344Y-4556190D02*
X-6076583Y-4460952D01*
X-6076583Y-4460952D02*
X-6171821Y-4413333D01*
X-6171821Y-4413333D02*
X-6362297Y-4365714D01*
X-6362297Y-4365714D02*
X-6505154Y-4365714D01*
X-6505154Y-4365714D02*
X-6695630Y-4413333D01*
X-6695630Y-4413333D02*
X-6790868Y-4460952D01*
X-6790868Y-4460952D02*
X-6886106Y-4556190D01*
X-6886106Y-4556190D02*
X-6933725Y-4699047D01*
X-6933725Y-4699047D02*
X-6933725Y-4794285D01*
X-6933725Y-4794285D02*
X-6886106Y-4937142D01*
X-6886106Y-4937142D02*
X-6838487Y-4984761D01*
X-5933725Y-5889523D02*
X-5933725Y-5413333D01*
X-5933725Y-5413333D02*
X-6933725Y-5413333D01*
X-4323781Y-4389524D02*
X-5323781Y-4389524D01*
X-5323781Y-4389524D02*
X-5323781Y-4627619D01*
X-5323781Y-4627619D02*
X-5276162Y-4770476D01*
X-5276162Y-4770476D02*
X-5180924Y-4865714D01*
X-5180924Y-4865714D02*
X-5085686Y-4913333D01*
X-5085686Y-4913333D02*
X-4895210Y-4960952D01*
X-4895210Y-4960952D02*
X-4752353Y-4960952D01*
X-4752353Y-4960952D02*
X-4561877Y-4913333D01*
X-4561877Y-4913333D02*
X-4466639Y-4865714D01*
X-4466639Y-4865714D02*
X-4371400Y-4770476D01*
X-4371400Y-4770476D02*
X-4323781Y-4627619D01*
X-4323781Y-4627619D02*
X-4323781Y-4389524D01*
X-4609496Y-5341905D02*
X-4609496Y-5818095D01*
X-4323781Y-5246667D02*
X-5323781Y-5580000D01*
X-5323781Y-5580000D02*
X-4323781Y-5913333D01*
X-6028964Y166667D02*
X-5981344Y214286D01*
X-5981344Y214286D02*
X-5933725Y357143D01*
X-5933725Y357143D02*
X-5933725Y452381D01*
X-5933725Y452381D02*
X-5981344Y595238D01*
X-5981344Y595238D02*
X-6076583Y690476D01*
X-6076583Y690476D02*
X-6171821Y738095D01*
X-6171821Y738095D02*
X-6362297Y785714D01*
X-6362297Y785714D02*
X-6505154Y785714D01*
X-6505154Y785714D02*
X-6695630Y738095D01*
X-6695630Y738095D02*
X-6790868Y690476D01*
X-6790868Y690476D02*
X-6886106Y595238D01*
X-6886106Y595238D02*
X-6933725Y452381D01*
X-6933725Y452381D02*
X-6933725Y357143D01*
X-6933725Y357143D02*
X-6886106Y214286D01*
X-6886106Y214286D02*
X-6838487Y166667D01*
X-6933725Y-690476D02*
X-6933725Y-500000D01*
X-6933725Y-500000D02*
X-6886106Y-404762D01*
X-6886106Y-404762D02*
X-6838487Y-357143D01*
X-6838487Y-357143D02*
X-6695630Y-261905D01*
X-6695630Y-261905D02*
X-6505154Y-214286D01*
X-6505154Y-214286D02*
X-6124202Y-214286D01*
X-6124202Y-214286D02*
X-6028964Y-261905D01*
X-6028964Y-261905D02*
X-5981344Y-309524D01*
X-5981344Y-309524D02*
X-5933725Y-404762D01*
X-5933725Y-404762D02*
X-5933725Y-595238D01*
X-5933725Y-595238D02*
X-5981344Y-690476D01*
X-5981344Y-690476D02*
X-6028964Y-738095D01*
X-6028964Y-738095D02*
X-6124202Y-785714D01*
X-6124202Y-785714D02*
X-6362297Y-785714D01*
X-6362297Y-785714D02*
X-6457535Y-738095D01*
X-6457535Y-738095D02*
X-6505154Y-690476D01*
X-6505154Y-690476D02*
X-6552773Y-595238D01*
X-6552773Y-595238D02*
X-6552773Y-404762D01*
X-6552773Y-404762D02*
X-6505154Y-309524D01*
X-6505154Y-309524D02*
X-6457535Y-261905D01*
X-6457535Y-261905D02*
X-6362297Y-214286D01*
X-4419020Y166667D02*
X-4371400Y214286D01*
X-4371400Y214286D02*
X-4323781Y357143D01*
X-4323781Y357143D02*
X-4323781Y452381D01*
X-4323781Y452381D02*
X-4371400Y595238D01*
X-4371400Y595238D02*
X-4466639Y690476D01*
X-4466639Y690476D02*
X-4561877Y738095D01*
X-4561877Y738095D02*
X-4752353Y785714D01*
X-4752353Y785714D02*
X-4895210Y785714D01*
X-4895210Y785714D02*
X-5085686Y738095D01*
X-5085686Y738095D02*
X-5180924Y690476D01*
X-5180924Y690476D02*
X-5276162Y595238D01*
X-5276162Y595238D02*
X-5323781Y452381D01*
X-5323781Y452381D02*
X-5323781Y357143D01*
X-5323781Y357143D02*
X-5276162Y214286D01*
X-5276162Y214286D02*
X-5228543Y166667D01*
X-5323781Y-738095D02*
X-5323781Y-261905D01*
X-5323781Y-261905D02*
X-4847591Y-214286D01*
X-4847591Y-214286D02*
X-4895210Y-261905D01*
X-4895210Y-261905D02*
X-4942829Y-357143D01*
X-4942829Y-357143D02*
X-4942829Y-595238D01*
X-4942829Y-595238D02*
X-4895210Y-690476D01*
X-4895210Y-690476D02*
X-4847591Y-738095D01*
X-4847591Y-738095D02*
X-4752353Y-785714D01*
X-4752353Y-785714D02*
X-4514258Y-785714D01*
X-4514258Y-785714D02*
X-4419020Y-738095D01*
X-4419020Y-738095D02*
X-4371400Y-690476D01*
X-4371400Y-690476D02*
X-4323781Y-595238D01*
X-4323781Y-595238D02*
X-4323781Y-357143D01*
X-4323781Y-357143D02*
X-4371400Y-261905D01*
X-4371400Y-261905D02*
X-4419020Y-214286D01*
X-6028964Y2579667D02*
X-5981344Y2627286D01*
X-5981344Y2627286D02*
X-5933725Y2770143D01*
X-5933725Y2770143D02*
X-5933725Y2865381D01*
X-5933725Y2865381D02*
X-5981344Y3008238D01*
X-5981344Y3008238D02*
X-6076583Y3103476D01*
X-6076583Y3103476D02*
X-6171821Y3151095D01*
X-6171821Y3151095D02*
X-6362297Y3198714D01*
X-6362297Y3198714D02*
X-6505154Y3198714D01*
X-6505154Y3198714D02*
X-6695630Y3151095D01*
X-6695630Y3151095D02*
X-6790868Y3103476D01*
X-6790868Y3103476D02*
X-6886106Y3008238D01*
X-6886106Y3008238D02*
X-6933725Y2865381D01*
X-6933725Y2865381D02*
X-6933725Y2770143D01*
X-6933725Y2770143D02*
X-6886106Y2627286D01*
X-6886106Y2627286D02*
X-6838487Y2579667D01*
X-6600392Y1722524D02*
X-5933725Y1722524D01*
X-6981344Y1960619D02*
X-6267059Y2198714D01*
X-6267059Y2198714D02*
X-6267059Y1579667D01*
X-4323781Y3436809D02*
X-5323781Y3436809D01*
X-5323781Y3436809D02*
X-5323781Y3198714D01*
X-5323781Y3198714D02*
X-5276162Y3055857D01*
X-5276162Y3055857D02*
X-5180924Y2960619D01*
X-5180924Y2960619D02*
X-5085686Y2913000D01*
X-5085686Y2913000D02*
X-4895210Y2865381D01*
X-4895210Y2865381D02*
X-4752353Y2865381D01*
X-4752353Y2865381D02*
X-4561877Y2913000D01*
X-4561877Y2913000D02*
X-4466639Y2960619D01*
X-4466639Y2960619D02*
X-4371400Y3055857D01*
X-4371400Y3055857D02*
X-4323781Y3198714D01*
X-4323781Y3198714D02*
X-4323781Y3436809D01*
X-4323781Y2436809D02*
X-5323781Y2436809D01*
X-5323781Y1770143D02*
X-5323781Y1579667D01*
X-5323781Y1579667D02*
X-5276162Y1484429D01*
X-5276162Y1484429D02*
X-5180924Y1389191D01*
X-5180924Y1389191D02*
X-4990448Y1341572D01*
X-4990448Y1341572D02*
X-4657115Y1341572D01*
X-4657115Y1341572D02*
X-4466639Y1389191D01*
X-4466639Y1389191D02*
X-4371400Y1484429D01*
X-4371400Y1484429D02*
X-4323781Y1579667D01*
X-4323781Y1579667D02*
X-4323781Y1770143D01*
X-4323781Y1770143D02*
X-4371400Y1865381D01*
X-4371400Y1865381D02*
X-4466639Y1960619D01*
X-4466639Y1960619D02*
X-4657115Y2008238D01*
X-4657115Y2008238D02*
X-4990448Y2008238D01*
X-4990448Y2008238D02*
X-5180924Y1960619D01*
X-5180924Y1960619D02*
X-5276162Y1865381D01*
X-5276162Y1865381D02*
X-5323781Y1770143D01*
X6505326Y-11382275D02*
X6505326Y-10382275D01*
X6505326Y-10382275D02*
X6171993Y-11096560D01*
X6171993Y-11096560D02*
X5838660Y-10382275D01*
X5838660Y-10382275D02*
X5838660Y-11382275D01*
X4981517Y-11334656D02*
X5076755Y-11382275D01*
X5076755Y-11382275D02*
X5267231Y-11382275D01*
X5267231Y-11382275D02*
X5362469Y-11334656D01*
X5362469Y-11334656D02*
X5410088Y-11239417D01*
X5410088Y-11239417D02*
X5410088Y-10858465D01*
X5410088Y-10858465D02*
X5362469Y-10763227D01*
X5362469Y-10763227D02*
X5267231Y-10715608D01*
X5267231Y-10715608D02*
X5076755Y-10715608D01*
X5076755Y-10715608D02*
X4981517Y-10763227D01*
X4981517Y-10763227D02*
X4933898Y-10858465D01*
X4933898Y-10858465D02*
X4933898Y-10953703D01*
X4933898Y-10953703D02*
X5410088Y-11048941D01*
X4076755Y-11334656D02*
X4171993Y-11382275D01*
X4171993Y-11382275D02*
X4362469Y-11382275D01*
X4362469Y-11382275D02*
X4457707Y-11334656D01*
X4457707Y-11334656D02*
X4505326Y-11287036D01*
X4505326Y-11287036D02*
X4552945Y-11191798D01*
X4552945Y-11191798D02*
X4552945Y-10906084D01*
X4552945Y-10906084D02*
X4505326Y-10810846D01*
X4505326Y-10810846D02*
X4457707Y-10763227D01*
X4457707Y-10763227D02*
X4362469Y-10715608D01*
X4362469Y-10715608D02*
X4171993Y-10715608D01*
X4171993Y-10715608D02*
X4076755Y-10763227D01*
X3648183Y-11382275D02*
X3648183Y-10382275D01*
X3219612Y-11382275D02*
X3219612Y-10858465D01*
X3219612Y-10858465D02*
X3267231Y-10763227D01*
X3267231Y-10763227D02*
X3362469Y-10715608D01*
X3362469Y-10715608D02*
X3505326Y-10715608D01*
X3505326Y-10715608D02*
X3600564Y-10763227D01*
X3600564Y-10763227D02*
X3648183Y-10810846D01*
X2314850Y-11382275D02*
X2314850Y-10858465D01*
X2314850Y-10858465D02*
X2362469Y-10763227D01*
X2362469Y-10763227D02*
X2457707Y-10715608D01*
X2457707Y-10715608D02*
X2648183Y-10715608D01*
X2648183Y-10715608D02*
X2743421Y-10763227D01*
X2314850Y-11334656D02*
X2410088Y-11382275D01*
X2410088Y-11382275D02*
X2648183Y-11382275D01*
X2648183Y-11382275D02*
X2743421Y-11334656D01*
X2743421Y-11334656D02*
X2791040Y-11239417D01*
X2791040Y-11239417D02*
X2791040Y-11144179D01*
X2791040Y-11144179D02*
X2743421Y-11048941D01*
X2743421Y-11048941D02*
X2648183Y-11001322D01*
X2648183Y-11001322D02*
X2410088Y-11001322D01*
X2410088Y-11001322D02*
X2314850Y-10953703D01*
X1981516Y-10715608D02*
X1600564Y-10715608D01*
X1838659Y-10382275D02*
X1838659Y-11239417D01*
X1838659Y-11239417D02*
X1791040Y-11334656D01*
X1791040Y-11334656D02*
X1695802Y-11382275D01*
X1695802Y-11382275D02*
X1600564Y-11382275D01*
X1267230Y-11382275D02*
X1267230Y-10715608D01*
X1267230Y-10906084D02*
X1219611Y-10810846D01*
X1219611Y-10810846D02*
X1171992Y-10763227D01*
X1171992Y-10763227D02*
X1076754Y-10715608D01*
X1076754Y-10715608D02*
X981516Y-10715608D01*
X505325Y-11382275D02*
X600563Y-11334656D01*
X600563Y-11334656D02*
X648182Y-11287036D01*
X648182Y-11287036D02*
X695801Y-11191798D01*
X695801Y-11191798D02*
X695801Y-10906084D01*
X695801Y-10906084D02*
X648182Y-10810846D01*
X648182Y-10810846D02*
X600563Y-10763227D01*
X600563Y-10763227D02*
X505325Y-10715608D01*
X505325Y-10715608D02*
X362468Y-10715608D01*
X362468Y-10715608D02*
X267230Y-10763227D01*
X267230Y-10763227D02*
X219611Y-10810846D01*
X219611Y-10810846D02*
X171992Y-10906084D01*
X171992Y-10906084D02*
X171992Y-11191798D01*
X171992Y-11191798D02*
X219611Y-11287036D01*
X219611Y-11287036D02*
X267230Y-11334656D01*
X267230Y-11334656D02*
X362468Y-11382275D01*
X362468Y-11382275D02*
X505325Y-11382275D01*
X-256580Y-10715608D02*
X-256580Y-11382275D01*
X-256580Y-10810846D02*
X-304199Y-10763227D01*
X-304199Y-10763227D02*
X-399437Y-10715608D01*
X-399437Y-10715608D02*
X-542294Y-10715608D01*
X-542294Y-10715608D02*
X-637532Y-10763227D01*
X-637532Y-10763227D02*
X-685151Y-10858465D01*
X-685151Y-10858465D02*
X-685151Y-11382275D01*
X-1161342Y-11382275D02*
X-1161342Y-10715608D01*
X-1161342Y-10382275D02*
X-1113723Y-10429894D01*
X-1113723Y-10429894D02*
X-1161342Y-10477513D01*
X-1161342Y-10477513D02*
X-1208961Y-10429894D01*
X-1208961Y-10429894D02*
X-1161342Y-10382275D01*
X-1161342Y-10382275D02*
X-1161342Y-10477513D01*
X-1542294Y-11382275D02*
X-2066103Y-10715608D01*
X-1542294Y-10715608D02*
X-2066103Y-11382275D01*
X-3685151Y-11382275D02*
X-3208961Y-11382275D01*
X-3208961Y-11382275D02*
X-3208961Y-10382275D01*
X-4447056Y-11382275D02*
X-4447056Y-10858465D01*
X-4447056Y-10858465D02*
X-4399437Y-10763227D01*
X-4399437Y-10763227D02*
X-4304199Y-10715608D01*
X-4304199Y-10715608D02*
X-4113723Y-10715608D01*
X-4113723Y-10715608D02*
X-4018485Y-10763227D01*
X-4447056Y-11334656D02*
X-4351818Y-11382275D01*
X-4351818Y-11382275D02*
X-4113723Y-11382275D01*
X-4113723Y-11382275D02*
X-4018485Y-11334656D01*
X-4018485Y-11334656D02*
X-3970866Y-11239417D01*
X-3970866Y-11239417D02*
X-3970866Y-11144179D01*
X-3970866Y-11144179D02*
X-4018485Y-11048941D01*
X-4018485Y-11048941D02*
X-4113723Y-11001322D01*
X-4113723Y-11001322D02*
X-4351818Y-11001322D01*
X-4351818Y-11001322D02*
X-4447056Y-10953703D01*
X-4923247Y-11382275D02*
X-4923247Y-10382275D01*
X-4923247Y-10763227D02*
X-5018485Y-10715608D01*
X-5018485Y-10715608D02*
X-5208961Y-10715608D01*
X-5208961Y-10715608D02*
X-5304199Y-10763227D01*
X-5304199Y-10763227D02*
X-5351818Y-10810846D01*
X-5351818Y-10810846D02*
X-5399437Y-10906084D01*
X-5399437Y-10906084D02*
X-5399437Y-11191798D01*
X-5399437Y-11191798D02*
X-5351818Y-11287036D01*
X-5351818Y-11287036D02*
X-5304199Y-11334656D01*
X-5304199Y-11334656D02*
X-5208961Y-11382275D01*
X-5208961Y-11382275D02*
X-5018485Y-11382275D01*
X-5018485Y-11382275D02*
X-4923247Y-11334656D01*
X5933898Y-12992219D02*
X6267231Y-12516028D01*
X6505326Y-12992219D02*
X6505326Y-11992219D01*
X6505326Y-11992219D02*
X6124374Y-11992219D01*
X6124374Y-11992219D02*
X6029136Y-12039838D01*
X6029136Y-12039838D02*
X5981517Y-12087457D01*
X5981517Y-12087457D02*
X5933898Y-12182695D01*
X5933898Y-12182695D02*
X5933898Y-12325552D01*
X5933898Y-12325552D02*
X5981517Y-12420790D01*
X5981517Y-12420790D02*
X6029136Y-12468409D01*
X6029136Y-12468409D02*
X6124374Y-12516028D01*
X6124374Y-12516028D02*
X6505326Y-12516028D01*
X5124374Y-12944600D02*
X5219612Y-12992219D01*
X5219612Y-12992219D02*
X5410088Y-12992219D01*
X5410088Y-12992219D02*
X5505326Y-12944600D01*
X5505326Y-12944600D02*
X5552945Y-12849361D01*
X5552945Y-12849361D02*
X5552945Y-12468409D01*
X5552945Y-12468409D02*
X5505326Y-12373171D01*
X5505326Y-12373171D02*
X5410088Y-12325552D01*
X5410088Y-12325552D02*
X5219612Y-12325552D01*
X5219612Y-12325552D02*
X5124374Y-12373171D01*
X5124374Y-12373171D02*
X5076755Y-12468409D01*
X5076755Y-12468409D02*
X5076755Y-12563647D01*
X5076755Y-12563647D02*
X5552945Y-12658885D01*
X4743421Y-12325552D02*
X4505326Y-12992219D01*
X4505326Y-12992219D02*
X4267231Y-12325552D01*
X3886278Y-12896980D02*
X3838659Y-12944600D01*
X3838659Y-12944600D02*
X3886278Y-12992219D01*
X3886278Y-12992219D02*
X3933897Y-12944600D01*
X3933897Y-12944600D02*
X3886278Y-12896980D01*
X3886278Y-12896980D02*
X3886278Y-12992219D01*
X3219612Y-11992219D02*
X3124374Y-11992219D01*
X3124374Y-11992219D02*
X3029136Y-12039838D01*
X3029136Y-12039838D02*
X2981517Y-12087457D01*
X2981517Y-12087457D02*
X2933898Y-12182695D01*
X2933898Y-12182695D02*
X2886279Y-12373171D01*
X2886279Y-12373171D02*
X2886279Y-12611266D01*
X2886279Y-12611266D02*
X2933898Y-12801742D01*
X2933898Y-12801742D02*
X2981517Y-12896980D01*
X2981517Y-12896980D02*
X3029136Y-12944600D01*
X3029136Y-12944600D02*
X3124374Y-12992219D01*
X3124374Y-12992219D02*
X3219612Y-12992219D01*
X3219612Y-12992219D02*
X3314850Y-12944600D01*
X3314850Y-12944600D02*
X3362469Y-12896980D01*
X3362469Y-12896980D02*
X3410088Y-12801742D01*
X3410088Y-12801742D02*
X3457707Y-12611266D01*
X3457707Y-12611266D02*
X3457707Y-12373171D01*
X3457707Y-12373171D02*
X3410088Y-12182695D01*
X3410088Y-12182695D02*
X3362469Y-12087457D01*
X3362469Y-12087457D02*
X3314850Y-12039838D01*
X3314850Y-12039838D02*
X3219612Y-11992219D01*
X2267231Y-11992219D02*
X2171993Y-11992219D01*
X2171993Y-11992219D02*
X2076755Y-12039838D01*
X2076755Y-12039838D02*
X2029136Y-12087457D01*
X2029136Y-12087457D02*
X1981517Y-12182695D01*
X1981517Y-12182695D02*
X1933898Y-12373171D01*
X1933898Y-12373171D02*
X1933898Y-12611266D01*
X1933898Y-12611266D02*
X1981517Y-12801742D01*
X1981517Y-12801742D02*
X2029136Y-12896980D01*
X2029136Y-12896980D02*
X2076755Y-12944600D01*
X2076755Y-12944600D02*
X2171993Y-12992219D01*
X2171993Y-12992219D02*
X2267231Y-12992219D01*
X2267231Y-12992219D02*
X2362469Y-12944600D01*
X2362469Y-12944600D02*
X2410088Y-12896980D01*
X2410088Y-12896980D02*
X2457707Y-12801742D01*
X2457707Y-12801742D02*
X2505326Y-12611266D01*
X2505326Y-12611266D02*
X2505326Y-12373171D01*
X2505326Y-12373171D02*
X2457707Y-12182695D01*
X2457707Y-12182695D02*
X2410088Y-12087457D01*
X2410088Y-12087457D02*
X2362469Y-12039838D01*
X2362469Y-12039838D02*
X2267231Y-11992219D01*
X791040Y-12087457D02*
X743421Y-12039838D01*
X743421Y-12039838D02*
X648183Y-11992219D01*
X648183Y-11992219D02*
X410088Y-11992219D01*
X410088Y-11992219D02*
X314850Y-12039838D01*
X314850Y-12039838D02*
X267231Y-12087457D01*
X267231Y-12087457D02*
X219612Y-12182695D01*
X219612Y-12182695D02*
X219612Y-12277933D01*
X219612Y-12277933D02*
X267231Y-12420790D01*
X267231Y-12420790D02*
X838659Y-12992219D01*
X838659Y-12992219D02*
X219612Y-12992219D01*
X-399436Y-11992219D02*
X-494674Y-11992219D01*
X-494674Y-11992219D02*
X-589912Y-12039838D01*
X-589912Y-12039838D02*
X-637531Y-12087457D01*
X-637531Y-12087457D02*
X-685150Y-12182695D01*
X-685150Y-12182695D02*
X-732769Y-12373171D01*
X-732769Y-12373171D02*
X-732769Y-12611266D01*
X-732769Y-12611266D02*
X-685150Y-12801742D01*
X-685150Y-12801742D02*
X-637531Y-12896980D01*
X-637531Y-12896980D02*
X-589912Y-12944600D01*
X-589912Y-12944600D02*
X-494674Y-12992219D01*
X-494674Y-12992219D02*
X-399436Y-12992219D01*
X-399436Y-12992219D02*
X-304198Y-12944600D01*
X-304198Y-12944600D02*
X-256579Y-12896980D01*
X-256579Y-12896980D02*
X-208960Y-12801742D01*
X-208960Y-12801742D02*
X-161341Y-12611266D01*
X-161341Y-12611266D02*
X-161341Y-12373171D01*
X-161341Y-12373171D02*
X-208960Y-12182695D01*
X-208960Y-12182695D02*
X-256579Y-12087457D01*
X-256579Y-12087457D02*
X-304198Y-12039838D01*
X-304198Y-12039838D02*
X-399436Y-11992219D01*
X-1113722Y-12087457D02*
X-1161341Y-12039838D01*
X-1161341Y-12039838D02*
X-1256579Y-11992219D01*
X-1256579Y-11992219D02*
X-1494674Y-11992219D01*
X-1494674Y-11992219D02*
X-1589912Y-12039838D01*
X-1589912Y-12039838D02*
X-1637531Y-12087457D01*
X-1637531Y-12087457D02*
X-1685150Y-12182695D01*
X-1685150Y-12182695D02*
X-1685150Y-12277933D01*
X-1685150Y-12277933D02*
X-1637531Y-12420790D01*
X-1637531Y-12420790D02*
X-1066103Y-12992219D01*
X-1066103Y-12992219D02*
X-1685150Y-12992219D01*
X-2542293Y-11992219D02*
X-2351817Y-11992219D01*
X-2351817Y-11992219D02*
X-2256579Y-12039838D01*
X-2256579Y-12039838D02*
X-2208960Y-12087457D01*
X-2208960Y-12087457D02*
X-2113722Y-12230314D01*
X-2113722Y-12230314D02*
X-2066103Y-12420790D01*
X-2066103Y-12420790D02*
X-2066103Y-12801742D01*
X-2066103Y-12801742D02*
X-2113722Y-12896980D01*
X-2113722Y-12896980D02*
X-2161341Y-12944600D01*
X-2161341Y-12944600D02*
X-2256579Y-12992219D01*
X-2256579Y-12992219D02*
X-2447055Y-12992219D01*
X-2447055Y-12992219D02*
X-2542293Y-12944600D01*
X-2542293Y-12944600D02*
X-2589912Y-12896980D01*
X-2589912Y-12896980D02*
X-2637531Y-12801742D01*
X-2637531Y-12801742D02*
X-2637531Y-12563647D01*
X-2637531Y-12563647D02*
X-2589912Y-12468409D01*
X-2589912Y-12468409D02*
X-2542293Y-12420790D01*
X-2542293Y-12420790D02*
X-2447055Y-12373171D01*
X-2447055Y-12373171D02*
X-2256579Y-12373171D01*
X-2256579Y-12373171D02*
X-2161341Y-12420790D01*
X-2161341Y-12420790D02*
X-2113722Y-12468409D01*
X-2113722Y-12468409D02*
X-2066103Y-12563647D01*
X-3066103Y-12896980D02*
X-3113722Y-12944600D01*
X-3113722Y-12944600D02*
X-3066103Y-12992219D01*
X-3066103Y-12992219D02*
X-3018484Y-12944600D01*
X-3018484Y-12944600D02*
X-3066103Y-12896980D01*
X-3066103Y-12896980D02*
X-3066103Y-12992219D01*
X-3732769Y-11992219D02*
X-3828007Y-11992219D01*
X-3828007Y-11992219D02*
X-3923245Y-12039838D01*
X-3923245Y-12039838D02*
X-3970864Y-12087457D01*
X-3970864Y-12087457D02*
X-4018483Y-12182695D01*
X-4018483Y-12182695D02*
X-4066102Y-12373171D01*
X-4066102Y-12373171D02*
X-4066102Y-12611266D01*
X-4066102Y-12611266D02*
X-4018483Y-12801742D01*
X-4018483Y-12801742D02*
X-3970864Y-12896980D01*
X-3970864Y-12896980D02*
X-3923245Y-12944600D01*
X-3923245Y-12944600D02*
X-3828007Y-12992219D01*
X-3828007Y-12992219D02*
X-3732769Y-12992219D01*
X-3732769Y-12992219D02*
X-3637531Y-12944600D01*
X-3637531Y-12944600D02*
X-3589912Y-12896980D01*
X-3589912Y-12896980D02*
X-3542293Y-12801742D01*
X-3542293Y-12801742D02*
X-3494674Y-12611266D01*
X-3494674Y-12611266D02*
X-3494674Y-12373171D01*
X-3494674Y-12373171D02*
X-3542293Y-12182695D01*
X-3542293Y-12182695D02*
X-3589912Y-12087457D01*
X-3589912Y-12087457D02*
X-3637531Y-12039838D01*
X-3637531Y-12039838D02*
X-3732769Y-11992219D01*
X-4399436Y-11992219D02*
X-5018483Y-11992219D01*
X-5018483Y-11992219D02*
X-4685150Y-12373171D01*
X-4685150Y-12373171D02*
X-4828007Y-12373171D01*
X-4828007Y-12373171D02*
X-4923245Y-12420790D01*
X-4923245Y-12420790D02*
X-4970864Y-12468409D01*
X-4970864Y-12468409D02*
X-5018483Y-12563647D01*
X-5018483Y-12563647D02*
X-5018483Y-12801742D01*
X-5018483Y-12801742D02*
X-4970864Y-12896980D01*
X-4970864Y-12896980D02*
X-4923245Y-12944600D01*
X-4923245Y-12944600D02*
X-4828007Y-12992219D01*
X-4828007Y-12992219D02*
X-4542293Y-12992219D01*
X-4542293Y-12992219D02*
X-4447055Y-12944600D01*
X-4447055Y-12944600D02*
X-4399436Y-12896980D01*
X-5447055Y-12896980D02*
X-5494674Y-12944600D01*
X-5494674Y-12944600D02*
X-5447055Y-12992219D01*
X-5447055Y-12992219D02*
X-5399436Y-12944600D01*
X-5399436Y-12944600D02*
X-5447055Y-12896980D01*
X-5447055Y-12896980D02*
X-5447055Y-12992219D01*
X-5875626Y-12087457D02*
X-5923245Y-12039838D01*
X-5923245Y-12039838D02*
X-6018483Y-11992219D01*
X-6018483Y-11992219D02*
X-6256578Y-11992219D01*
X-6256578Y-11992219D02*
X-6351816Y-12039838D01*
X-6351816Y-12039838D02*
X-6399435Y-12087457D01*
X-6399435Y-12087457D02*
X-6447054Y-12182695D01*
X-6447054Y-12182695D02*
X-6447054Y-12277933D01*
X-6447054Y-12277933D02*
X-6399435Y-12420790D01*
X-6399435Y-12420790D02*
X-5828007Y-12992219D01*
X-5828007Y-12992219D02*
X-6447054Y-12992219D01*
X-7399435Y-12992219D02*
X-6828007Y-12992219D01*
X-7113721Y-12992219D02*
X-7113721Y-11992219D01*
X-7113721Y-11992219D02*
X-7018483Y-12135076D01*
X-7018483Y-12135076D02*
X-6923245Y-12230314D01*
X-6923245Y-12230314D02*
X-6828007Y-12277933D01*
X-6886106Y4738096D02*
X-6933725Y4833334D01*
X-6933725Y4833334D02*
X-6933725Y4976191D01*
X-6933725Y4976191D02*
X-6886106Y5119048D01*
X-6886106Y5119048D02*
X-6790868Y5214286D01*
X-6790868Y5214286D02*
X-6695630Y5261905D01*
X-6695630Y5261905D02*
X-6505154Y5309524D01*
X-6505154Y5309524D02*
X-6362297Y5309524D01*
X-6362297Y5309524D02*
X-6171821Y5261905D01*
X-6171821Y5261905D02*
X-6076583Y5214286D01*
X-6076583Y5214286D02*
X-5981344Y5119048D01*
X-5981344Y5119048D02*
X-5933725Y4976191D01*
X-5933725Y4976191D02*
X-5933725Y4880953D01*
X-5933725Y4880953D02*
X-5981344Y4738096D01*
X-5981344Y4738096D02*
X-6028964Y4690477D01*
X-6028964Y4690477D02*
X-6362297Y4690477D01*
X-6362297Y4690477D02*
X-6362297Y4880953D01*
X-5323781Y5190477D02*
X-5323781Y5666667D01*
X-5323781Y5666667D02*
X-4847591Y5714286D01*
X-4847591Y5714286D02*
X-4895210Y5666667D01*
X-4895210Y5666667D02*
X-4942829Y5571429D01*
X-4942829Y5571429D02*
X-4942829Y5333334D01*
X-4942829Y5333334D02*
X-4895210Y5238096D01*
X-4895210Y5238096D02*
X-4847591Y5190477D01*
X-4847591Y5190477D02*
X-4752353Y5142858D01*
X-4752353Y5142858D02*
X-4514258Y5142858D01*
X-4514258Y5142858D02*
X-4419020Y5190477D01*
X-4419020Y5190477D02*
X-4371400Y5238096D01*
X-4371400Y5238096D02*
X-4323781Y5333334D01*
X-4323781Y5333334D02*
X-4323781Y5571429D01*
X-4323781Y5571429D02*
X-4371400Y5666667D01*
X-4371400Y5666667D02*
X-4419020Y5714286D01*
X-5323781Y4857143D02*
X-4323781Y4523810D01*
X-4323781Y4523810D02*
X-5323781Y4190477D01*
D11*
G36*
X-5704762Y-7842379D02*
G01*
X-5704762Y-8566593D01*
X-5713881Y-8571153D01*
X-5943263Y-8571153D01*
X-6033911Y-8525829D01*
X-6068962Y-8490778D01*
X-6114286Y-8400129D01*
X-6114286Y-8008842D01*
X-6068963Y-7918194D01*
X-6033911Y-7883143D01*
X-5943263Y-7837820D01*
X-5713881Y-7837820D01*
X-5704762Y-7842379D01*
G37*
G36*
X-1930024Y-7867843D02*
G01*
X-1900000Y-7927890D01*
X-1900000Y-7960525D01*
X-2287129Y-7883099D01*
X-2279501Y-7867843D01*
X-2219453Y-7837820D01*
X-1990071Y-7837820D01*
X-1930024Y-7867843D01*
G37*
G36*
X1905339Y-7883144D02*
G01*
X1940390Y-7918195D01*
X1985714Y-8008842D01*
X1985714Y-8400129D01*
X1940389Y-8490778D01*
X1905339Y-8525828D01*
X1814690Y-8571153D01*
X1666261Y-8571153D01*
X1575613Y-8525829D01*
X1540562Y-8490778D01*
X1495238Y-8400129D01*
X1495238Y-8008842D01*
X1540561Y-7918194D01*
X1575613Y-7883143D01*
X1666261Y-7837820D01*
X1814690Y-7837820D01*
X1905339Y-7883144D01*
G37*
G36*
X4333910Y-7883144D02*
G01*
X4368961Y-7918195D01*
X4414285Y-8008842D01*
X4414285Y-8400129D01*
X4368960Y-8490778D01*
X4333910Y-8525828D01*
X4243261Y-8571153D01*
X4094832Y-8571153D01*
X4004184Y-8525829D01*
X3969133Y-8490778D01*
X3923809Y-8400129D01*
X3923809Y-8008842D01*
X3969132Y-7918194D01*
X4004184Y-7883143D01*
X4094832Y-7837820D01*
X4243261Y-7837820D01*
X4333910Y-7883144D01*
G37*
G36*
X6714285Y-9733977D02*
G01*
X-6714286Y-9733977D01*
X-6714286Y-7961629D01*
X-6514286Y-7961629D01*
X-6514286Y-8447343D01*
X-6510443Y-8486361D01*
X-6507694Y-8492998D01*
X-6507184Y-8500168D01*
X-6493172Y-8536785D01*
X-6412220Y-8698690D01*
X-6401650Y-8715481D01*
X-6399628Y-8720362D01*
X-6395119Y-8725857D01*
X-6391333Y-8731870D01*
X-6387344Y-8735329D01*
X-6374755Y-8750669D01*
X-6293802Y-8831622D01*
X-6278466Y-8844208D01*
X-6275004Y-8848200D01*
X-6268988Y-8851987D01*
X-6263495Y-8856495D01*
X-6258616Y-8858516D01*
X-6241824Y-8869086D01*
X-6079920Y-8950038D01*
X-6043302Y-8964050D01*
X-6036136Y-8964559D01*
X-6029495Y-8967310D01*
X-5990477Y-8971153D01*
X-5704762Y-8971153D01*
X-5704762Y-9337820D01*
X-5700919Y-9376838D01*
X-5671056Y-9448934D01*
X-5615876Y-9504114D01*
X-5543780Y-9533977D01*
X-5465744Y-9533977D01*
X-5393648Y-9504114D01*
X-5338468Y-9448934D01*
X-5308605Y-9376838D01*
X-5304762Y-9337820D01*
X-5304762Y-7880677D01*
X-4895238Y-7880677D01*
X-4895238Y-8771153D01*
X-4891395Y-8810171D01*
X-4861532Y-8882267D01*
X-4806352Y-8937447D01*
X-4734256Y-8967310D01*
X-4656220Y-8967310D01*
X-4584124Y-8937447D01*
X-4528944Y-8882267D01*
X-4499081Y-8810171D01*
X-4495238Y-8771153D01*
X-4495238Y-7927890D01*
X-4465215Y-7867843D01*
X-4405167Y-7837820D01*
X-4256738Y-7837820D01*
X-4196691Y-7867843D01*
X-4166667Y-7927890D01*
X-4166667Y-8771153D01*
X-4162824Y-8810171D01*
X-4132961Y-8882267D01*
X-4077781Y-8937447D01*
X-4005685Y-8967310D01*
X-3927649Y-8967310D01*
X-3855553Y-8937447D01*
X-3800373Y-8882267D01*
X-3770510Y-8810171D01*
X-3766667Y-8771153D01*
X-3766667Y-7927890D01*
X-3736644Y-7867843D01*
X-3676596Y-7837820D01*
X-3528167Y-7837820D01*
X-3438095Y-7882855D01*
X-3438095Y-8771153D01*
X-3434252Y-8810171D01*
X-3404389Y-8882267D01*
X-3349209Y-8937447D01*
X-3277113Y-8967310D01*
X-3199077Y-8967310D01*
X-3126981Y-8937447D01*
X-3071801Y-8882267D01*
X-3041938Y-8810171D01*
X-3038095Y-8771153D01*
X-3038095Y-7880677D01*
X-2709524Y-7880677D01*
X-2709524Y-8042581D01*
X-2705681Y-8081599D01*
X-2698183Y-8099701D01*
X-2694380Y-8118924D01*
X-2683397Y-8135399D01*
X-2675818Y-8153695D01*
X-2661962Y-8167551D01*
X-2651093Y-8183854D01*
X-2634642Y-8194871D01*
X-2620638Y-8208875D01*
X-2602536Y-8216373D01*
X-2586254Y-8227277D01*
X-2548747Y-8238697D01*
X-1900000Y-8368446D01*
X-1900000Y-8481082D01*
X-1930024Y-8541129D01*
X-1990071Y-8571153D01*
X-2219453Y-8571153D01*
X-2339128Y-8511316D01*
X-2375746Y-8497303D01*
X-2453585Y-8491771D01*
X-2527617Y-8516449D01*
X-2586570Y-8567578D01*
X-2621469Y-8637376D01*
X-2627001Y-8715215D01*
X-2602323Y-8789247D01*
X-2551194Y-8848200D01*
X-2518014Y-8869086D01*
X-2356110Y-8950038D01*
X-2319492Y-8964050D01*
X-2312326Y-8964559D01*
X-2305685Y-8967310D01*
X-2266667Y-8971153D01*
X-1942857Y-8971153D01*
X-1903839Y-8967310D01*
X-1897202Y-8964560D01*
X-1890032Y-8964051D01*
X-1853415Y-8950039D01*
X-1691510Y-8869087D01*
X-1684986Y-8864979D01*
X-1681905Y-8863953D01*
X-1678069Y-8860625D01*
X-1658330Y-8848200D01*
X-1641899Y-8829254D01*
X-1622953Y-8812823D01*
X-1610528Y-8793084D01*
X-1607200Y-8789248D01*
X-1606174Y-8786167D01*
X-1602066Y-8779643D01*
X-1521114Y-8617738D01*
X-1507102Y-8581121D01*
X-1506593Y-8573952D01*
X-1503843Y-8567314D01*
X-1500000Y-8528296D01*
X-1500000Y-7880677D01*
X-1503843Y-7841659D01*
X-1506593Y-7835020D01*
X-1507102Y-7827852D01*
X-1521114Y-7791235D01*
X-1602066Y-7629330D01*
X-1606174Y-7622805D01*
X-1607200Y-7619725D01*
X-1610528Y-7615888D01*
X-1622953Y-7596150D01*
X-1641899Y-7579718D01*
X-1658330Y-7560773D01*
X-1678069Y-7548347D01*
X-1681905Y-7545020D01*
X-1684986Y-7543993D01*
X-1691510Y-7539886D01*
X-1853415Y-7458934D01*
X-1890032Y-7444922D01*
X-1897202Y-7444412D01*
X-1903839Y-7441663D01*
X-1942857Y-7437820D01*
X-2266667Y-7437820D01*
X-2305685Y-7441663D01*
X-2312326Y-7444413D01*
X-2319492Y-7444923D01*
X-2356110Y-7458935D01*
X-2518014Y-7539887D01*
X-2524535Y-7543991D01*
X-2527617Y-7545019D01*
X-2531456Y-7548348D01*
X-2551194Y-7560773D01*
X-2567624Y-7579716D01*
X-2586569Y-7596148D01*
X-2598999Y-7615892D01*
X-2602323Y-7619726D01*
X-2603349Y-7622803D01*
X-2607456Y-7629328D01*
X-2688409Y-7791234D01*
X-2702421Y-7827851D01*
X-2702931Y-7835018D01*
X-2705681Y-7841659D01*
X-2709524Y-7880677D01*
X-3038095Y-7880677D01*
X-3038095Y-7637820D01*
X-3041938Y-7598802D01*
X-3071801Y-7526706D01*
X-3126981Y-7471526D01*
X-3199077Y-7441663D01*
X-3277113Y-7441663D01*
X-3349209Y-7471526D01*
X-3354915Y-7477231D01*
X-3391511Y-7458934D01*
X-3428128Y-7444922D01*
X-3435298Y-7444412D01*
X-3441935Y-7441663D01*
X-3480953Y-7437820D01*
X-3723810Y-7437820D01*
X-3762828Y-7441663D01*
X-3769469Y-7444413D01*
X-3776635Y-7444923D01*
X-3813253Y-7458935D01*
X-3966667Y-7535641D01*
X-4120082Y-7458934D01*
X-4156699Y-7444922D01*
X-4163869Y-7444412D01*
X-4170506Y-7441663D01*
X-4209524Y-7437820D01*
X-4452381Y-7437820D01*
X-4491399Y-7441663D01*
X-4498038Y-7444412D01*
X-4505206Y-7444922D01*
X-4541823Y-7458934D01*
X-4703728Y-7539886D01*
X-4710253Y-7543993D01*
X-4713333Y-7545020D01*
X-4717170Y-7548347D01*
X-4736908Y-7560773D01*
X-4753340Y-7579718D01*
X-4772285Y-7596150D01*
X-4784711Y-7615888D01*
X-4788038Y-7619725D01*
X-4789065Y-7622805D01*
X-4793172Y-7629330D01*
X-4874124Y-7791235D01*
X-4888136Y-7827852D01*
X-4888646Y-7835021D01*
X-4891395Y-7841659D01*
X-4895238Y-7880677D01*
X-5304762Y-7880677D01*
X-5304762Y-7637820D01*
X-5308605Y-7598802D01*
X-5338468Y-7526706D01*
X-5393648Y-7471526D01*
X-5465744Y-7441663D01*
X-5543780Y-7441663D01*
X-5581514Y-7457292D01*
X-5613842Y-7444922D01*
X-5621012Y-7444412D01*
X-5627649Y-7441663D01*
X-5666667Y-7437820D01*
X-5990477Y-7437820D01*
X-6029495Y-7441663D01*
X-6036136Y-7444413D01*
X-6043302Y-7444923D01*
X-6079920Y-7458935D01*
X-6241824Y-7539887D01*
X-6258618Y-7550458D01*
X-6263494Y-7552478D01*
X-6268986Y-7556984D01*
X-6275004Y-7560773D01*
X-6278466Y-7564764D01*
X-6293802Y-7577350D01*
X-6374754Y-7658302D01*
X-6387344Y-7673641D01*
X-6391333Y-7677102D01*
X-6395119Y-7683115D01*
X-6399627Y-7688609D01*
X-6401648Y-7693487D01*
X-6412220Y-7710282D01*
X-6493172Y-7872187D01*
X-6507184Y-7908804D01*
X-6507694Y-7915973D01*
X-6510443Y-7922611D01*
X-6514286Y-7961629D01*
X-6714286Y-7961629D01*
X-6714286Y-7032135D01*
X-1410443Y-7032135D01*
X-1410443Y-7110171D01*
X-1380580Y-7182267D01*
X-1325400Y-7237447D01*
X-1253304Y-7267310D01*
X-1214286Y-7271153D01*
X-928572Y-7271153D01*
X-928572Y-8771153D01*
X-924729Y-8810171D01*
X-894866Y-8882267D01*
X-839686Y-8937447D01*
X-767590Y-8967310D01*
X-689554Y-8967310D01*
X-617458Y-8937447D01*
X-562278Y-8882267D01*
X-532415Y-8810171D01*
X-528572Y-8771153D01*
X-528572Y-7598802D01*
X-115205Y-7598802D01*
X-115205Y-7676838D01*
X-85342Y-7748934D01*
X-30162Y-7804114D01*
X41934Y-7833977D01*
X80952Y-7837820D01*
X195643Y-7837820D01*
X286291Y-7883143D01*
X321343Y-7918196D01*
X366667Y-8008843D01*
X366667Y-8771153D01*
X370510Y-8810171D01*
X400373Y-8882267D01*
X455553Y-8937447D01*
X527649Y-8967310D01*
X605685Y-8967310D01*
X677781Y-8937447D01*
X732961Y-8882267D01*
X762824Y-8810171D01*
X766667Y-8771153D01*
X766667Y-7961629D01*
X1095238Y-7961629D01*
X1095238Y-8447343D01*
X1099081Y-8486361D01*
X1101830Y-8492998D01*
X1102340Y-8500168D01*
X1116352Y-8536785D01*
X1197304Y-8698690D01*
X1207874Y-8715481D01*
X1209896Y-8720362D01*
X1214405Y-8725857D01*
X1218191Y-8731870D01*
X1222180Y-8735329D01*
X1234769Y-8750669D01*
X1315722Y-8831622D01*
X1331058Y-8844208D01*
X1334520Y-8848200D01*
X1340536Y-8851987D01*
X1346029Y-8856495D01*
X1350908Y-8858516D01*
X1367700Y-8869086D01*
X1529604Y-8950038D01*
X1566222Y-8964050D01*
X1573388Y-8964559D01*
X1580029Y-8967310D01*
X1619047Y-8971153D01*
X1861904Y-8971153D01*
X1900922Y-8967310D01*
X1907559Y-8964560D01*
X1914729Y-8964051D01*
X1951346Y-8950039D01*
X2113251Y-8869087D01*
X2130042Y-8858516D01*
X2134923Y-8856495D01*
X2140418Y-8851985D01*
X2146431Y-8848200D01*
X2149890Y-8844210D01*
X2165230Y-8831622D01*
X2246183Y-8750669D01*
X2249901Y-8746138D01*
X2553950Y-8746138D01*
X2559482Y-8823978D01*
X2594381Y-8893775D01*
X2653333Y-8944905D01*
X2727365Y-8969583D01*
X2805205Y-8964051D01*
X2841822Y-8950039D01*
X3003727Y-8869087D01*
X3010249Y-8864981D01*
X3013331Y-8863954D01*
X3017169Y-8860625D01*
X3036907Y-8848200D01*
X3053338Y-8829255D01*
X3072283Y-8812824D01*
X3084708Y-8793086D01*
X3088037Y-8789248D01*
X3089064Y-8786166D01*
X3093170Y-8779644D01*
X3174123Y-8617739D01*
X3188136Y-8581121D01*
X3188645Y-8573951D01*
X3191395Y-8567314D01*
X3195238Y-8528296D01*
X3195238Y-7961629D01*
X3523809Y-7961629D01*
X3523809Y-8447343D01*
X3527652Y-8486361D01*
X3530401Y-8492998D01*
X3530911Y-8500168D01*
X3544923Y-8536785D01*
X3625875Y-8698690D01*
X3636445Y-8715481D01*
X3638467Y-8720362D01*
X3642976Y-8725857D01*
X3646762Y-8731870D01*
X3650751Y-8735329D01*
X3663340Y-8750669D01*
X3744293Y-8831622D01*
X3759629Y-8844208D01*
X3763091Y-8848200D01*
X3769107Y-8851987D01*
X3774600Y-8856495D01*
X3779479Y-8858516D01*
X3796271Y-8869086D01*
X3958175Y-8950038D01*
X3994793Y-8964050D01*
X4001959Y-8964559D01*
X4008600Y-8967310D01*
X4047618Y-8971153D01*
X4290475Y-8971153D01*
X4329493Y-8967310D01*
X4336130Y-8964560D01*
X4343300Y-8964051D01*
X4379917Y-8950039D01*
X4541822Y-8869087D01*
X4558613Y-8858516D01*
X4563494Y-8856495D01*
X4568989Y-8851985D01*
X4575002Y-8848200D01*
X4578461Y-8844210D01*
X4593801Y-8831622D01*
X4674754Y-8750669D01*
X4687342Y-8735329D01*
X4691332Y-8731870D01*
X4695117Y-8725857D01*
X4699627Y-8720362D01*
X4701648Y-8715481D01*
X4712219Y-8698690D01*
X4793171Y-8536785D01*
X4807183Y-8500168D01*
X4807692Y-8492999D01*
X4810442Y-8486361D01*
X4814285Y-8447343D01*
X4814285Y-7961629D01*
X4810442Y-7922611D01*
X4807692Y-7915972D01*
X4807183Y-7908804D01*
X4793171Y-7872187D01*
X4712219Y-7710282D01*
X4701646Y-7693487D01*
X4699626Y-7688609D01*
X4695117Y-7683115D01*
X4691332Y-7677102D01*
X4687342Y-7673641D01*
X4674753Y-7658302D01*
X4593800Y-7577350D01*
X4578461Y-7564761D01*
X4575002Y-7560773D01*
X4568990Y-7556988D01*
X4563493Y-7552477D01*
X4558611Y-7550455D01*
X4541822Y-7539886D01*
X4379917Y-7458934D01*
X4343300Y-7444922D01*
X4336130Y-7444412D01*
X4329493Y-7441663D01*
X4290475Y-7437820D01*
X4047618Y-7437820D01*
X4008600Y-7441663D01*
X4001959Y-7444413D01*
X3994793Y-7444923D01*
X3958175Y-7458935D01*
X3796271Y-7539887D01*
X3779477Y-7550458D01*
X3774601Y-7552478D01*
X3769109Y-7556984D01*
X3763091Y-7560773D01*
X3759629Y-7564764D01*
X3744293Y-7577350D01*
X3663341Y-7658302D01*
X3650751Y-7673641D01*
X3646762Y-7677102D01*
X3642976Y-7683115D01*
X3638468Y-7688609D01*
X3636447Y-7693487D01*
X3625875Y-7710282D01*
X3544923Y-7872187D01*
X3530911Y-7908804D01*
X3530401Y-7915973D01*
X3527652Y-7922611D01*
X3523809Y-7961629D01*
X3195238Y-7961629D01*
X3195238Y-7194041D01*
X5065747Y-7194041D01*
X5065747Y-7272077D01*
X5095611Y-7344173D01*
X5150791Y-7399353D01*
X5222887Y-7429215D01*
X5300923Y-7429215D01*
X5373019Y-7399351D01*
X5403326Y-7374478D01*
X5450892Y-7326911D01*
X5618170Y-7271153D01*
X5715162Y-7271153D01*
X5882439Y-7326911D01*
X5988009Y-7432482D01*
X6044628Y-7545720D01*
X6114285Y-7824343D01*
X6114285Y-8017961D01*
X6044628Y-8296585D01*
X5988009Y-8409823D01*
X5882439Y-8515394D01*
X5715162Y-8571153D01*
X5618170Y-8571153D01*
X5450892Y-8515394D01*
X5403326Y-8467828D01*
X5373019Y-8442955D01*
X5300923Y-8413091D01*
X5222887Y-8413091D01*
X5150791Y-8442953D01*
X5095611Y-8498133D01*
X5065747Y-8570229D01*
X5065747Y-8648265D01*
X5095609Y-8720361D01*
X5120482Y-8750668D01*
X5201434Y-8831621D01*
X5231741Y-8856494D01*
X5238379Y-8859243D01*
X5243810Y-8863954D01*
X5279611Y-8879938D01*
X5522469Y-8960890D01*
X5541818Y-8965289D01*
X5546696Y-8967310D01*
X5553766Y-8968006D01*
X5560700Y-8969583D01*
X5565970Y-8969208D01*
X5585714Y-8971153D01*
X5747618Y-8971153D01*
X5767366Y-8969207D01*
X5772632Y-8969582D01*
X5779559Y-8968006D01*
X5786636Y-8967310D01*
X5791516Y-8965288D01*
X5810863Y-8960890D01*
X6053721Y-8879938D01*
X6089521Y-8863953D01*
X6094949Y-8859245D01*
X6101589Y-8856495D01*
X6131896Y-8831622D01*
X6293801Y-8669718D01*
X6306390Y-8654377D01*
X6310378Y-8650919D01*
X6314162Y-8644907D01*
X6318674Y-8639410D01*
X6320696Y-8634528D01*
X6331265Y-8617739D01*
X6412218Y-8455834D01*
X6413310Y-8452978D01*
X6414170Y-8451819D01*
X6420020Y-8435444D01*
X6426231Y-8419216D01*
X6426333Y-8417777D01*
X6427362Y-8414898D01*
X6508314Y-8091087D01*
X6509314Y-8084321D01*
X6510442Y-8081599D01*
X6511888Y-8066914D01*
X6514049Y-8052302D01*
X6513614Y-8049384D01*
X6514285Y-8042581D01*
X6514285Y-7799724D01*
X6513614Y-7792919D01*
X6514049Y-7790002D01*
X6511888Y-7775387D01*
X6510442Y-7760706D01*
X6509314Y-7757984D01*
X6508314Y-7751217D01*
X6427362Y-7427408D01*
X6426333Y-7424528D01*
X6426231Y-7423090D01*
X6420020Y-7406861D01*
X6414170Y-7390487D01*
X6413310Y-7389327D01*
X6412218Y-7386472D01*
X6331265Y-7224567D01*
X6320696Y-7207777D01*
X6318674Y-7202896D01*
X6314162Y-7197398D01*
X6310378Y-7191387D01*
X6306390Y-7187928D01*
X6293801Y-7172588D01*
X6131896Y-7010684D01*
X6101589Y-6985811D01*
X6094949Y-6983060D01*
X6089521Y-6978353D01*
X6053721Y-6962368D01*
X5810863Y-6881416D01*
X5791516Y-6877017D01*
X5786636Y-6874996D01*
X5779559Y-6874299D01*
X5772632Y-6872724D01*
X5767366Y-6873098D01*
X5747618Y-6871153D01*
X5585714Y-6871153D01*
X5565970Y-6873097D01*
X5560700Y-6872723D01*
X5553766Y-6874299D01*
X5546696Y-6874996D01*
X5541818Y-6877016D01*
X5522469Y-6881416D01*
X5279611Y-6962368D01*
X5243810Y-6978352D01*
X5238379Y-6983062D01*
X5231741Y-6985812D01*
X5201434Y-7010685D01*
X5120482Y-7091638D01*
X5095609Y-7121945D01*
X5065747Y-7194041D01*
X3195238Y-7194041D01*
X3195238Y-7071153D01*
X3191395Y-7032135D01*
X3161532Y-6960039D01*
X3106352Y-6904859D01*
X3034256Y-6874996D01*
X2956220Y-6874996D01*
X2884124Y-6904859D01*
X2828944Y-6960039D01*
X2799081Y-7032135D01*
X2795238Y-7071153D01*
X2795238Y-8481082D01*
X2765214Y-8541129D01*
X2662938Y-8592267D01*
X2629758Y-8613154D01*
X2578628Y-8672106D01*
X2553950Y-8746138D01*
X2249901Y-8746138D01*
X2258771Y-8735329D01*
X2262761Y-8731870D01*
X2266546Y-8725857D01*
X2271056Y-8720362D01*
X2273077Y-8715481D01*
X2283648Y-8698690D01*
X2364600Y-8536785D01*
X2378612Y-8500168D01*
X2379121Y-8492999D01*
X2381871Y-8486361D01*
X2385714Y-8447343D01*
X2385714Y-7961629D01*
X2381871Y-7922611D01*
X2379121Y-7915972D01*
X2378612Y-7908804D01*
X2364600Y-7872187D01*
X2283648Y-7710282D01*
X2273075Y-7693487D01*
X2271055Y-7688609D01*
X2266546Y-7683115D01*
X2262761Y-7677102D01*
X2258771Y-7673641D01*
X2246182Y-7658302D01*
X2165229Y-7577350D01*
X2149890Y-7564761D01*
X2146431Y-7560773D01*
X2140419Y-7556988D01*
X2134922Y-7552477D01*
X2130040Y-7550455D01*
X2113251Y-7539886D01*
X1951346Y-7458934D01*
X1914729Y-7444922D01*
X1907559Y-7444412D01*
X1900922Y-7441663D01*
X1861904Y-7437820D01*
X1619047Y-7437820D01*
X1580029Y-7441663D01*
X1573388Y-7444413D01*
X1566222Y-7444923D01*
X1529604Y-7458935D01*
X1367700Y-7539887D01*
X1350906Y-7550458D01*
X1346030Y-7552478D01*
X1340538Y-7556984D01*
X1334520Y-7560773D01*
X1331058Y-7564764D01*
X1315722Y-7577350D01*
X1234770Y-7658302D01*
X1222180Y-7673641D01*
X1218191Y-7677102D01*
X1214405Y-7683115D01*
X1209897Y-7688609D01*
X1207876Y-7693487D01*
X1197304Y-7710282D01*
X1116352Y-7872187D01*
X1102340Y-7908804D01*
X1101830Y-7915973D01*
X1099081Y-7922611D01*
X1095238Y-7961629D01*
X766667Y-7961629D01*
X766667Y-7637820D01*
X762824Y-7598802D01*
X732961Y-7526706D01*
X677781Y-7471526D01*
X605685Y-7441663D01*
X527649Y-7441663D01*
X455553Y-7471526D01*
X422863Y-7504215D01*
X332299Y-7458934D01*
X295682Y-7444922D01*
X288512Y-7444412D01*
X281875Y-7441663D01*
X242857Y-7437820D01*
X80952Y-7437820D01*
X41934Y-7441663D01*
X-30162Y-7471526D01*
X-85342Y-7526706D01*
X-115205Y-7598802D01*
X-528572Y-7598802D01*
X-528572Y-7271153D01*
X-242857Y-7271153D01*
X-203839Y-7267310D01*
X-131743Y-7237447D01*
X-76563Y-7182267D01*
X-46700Y-7110171D01*
X-46700Y-7032135D01*
X-76563Y-6960039D01*
X-131743Y-6904859D01*
X-203839Y-6874996D01*
X-242857Y-6871153D01*
X-1214286Y-6871153D01*
X-1253304Y-6874996D01*
X-1325400Y-6904859D01*
X-1380580Y-6960039D01*
X-1410443Y-7032135D01*
X-6714286Y-7032135D01*
X-6714286Y-6671153D01*
X6714285Y-6671153D01*
X6714285Y-9733977D01*
G37*
D12*
X12953519Y-1797618D02*
X12477328Y-1464285D01*
X12953519Y-1226190D02*
X11953519Y-1226190D01*
X11953519Y-1226190D02*
X11953519Y-1607142D01*
X11953519Y-1607142D02*
X12001138Y-1702380D01*
X12001138Y-1702380D02*
X12048757Y-1749999D01*
X12048757Y-1749999D02*
X12143995Y-1797618D01*
X12143995Y-1797618D02*
X12286852Y-1797618D01*
X12286852Y-1797618D02*
X12382090Y-1749999D01*
X12382090Y-1749999D02*
X12429709Y-1702380D01*
X12429709Y-1702380D02*
X12477328Y-1607142D01*
X12477328Y-1607142D02*
X12477328Y-1226190D01*
X12429709Y-2226190D02*
X12429709Y-2559523D01*
X12953519Y-2702380D02*
X12953519Y-2226190D01*
X12953519Y-2226190D02*
X11953519Y-2226190D01*
X11953519Y-2226190D02*
X11953519Y-2702380D01*
X12905900Y-3083333D02*
X12953519Y-3226190D01*
X12953519Y-3226190D02*
X12953519Y-3464285D01*
X12953519Y-3464285D02*
X12905900Y-3559523D01*
X12905900Y-3559523D02*
X12858280Y-3607142D01*
X12858280Y-3607142D02*
X12763042Y-3654761D01*
X12763042Y-3654761D02*
X12667804Y-3654761D01*
X12667804Y-3654761D02*
X12572566Y-3607142D01*
X12572566Y-3607142D02*
X12524947Y-3559523D01*
X12524947Y-3559523D02*
X12477328Y-3464285D01*
X12477328Y-3464285D02*
X12429709Y-3273809D01*
X12429709Y-3273809D02*
X12382090Y-3178571D01*
X12382090Y-3178571D02*
X12334471Y-3130952D01*
X12334471Y-3130952D02*
X12239233Y-3083333D01*
X12239233Y-3083333D02*
X12143995Y-3083333D01*
X12143995Y-3083333D02*
X12048757Y-3130952D01*
X12048757Y-3130952D02*
X12001138Y-3178571D01*
X12001138Y-3178571D02*
X11953519Y-3273809D01*
X11953519Y-3273809D02*
X11953519Y-3511904D01*
X11953519Y-3511904D02*
X12001138Y-3654761D01*
X12429709Y-4083333D02*
X12429709Y-4416666D01*
X12953519Y-4559523D02*
X12953519Y-4083333D01*
X12953519Y-4083333D02*
X11953519Y-4083333D01*
X11953519Y-4083333D02*
X11953519Y-4559523D01*
X11953519Y-4845238D02*
X11953519Y-5416666D01*
X12953519Y-5130952D02*
X11953519Y-5130952D01*
X11675900Y-1088095D02*
X11675900Y-5411905D01*
X11953519Y4964286D02*
X12763042Y4964286D01*
X12763042Y4964286D02*
X12858280Y4916667D01*
X12858280Y4916667D02*
X12905900Y4869048D01*
X12905900Y4869048D02*
X12953519Y4773810D01*
X12953519Y4773810D02*
X12953519Y4583334D01*
X12953519Y4583334D02*
X12905900Y4488096D01*
X12905900Y4488096D02*
X12858280Y4440477D01*
X12858280Y4440477D02*
X12763042Y4392858D01*
X12763042Y4392858D02*
X11953519Y4392858D01*
X12905900Y3964286D02*
X12953519Y3821429D01*
X12953519Y3821429D02*
X12953519Y3583334D01*
X12953519Y3583334D02*
X12905900Y3488096D01*
X12905900Y3488096D02*
X12858280Y3440477D01*
X12858280Y3440477D02*
X12763042Y3392858D01*
X12763042Y3392858D02*
X12667804Y3392858D01*
X12667804Y3392858D02*
X12572566Y3440477D01*
X12572566Y3440477D02*
X12524947Y3488096D01*
X12524947Y3488096D02*
X12477328Y3583334D01*
X12477328Y3583334D02*
X12429709Y3773810D01*
X12429709Y3773810D02*
X12382090Y3869048D01*
X12382090Y3869048D02*
X12334471Y3916667D01*
X12334471Y3916667D02*
X12239233Y3964286D01*
X12239233Y3964286D02*
X12143995Y3964286D01*
X12143995Y3964286D02*
X12048757Y3916667D01*
X12048757Y3916667D02*
X12001138Y3869048D01*
X12001138Y3869048D02*
X11953519Y3773810D01*
X11953519Y3773810D02*
X11953519Y3535715D01*
X11953519Y3535715D02*
X12001138Y3392858D01*
X12429709Y2964286D02*
X12429709Y2630953D01*
X12953519Y2488096D02*
X12953519Y2964286D01*
X12953519Y2964286D02*
X11953519Y2964286D01*
X11953519Y2964286D02*
X11953519Y2488096D01*
X12953519Y1488096D02*
X12477328Y1821429D01*
X12953519Y2059524D02*
X11953519Y2059524D01*
X11953519Y2059524D02*
X11953519Y1678572D01*
X11953519Y1678572D02*
X12001138Y1583334D01*
X12001138Y1583334D02*
X12048757Y1535715D01*
X12048757Y1535715D02*
X12143995Y1488096D01*
X12143995Y1488096D02*
X12286852Y1488096D01*
X12286852Y1488096D02*
X12382090Y1535715D01*
X12382090Y1535715D02*
X12429709Y1583334D01*
X12429709Y1583334D02*
X12477328Y1678572D01*
X12477328Y1678572D02*
X12477328Y2059524D01*
X2309523Y12046481D02*
X2309523Y13046481D01*
X2309523Y13046481D02*
X1928571Y13046481D01*
X1928571Y13046481D02*
X1833333Y12998862D01*
X1833333Y12998862D02*
X1785714Y12951243D01*
X1785714Y12951243D02*
X1738095Y12856005D01*
X1738095Y12856005D02*
X1738095Y12713148D01*
X1738095Y12713148D02*
X1785714Y12617910D01*
X1785714Y12617910D02*
X1833333Y12570291D01*
X1833333Y12570291D02*
X1928571Y12522672D01*
X1928571Y12522672D02*
X2309523Y12522672D01*
X1119047Y13046481D02*
X928571Y13046481D01*
X928571Y13046481D02*
X833333Y12998862D01*
X833333Y12998862D02*
X738095Y12903624D01*
X738095Y12903624D02*
X690476Y12713148D01*
X690476Y12713148D02*
X690476Y12379815D01*
X690476Y12379815D02*
X738095Y12189339D01*
X738095Y12189339D02*
X833333Y12094100D01*
X833333Y12094100D02*
X928571Y12046481D01*
X928571Y12046481D02*
X1119047Y12046481D01*
X1119047Y12046481D02*
X1214285Y12094100D01*
X1214285Y12094100D02*
X1309523Y12189339D01*
X1309523Y12189339D02*
X1357142Y12379815D01*
X1357142Y12379815D02*
X1357142Y12713148D01*
X1357142Y12713148D02*
X1309523Y12903624D01*
X1309523Y12903624D02*
X1214285Y12998862D01*
X1214285Y12998862D02*
X1119047Y13046481D01*
X357142Y13046481D02*
X119047Y12046481D01*
X119047Y12046481D02*
X-71429Y12760767D01*
X-71429Y12760767D02*
X-261905Y12046481D01*
X-261905Y12046481D02*
X-500000Y13046481D01*
X-880953Y12570291D02*
X-1214286Y12570291D01*
X-1357143Y12046481D02*
X-880953Y12046481D01*
X-880953Y12046481D02*
X-880953Y13046481D01*
X-880953Y13046481D02*
X-1357143Y13046481D01*
X-2357143Y12046481D02*
X-2023810Y12522672D01*
X-1785715Y12046481D02*
X-1785715Y13046481D01*
X-1785715Y13046481D02*
X-2166667Y13046481D01*
X-2166667Y13046481D02*
X-2261905Y12998862D01*
X-2261905Y12998862D02*
X-2309524Y12951243D01*
X-2309524Y12951243D02*
X-2357143Y12856005D01*
X-2357143Y12856005D02*
X-2357143Y12713148D01*
X-2357143Y12713148D02*
X-2309524Y12617910D01*
X-2309524Y12617910D02*
X-2261905Y12570291D01*
X-2261905Y12570291D02*
X-2166667Y12522672D01*
X-2166667Y12522672D02*
X-1785715Y12522672D01*
G36*
X-5951870Y6373723D02*
G01*
X-7349092Y6373723D01*
X-7349092Y7000905D01*
X-7237981Y7000905D01*
X-7237981Y6762810D01*
X-7236300Y6745740D01*
X-7235097Y6742836D01*
X-7234874Y6739698D01*
X-7228743Y6723679D01*
X-7181125Y6628441D01*
X-7176502Y6621096D01*
X-7175616Y6618959D01*
X-7173642Y6616554D01*
X-7171987Y6613925D01*
X-7170244Y6612413D01*
X-7164734Y6605700D01*
X-7117115Y6558081D01*
X-7110404Y6552574D01*
X-7108890Y6550828D01*
X-7106259Y6549172D01*
X-7103856Y6547200D01*
X-7101722Y6546316D01*
X-7094374Y6541691D01*
X-6999136Y6494072D01*
X-6983117Y6487941D01*
X-6979980Y6487719D01*
X-6977075Y6486515D01*
X-6960005Y6484834D01*
X-6864767Y6484834D01*
X-6856128Y6485685D01*
X-6853823Y6485521D01*
X-6850792Y6486211D01*
X-6847697Y6486515D01*
X-6845563Y6487400D01*
X-6837097Y6489324D01*
X-6694241Y6536943D01*
X-6678578Y6543936D01*
X-6676205Y6545995D01*
X-6673297Y6547199D01*
X-6660038Y6558081D01*
X-6237981Y6980138D01*
X-6237981Y6572334D01*
X-6236300Y6555264D01*
X-6223235Y6523722D01*
X-6199093Y6499580D01*
X-6167551Y6486515D01*
X-6133411Y6486515D01*
X-6101869Y6499580D01*
X-6077727Y6523722D01*
X-6064662Y6555264D01*
X-6062981Y6572334D01*
X-6062981Y7191381D01*
X-6064662Y7208451D01*
X-6073413Y7229580D01*
X-6077727Y7239994D01*
X-6101868Y7264135D01*
X-6133410Y7277200D01*
X-6167552Y7277200D01*
X-6199094Y7264135D01*
X-6212353Y7253253D01*
X-6769176Y6696432D01*
X-6878967Y6659834D01*
X-6939348Y6659834D01*
X-7003411Y6691865D01*
X-7030951Y6719405D01*
X-7062981Y6783465D01*
X-7062981Y6980250D01*
X-7030951Y7044310D01*
X-6993371Y7081890D01*
X-6982490Y7095149D01*
X-6969425Y7126691D01*
X-6969425Y7160833D01*
X-6982490Y7192375D01*
X-7006630Y7216515D01*
X-7038172Y7229580D01*
X-7072314Y7229580D01*
X-7103856Y7216515D01*
X-7117115Y7205634D01*
X-7164734Y7158015D01*
X-7170244Y7151303D01*
X-7171987Y7149790D01*
X-7173642Y7147162D01*
X-7175616Y7144756D01*
X-7176502Y7142620D01*
X-7181125Y7135274D01*
X-7228743Y7040036D01*
X-7234874Y7024017D01*
X-7235097Y7020880D01*
X-7236300Y7017975D01*
X-7237981Y7000905D01*
X-7349092Y7000905D01*
X-7349092Y7589404D01*
X-7236300Y7589404D01*
X-7236300Y7555264D01*
X-7223235Y7523722D01*
X-7199093Y7499580D01*
X-7167551Y7486515D01*
X-7150481Y7484834D01*
X-6436196Y7484834D01*
X-6427557Y7485685D01*
X-6425252Y7485521D01*
X-6422221Y7486211D01*
X-6419126Y7486515D01*
X-6416992Y7487400D01*
X-6408526Y7489324D01*
X-6265670Y7536943D01*
X-6250007Y7543936D01*
X-6247634Y7545995D01*
X-6244726Y7547199D01*
X-6231467Y7558081D01*
X-6136228Y7653319D01*
X-6125346Y7666578D01*
X-6124142Y7669486D01*
X-6122083Y7671859D01*
X-6115090Y7687521D01*
X-6067471Y7830378D01*
X-6065547Y7838844D01*
X-6064662Y7840978D01*
X-6064358Y7844072D01*
X-6063668Y7847103D01*
X-6063832Y7849409D01*
X-6062981Y7858048D01*
X-6062981Y7953286D01*
X-6064662Y7970356D01*
X-6077727Y8001898D01*
X-6101869Y8026040D01*
X-6133411Y8039105D01*
X-6167551Y8039105D01*
X-6199093Y8026040D01*
X-6223235Y8001898D01*
X-6236300Y7970356D01*
X-6237981Y7953286D01*
X-6237981Y7872248D01*
X-6274579Y7762457D01*
X-6340605Y7696432D01*
X-6450396Y7659834D01*
X-7150481Y7659834D01*
X-7167551Y7658153D01*
X-7199093Y7645088D01*
X-7223235Y7620946D01*
X-7236300Y7589404D01*
X-7349092Y7589404D01*
X-7349092Y8150216D01*
X-5951870Y8150216D01*
X-5951870Y6373723D01*
G37*
D13*
%TO.C,G\u002A\u002A\u002A*%
G36*
X2500000Y6750000D02*
G01*
X1961539Y6750000D01*
X1423077Y6750000D01*
X1423077Y7288462D01*
X1423077Y7634616D01*
X1615385Y7634616D01*
X1615385Y7269231D01*
X1615385Y6903847D01*
X1980770Y6903847D01*
X2346154Y6903847D01*
X2346154Y7269231D01*
X2346154Y7634616D01*
X1980770Y7634616D01*
X1615385Y7634616D01*
X1423077Y7634616D01*
X1423077Y7826924D01*
X1961539Y7826924D01*
X2500000Y7826924D01*
X2500000Y7288462D01*
X2500000Y7269231D01*
X2500000Y6750000D01*
G37*
G36*
X-1653846Y6903847D02*
G01*
X-1576923Y6903847D01*
X-1576923Y6826924D01*
X-1576923Y6750000D01*
X-1653846Y6750000D01*
X-1730769Y6750000D01*
X-1730769Y6826924D01*
X-1730769Y6903847D01*
X-1653846Y6903847D01*
G37*
G36*
X-846153Y7134616D02*
G01*
X-846153Y7057693D01*
X-769230Y7057693D01*
X-692307Y7057693D01*
X-692307Y7134616D01*
X-692307Y7211539D01*
X-615384Y7211539D01*
X-538461Y7211539D01*
X-538461Y7134616D01*
X-538461Y7057693D01*
X-615384Y7057693D01*
X-692307Y7057693D01*
X-692307Y6980770D01*
X-692307Y6903847D01*
X-769230Y6903847D01*
X-846153Y6903847D01*
X-846153Y6826924D01*
X-846153Y6750000D01*
X-1134615Y6750000D01*
X-1423076Y6750000D01*
X-1423076Y6903847D01*
X-1423076Y7057693D01*
X-1346153Y7057693D01*
X-1269230Y7057693D01*
X-1269230Y6980770D01*
X-1269230Y6903847D01*
X-1134615Y6903847D01*
X-1000000Y6903847D01*
X-1000000Y7057693D01*
X-1000000Y7211539D01*
X-923076Y7211539D01*
X-846153Y7211539D01*
X-846153Y7134616D01*
G37*
G36*
X538462Y7057693D02*
G01*
X461539Y7057693D01*
X384616Y7057693D01*
X384616Y6980770D01*
X384616Y6903847D01*
X307693Y6903847D01*
X230770Y6903847D01*
X230770Y6826924D01*
X230770Y6750000D01*
X0Y6750000D01*
X-230769Y6750000D01*
X-230769Y6826924D01*
X-230769Y6903847D01*
X-307692Y6903847D01*
X-384615Y6903847D01*
X-384615Y6980770D01*
X-384615Y7057693D01*
X-307692Y7057693D01*
X-230769Y7057693D01*
X-230769Y6980770D01*
X-230769Y6903847D01*
X-76923Y6903847D01*
X76924Y6903847D01*
X76924Y6980770D01*
X76924Y7057693D01*
X0Y7057693D01*
X-76923Y7057693D01*
X-76923Y7134616D01*
X-76923Y7211539D01*
X0Y7211539D01*
X76924Y7211539D01*
X230770Y7211539D01*
X230770Y7134616D01*
X230770Y7057693D01*
X307693Y7057693D01*
X384616Y7057693D01*
X384616Y7134616D01*
X384616Y7211539D01*
X307693Y7211539D01*
X230770Y7211539D01*
X76924Y7211539D01*
X76924Y7288462D01*
X76924Y7365385D01*
X0Y7365385D01*
X-76923Y7365385D01*
X-76923Y7442308D01*
X-76923Y7519231D01*
X76924Y7519231D01*
X230770Y7519231D01*
X230770Y7442308D01*
X230770Y7365385D01*
X461539Y7365385D01*
X692308Y7365385D01*
X692308Y7288462D01*
X692308Y7211539D01*
X769231Y7211539D01*
X846154Y7211539D01*
X846154Y7288462D01*
X846154Y7365385D01*
X1000000Y7365385D01*
X1153847Y7365385D01*
X1153847Y7442308D01*
X1153847Y7519231D01*
X1076924Y7519231D01*
X1000000Y7519231D01*
X1000000Y7596154D01*
X1000000Y7673077D01*
X1153847Y7673077D01*
X1307693Y7673077D01*
X1307693Y7365385D01*
X1307693Y7057693D01*
X1230770Y7057693D01*
X1153847Y7057693D01*
X1153847Y6980770D01*
X1153847Y6903847D01*
X1076924Y6903847D01*
X1000000Y6903847D01*
X1000000Y7057693D01*
X1000000Y7211539D01*
X923077Y7211539D01*
X846154Y7211539D01*
X846154Y7134616D01*
X846154Y7057693D01*
X769231Y7057693D01*
X692308Y7057693D01*
X692308Y7134616D01*
X692308Y7211539D01*
X615385Y7211539D01*
X538462Y7211539D01*
X538462Y7134616D01*
X538462Y7057693D01*
G37*
G36*
X1230770Y6903847D02*
G01*
X1307693Y6903847D01*
X1307693Y6826924D01*
X1307693Y6750000D01*
X1230770Y6750000D01*
X1153847Y6750000D01*
X1153847Y6826924D01*
X1153847Y6903847D01*
X1230770Y6903847D01*
G37*
G36*
X-846153Y7673077D02*
G01*
X-923076Y7673077D01*
X-1000000Y7673077D01*
X-1000000Y7596154D01*
X-1000000Y7519231D01*
X-846153Y7519231D01*
X-692307Y7519231D01*
X-692307Y7673077D01*
X-692307Y7826924D01*
X-615384Y7826924D01*
X-538461Y7826924D01*
X-538461Y7673077D01*
X-538461Y7519231D01*
X-461538Y7519231D01*
X-384615Y7519231D01*
X-384615Y7596154D01*
X-384615Y7673077D01*
X-307692Y7673077D01*
X-230769Y7673077D01*
X-230769Y7884616D01*
X-230769Y8096154D01*
X-153846Y8096154D01*
X-76923Y8096154D01*
X-76923Y8019231D01*
X-76923Y7942308D01*
X0Y7942308D01*
X76924Y7942308D01*
X76924Y7884616D01*
X76924Y7826924D01*
X0Y7826924D01*
X-76923Y7826924D01*
X-76923Y7673077D01*
X-76923Y7519231D01*
X-230769Y7519231D01*
X-384615Y7519231D01*
X-384615Y7442308D01*
X-384615Y7365385D01*
X-692307Y7365385D01*
X-1000000Y7365385D01*
X-1000000Y7288462D01*
X-1000000Y7211539D01*
X-1211538Y7211539D01*
X-1423076Y7211539D01*
X-1423076Y7288462D01*
X-1423076Y7365385D01*
X-1576923Y7365385D01*
X-1730769Y7365385D01*
X-1730769Y7288462D01*
X-1730769Y7211539D01*
X-1807692Y7211539D01*
X-1884615Y7211539D01*
X-1884615Y7134616D01*
X-1884615Y7057693D01*
X-1807692Y7057693D01*
X-1730769Y7057693D01*
X-1730769Y7134616D01*
X-1730769Y7211539D01*
X-1576923Y7211539D01*
X-1423076Y7211539D01*
X-1423076Y7134616D01*
X-1423076Y7057693D01*
X-1576923Y7057693D01*
X-1730769Y7057693D01*
X-1730769Y6980770D01*
X-1730769Y6903847D01*
X-1961538Y6903847D01*
X-2192307Y6903847D01*
X-2192307Y6980770D01*
X-2192307Y7057693D01*
X-2115384Y7057693D01*
X-2038461Y7057693D01*
X-2038461Y7288462D01*
X-2038461Y7519231D01*
X-2115384Y7519231D01*
X-2192307Y7519231D01*
X-2192307Y7596154D01*
X-2192307Y7673077D01*
X-2269230Y7673077D01*
X-2346153Y7673077D01*
X-2346153Y7750000D01*
X-2346153Y7826924D01*
X-2423076Y7826924D01*
X-2500000Y7826924D01*
X-2500000Y8038462D01*
X-2500000Y8096154D01*
X-2346153Y8096154D01*
X-2346153Y7961539D01*
X-2346153Y7826924D01*
X-2269230Y7826924D01*
X-2192307Y7826924D01*
X-2192307Y7884616D01*
X-2192307Y7942308D01*
X-2115384Y7942308D01*
X-2038461Y7942308D01*
X-2038461Y7807693D01*
X-2038461Y7673077D01*
X-1961538Y7673077D01*
X-1884615Y7673077D01*
X-1884615Y7730770D01*
X-1730769Y7730770D01*
X-1730769Y7519231D01*
X-1500000Y7519231D01*
X-1269230Y7519231D01*
X-1153846Y7519231D01*
X-1153846Y7442308D01*
X-1153846Y7365385D01*
X-1076923Y7365385D01*
X-1000000Y7365385D01*
X-1000000Y7442308D01*
X-1000000Y7519231D01*
X-1076923Y7519231D01*
X-1153846Y7519231D01*
X-1269230Y7519231D01*
X-1269230Y7730770D01*
X-1269230Y7942308D01*
X-1500000Y7942308D01*
X-1730769Y7942308D01*
X-1730769Y7884616D01*
X-1730769Y7730770D01*
X-1884615Y7730770D01*
X-1884615Y7884616D01*
X-1884615Y8096154D01*
X-2115384Y8096154D01*
X-2346153Y8096154D01*
X-2500000Y8096154D01*
X-2500000Y8250000D01*
X-2423076Y8250000D01*
X-2346153Y8250000D01*
X-2346153Y8326924D01*
X-2346153Y8403847D01*
X-2423076Y8403847D01*
X-2500000Y8403847D01*
X-2500000Y8480770D01*
X-2500000Y8557693D01*
X-2423076Y8557693D01*
X-2346153Y8557693D01*
X-2346153Y8480770D01*
X-2346153Y8403847D01*
X-2269230Y8403847D01*
X-2192307Y8403847D01*
X-2192307Y8480770D01*
X-2192307Y8557693D01*
X-2115384Y8557693D01*
X-2038461Y8557693D01*
X-2038461Y8480770D01*
X-2038461Y8403847D01*
X-2115384Y8403847D01*
X-2192307Y8403847D01*
X-2192307Y8326924D01*
X-2192307Y8250000D01*
X-2115384Y8250000D01*
X-2038461Y8250000D01*
X-2038461Y8326924D01*
X-2038461Y8403847D01*
X-1961538Y8403847D01*
X-1884615Y8403847D01*
X-1884615Y8326924D01*
X-1884615Y8250000D01*
X-1807692Y8250000D01*
X-1730769Y8250000D01*
X-1730769Y8173077D01*
X-1730769Y8096154D01*
X-1653846Y8096154D01*
X-1576923Y8096154D01*
X-1576923Y8173077D01*
X-1576923Y8250000D01*
X-1500000Y8250000D01*
X-1423076Y8250000D01*
X-1423076Y8326924D01*
X-1423076Y8403847D01*
X-1346153Y8403847D01*
X-1269230Y8403847D01*
X-1269230Y8250000D01*
X-1269230Y8096154D01*
X-1134615Y8096154D01*
X-1000000Y8096154D01*
X-1000000Y8173077D01*
X-1000000Y8250000D01*
X-769230Y8250000D01*
X-538461Y8250000D01*
X-538461Y8326924D01*
X-538461Y8403847D01*
X-384615Y8403847D01*
X-230769Y8403847D01*
X-230769Y8326924D01*
X-230769Y8250000D01*
X-307692Y8250000D01*
X-384615Y8250000D01*
X-384615Y8038462D01*
X-384615Y7826924D01*
X-461538Y7826924D01*
X-538461Y7826924D01*
X-538461Y7961539D01*
X-538461Y8096154D01*
X-692307Y8096154D01*
X-846153Y8096154D01*
X-846153Y8019231D01*
X-846153Y7942308D01*
X-923076Y7942308D01*
X-1000000Y7942308D01*
X-1000000Y7884616D01*
X-1000000Y7826924D01*
X-923076Y7826924D01*
X-846153Y7826924D01*
X-846153Y7750000D01*
X-846153Y7730770D01*
X-846153Y7673077D01*
G37*
G36*
X-307692Y7365385D02*
G01*
X-230769Y7365385D01*
X-230769Y7288462D01*
X-230769Y7211539D01*
X-307692Y7211539D01*
X-384615Y7211539D01*
X-384615Y7288462D01*
X-384615Y7365385D01*
X-307692Y7365385D01*
G37*
G36*
X384616Y7826924D02*
G01*
X692308Y7826924D01*
X692308Y7673077D01*
X692308Y7519231D01*
X538462Y7519231D01*
X384616Y7519231D01*
X384616Y7596154D01*
X384616Y7673077D01*
X230770Y7673077D01*
X76924Y7673077D01*
X76924Y7750000D01*
X76924Y7826924D01*
X384616Y7826924D01*
G37*
G36*
X-230769Y8557693D02*
G01*
X-384615Y8557693D01*
X-538461Y8557693D01*
X-538461Y8480770D01*
X-538461Y8403847D01*
X-846153Y8403847D01*
X-1153846Y8403847D01*
X-1153846Y8480770D01*
X-1153846Y8557693D01*
X-1000000Y8557693D01*
X-846153Y8557693D01*
X-846153Y8634616D01*
X-846153Y8711539D01*
X-692307Y8711539D01*
X-692307Y8634616D01*
X-692307Y8557693D01*
X-615384Y8557693D01*
X-538461Y8557693D01*
X-538461Y8634616D01*
X-538461Y8711539D01*
X-615384Y8711539D01*
X-692307Y8711539D01*
X-846153Y8711539D01*
X-923076Y8711539D01*
X-1000000Y8711539D01*
X-1000000Y8788462D01*
X-1000000Y8865385D01*
X-923076Y8865385D01*
X-846153Y8865385D01*
X-846153Y9019231D01*
X-846153Y9173077D01*
X-692307Y9173077D01*
X-538461Y9173077D01*
X-538461Y9019231D01*
X-538461Y8865385D01*
X-461538Y8865385D01*
X-384615Y8865385D01*
X-384615Y9019231D01*
X-384615Y9173077D01*
X-307692Y9173077D01*
X-230769Y9173077D01*
X-230769Y9019231D01*
X-230769Y8865385D01*
X-307692Y8865385D01*
X-384615Y8865385D01*
X-384615Y8788462D01*
X-384615Y8711539D01*
X-307692Y8711539D01*
X-230769Y8711539D01*
X-230769Y8634616D01*
X-230769Y8557693D01*
G37*
G36*
X1000000Y6826924D02*
G01*
X1000000Y6750000D01*
X923077Y6750000D01*
X846154Y6750000D01*
X846154Y6826924D01*
X846154Y6903847D01*
X923077Y6903847D01*
X1000000Y6903847D01*
X1000000Y6826924D01*
G37*
G36*
X-2192307Y6826924D02*
G01*
X-2192307Y6750000D01*
X-2269230Y6750000D01*
X-2346153Y6750000D01*
X-2346153Y6826924D01*
X-2346153Y6903847D01*
X-2269230Y6903847D01*
X-2192307Y6903847D01*
X-2192307Y6826924D01*
G37*
G36*
X-2192307Y7442308D02*
G01*
X-2192307Y7365385D01*
X-2269230Y7365385D01*
X-2346153Y7365385D01*
X-2346153Y7288462D01*
X-2346153Y7211539D01*
X-2423076Y7211539D01*
X-2500000Y7211539D01*
X-2500000Y7365385D01*
X-2500000Y7519231D01*
X-2346153Y7519231D01*
X-2192307Y7519231D01*
X-2192307Y7442308D01*
G37*
G36*
X1000000Y11288462D02*
G01*
X1076924Y11288462D01*
X1153847Y11288462D01*
X1153847Y11365385D01*
X1153847Y11442308D01*
X1230770Y11442308D01*
X1307693Y11442308D01*
X1307693Y11365385D01*
X1307693Y11000000D01*
X1307693Y10557693D01*
X1230770Y10557693D01*
X1153847Y10557693D01*
X1153847Y10480770D01*
X1153847Y10403847D01*
X1288462Y10403847D01*
X1423077Y10403847D01*
X1423077Y10480770D01*
X1423077Y10557693D01*
X1807693Y10557693D01*
X2192308Y10557693D01*
X2192308Y10480770D01*
X2192308Y10403847D01*
X2269231Y10403847D01*
X2346154Y10403847D01*
X2346154Y10480770D01*
X2346154Y10557693D01*
X2423077Y10557693D01*
X2500000Y10557693D01*
X2500000Y10403847D01*
X2500000Y10250000D01*
X2423077Y10250000D01*
X2346154Y10250000D01*
X2346154Y9942308D01*
X2346154Y9634616D01*
X2423077Y9634616D01*
X2500000Y9634616D01*
X2500000Y9250000D01*
X2500000Y8865385D01*
X2423077Y8865385D01*
X2346154Y8865385D01*
X2346154Y8788462D01*
X2346154Y8711539D01*
X2269231Y8711539D01*
X2192308Y8711539D01*
X2192308Y8788462D01*
X2192308Y8865385D01*
X2038462Y8865385D01*
X1884616Y8865385D01*
X1884616Y8788462D01*
X1884616Y8711539D01*
X1961539Y8711539D01*
X2038462Y8711539D01*
X2038462Y8634616D01*
X2038462Y8557693D01*
X1961539Y8557693D01*
X1884616Y8557693D01*
X1884616Y8480770D01*
X1884616Y8403847D01*
X1961539Y8403847D01*
X2038462Y8403847D01*
X2038462Y8480770D01*
X2038462Y8557693D01*
X2115385Y8557693D01*
X2192308Y8557693D01*
X2192308Y8480770D01*
X2192308Y8326924D01*
X2192308Y8096154D01*
X2115385Y8096154D01*
X2038462Y8096154D01*
X2038462Y8019231D01*
X2038462Y7942308D01*
X1884616Y7942308D01*
X1730770Y7942308D01*
X1730770Y8096154D01*
X1730770Y8250000D01*
X1807693Y8250000D01*
X1884616Y8250000D01*
X1884616Y8326924D01*
X1884616Y8403847D01*
X1730770Y8403847D01*
X1576924Y8403847D01*
X1576924Y8326924D01*
X1576924Y8250000D01*
X1500000Y8250000D01*
X1423077Y8250000D01*
X1423077Y8173077D01*
X1423077Y8096154D01*
X1500000Y8096154D01*
X1576924Y8096154D01*
X1576924Y8019231D01*
X1576924Y7942308D01*
X1442308Y7942308D01*
X1307693Y7942308D01*
X1307693Y7884616D01*
X1307693Y7826924D01*
X1076924Y7826924D01*
X846154Y7826924D01*
X846154Y7961539D01*
X846154Y8096154D01*
X769231Y8096154D01*
X692308Y8096154D01*
X692308Y8173077D01*
X692308Y8250000D01*
X615385Y8250000D01*
X538462Y8250000D01*
X538462Y8326924D01*
X538462Y8403847D01*
X461539Y8403847D01*
X384616Y8403847D01*
X384616Y8250000D01*
X384616Y8096154D01*
X307693Y8096154D01*
X230770Y8096154D01*
X230770Y8250000D01*
X230770Y8403847D01*
X76924Y8403847D01*
X-76923Y8403847D01*
X-76923Y8480770D01*
X-76923Y8557693D01*
X76924Y8557693D01*
X230770Y8557693D01*
X230770Y8711539D01*
X230770Y8865385D01*
X153847Y8865385D01*
X76924Y8865385D01*
X76924Y8788462D01*
X76924Y8711539D01*
X0Y8711539D01*
X-76923Y8711539D01*
X-76923Y8942308D01*
X-76923Y9173077D01*
X0Y9173077D01*
X76924Y9173077D01*
X76924Y9096154D01*
X76924Y9019231D01*
X230770Y9019231D01*
X384616Y9019231D01*
X384616Y8788462D01*
X384616Y8557693D01*
X538462Y8557693D01*
X692308Y8557693D01*
X692308Y8480770D01*
X692308Y8403847D01*
X769231Y8403847D01*
X846154Y8403847D01*
X846154Y8326924D01*
X846154Y8250000D01*
X923077Y8250000D01*
X1000000Y8250000D01*
X1000000Y8173077D01*
X1000000Y8096154D01*
X1153847Y8096154D01*
X1307693Y8096154D01*
X1307693Y8250000D01*
X1307693Y8403847D01*
X1230770Y8403847D01*
X1153847Y8403847D01*
X1153847Y8480770D01*
X1153847Y8557693D01*
X1288462Y8557693D01*
X1423077Y8557693D01*
X1423077Y8480770D01*
X1423077Y8403847D01*
X1500000Y8403847D01*
X1576924Y8403847D01*
X1576924Y8480770D01*
X1576924Y8557693D01*
X1653847Y8557693D01*
X1730770Y8557693D01*
X1730770Y8788462D01*
X1730770Y9019231D01*
X1961539Y9019231D01*
X2192308Y9019231D01*
X2192308Y9096154D01*
X2192308Y9173077D01*
X2269231Y9173077D01*
X2346154Y9173077D01*
X2346154Y9326924D01*
X2346154Y9480770D01*
X2269231Y9480770D01*
X2192308Y9480770D01*
X2192308Y9326924D01*
X2192308Y9173077D01*
X2115385Y9173077D01*
X2038462Y9173077D01*
X2038462Y9250000D01*
X2038462Y9326924D01*
X1961539Y9326924D01*
X1884616Y9326924D01*
X1884616Y9250000D01*
X1884616Y9173077D01*
X1807693Y9173077D01*
X1730770Y9173077D01*
X1730770Y9250000D01*
X1730770Y9326924D01*
X1653847Y9326924D01*
X1576924Y9326924D01*
X1576924Y9403847D01*
X1576924Y9480770D01*
X1730770Y9480770D01*
X1807693Y9480770D01*
X1884616Y9480770D01*
X1884616Y9557693D01*
X1884616Y9634616D01*
X1807693Y9634616D01*
X1730770Y9634616D01*
X1730770Y9557693D01*
X1730770Y9480770D01*
X1576924Y9480770D01*
X1500000Y9480770D01*
X1423077Y9480770D01*
X1423077Y9403847D01*
X1423077Y9326924D01*
X1211539Y9326924D01*
X1000000Y9326924D01*
X1000000Y9250000D01*
X1000000Y9173077D01*
X923077Y9173077D01*
X846154Y9173077D01*
X846154Y9326924D01*
X846154Y9480770D01*
X769231Y9480770D01*
X692308Y9480770D01*
X692308Y9557693D01*
X1000000Y9557693D01*
X1000000Y9480770D01*
X1076924Y9480770D01*
X1153847Y9480770D01*
X1153847Y9557693D01*
X1153847Y9634616D01*
X1076924Y9634616D01*
X1000000Y9634616D01*
X1000000Y9557693D01*
X692308Y9557693D01*
X692308Y9634616D01*
X692308Y9788462D01*
X769231Y9788462D01*
X846154Y9788462D01*
X846154Y9865385D01*
X846154Y9942308D01*
X923077Y9942308D01*
X1000000Y9942308D01*
X1000000Y9865385D01*
X1000000Y9788462D01*
X1153847Y9788462D01*
X1307693Y9788462D01*
X1307693Y9711539D01*
X1307693Y9634616D01*
X1519231Y9634616D01*
X1730770Y9634616D01*
X1730770Y9711539D01*
X1730770Y9788462D01*
X1807693Y9788462D01*
X1884616Y9788462D01*
X2038462Y9788462D01*
X2038462Y9480770D01*
X2115385Y9480770D01*
X2192308Y9480770D01*
X2192308Y9788462D01*
X2192308Y10096154D01*
X2115385Y10096154D01*
X2038462Y10096154D01*
X2038462Y9788462D01*
X1884616Y9788462D01*
X1884616Y9942308D01*
X1884616Y10096154D01*
X1807693Y10096154D01*
X1730770Y10096154D01*
X1730770Y10173077D01*
X1730770Y10250000D01*
X1884616Y10250000D01*
X2038462Y10250000D01*
X2038462Y10326924D01*
X2038462Y10403847D01*
X1884616Y10403847D01*
X1730770Y10403847D01*
X1730770Y10326924D01*
X1730770Y10250000D01*
X1653847Y10250000D01*
X1576924Y10250000D01*
X1576924Y10326924D01*
X1576924Y10403847D01*
X1500000Y10403847D01*
X1423077Y10403847D01*
X1423077Y10326924D01*
X1423077Y10250000D01*
X1500000Y10250000D01*
X1576924Y10250000D01*
X1576924Y10173077D01*
X1576924Y10096154D01*
X1442308Y10096154D01*
X1307693Y10096154D01*
X1307693Y10173077D01*
X1307693Y10250000D01*
X1230770Y10250000D01*
X1153847Y10250000D01*
X1153847Y10326924D01*
X1153847Y10403847D01*
X1076924Y10403847D01*
X1000000Y10403847D01*
X1000000Y10480770D01*
X1000000Y10557693D01*
X769231Y10557693D01*
X538462Y10557693D01*
X538462Y10692308D01*
X538462Y10826924D01*
X615385Y10826924D01*
X692308Y10826924D01*
X692308Y10750000D01*
X692308Y10673077D01*
X769231Y10673077D01*
X846154Y10673077D01*
X846154Y10750000D01*
X846154Y10826924D01*
X923077Y10826924D01*
X1000000Y10826924D01*
X1000000Y10750000D01*
X1000000Y10673077D01*
X1076924Y10673077D01*
X1153847Y10673077D01*
X1153847Y10750000D01*
X1153847Y10826924D01*
X1076924Y10826924D01*
X1000000Y10826924D01*
X1000000Y10980770D01*
X1000000Y11134616D01*
X923077Y11134616D01*
X846154Y11134616D01*
X846154Y11057693D01*
X846154Y10980770D01*
X384616Y10980770D01*
X-76923Y10980770D01*
X-76923Y10903847D01*
X-76923Y10826924D01*
X-153846Y10826924D01*
X-230769Y10826924D01*
X-230769Y10750000D01*
X-230769Y10673077D01*
X-307692Y10673077D01*
X-384615Y10673077D01*
X-384615Y10750000D01*
X-384615Y10826924D01*
X-461538Y10826924D01*
X-538461Y10826924D01*
X-538461Y10903847D01*
X-538461Y10980770D01*
X-769230Y10980770D01*
X-1000000Y10980770D01*
X-1000000Y11057693D01*
X-1000000Y11134616D01*
X-923076Y11134616D01*
X-846153Y11134616D01*
X-846153Y11211539D01*
X-846153Y11288462D01*
X-923076Y11288462D01*
X-1000000Y11288462D01*
X-1000000Y11365385D01*
X-1000000Y11442308D01*
X-923076Y11442308D01*
X-846153Y11442308D01*
X-846153Y11596154D01*
X-846153Y11750000D01*
X-538461Y11750000D01*
X-230769Y11750000D01*
X-230769Y11596154D01*
X-230769Y11442308D01*
X-307692Y11442308D01*
X-384615Y11442308D01*
X-384615Y11519231D01*
X-384615Y11596154D01*
X-461538Y11596154D01*
X-538461Y11596154D01*
X-538461Y11442308D01*
X-538461Y11288462D01*
X-615384Y11288462D01*
X-692307Y11288462D01*
X-692307Y11211539D01*
X-692307Y11134616D01*
X-615384Y11134616D01*
X-538461Y11134616D01*
X-538461Y11057693D01*
X-538461Y10980770D01*
X-307692Y10980770D01*
X-76923Y10980770D01*
X-76923Y11057693D01*
X-76923Y11134616D01*
X307693Y11134616D01*
X692308Y11134616D01*
X692308Y11211539D01*
X692308Y11288462D01*
X615385Y11288462D01*
X538462Y11288462D01*
X538462Y11442308D01*
X692308Y11442308D01*
X692308Y11365385D01*
X692308Y11288462D01*
X769231Y11288462D01*
X846154Y11288462D01*
X846154Y11365385D01*
X846154Y11442308D01*
X769231Y11442308D01*
X692308Y11442308D01*
X538462Y11442308D01*
X538462Y11596154D01*
X615385Y11596154D01*
X692308Y11596154D01*
X692308Y11673077D01*
X692308Y11750000D01*
X923077Y11750000D01*
X1153847Y11750000D01*
X1153847Y11596154D01*
X1153847Y11442308D01*
X1076924Y11442308D01*
X1000000Y11442308D01*
X1000000Y11365385D01*
X1000000Y11288462D01*
G37*
G36*
X461539Y8096154D02*
G01*
X538462Y8096154D01*
X538462Y8019231D01*
X538462Y7942308D01*
X461539Y7942308D01*
X384616Y7942308D01*
X384616Y8019231D01*
X384616Y8096154D01*
X461539Y8096154D01*
G37*
G36*
X2423077Y8711539D02*
G01*
X2500000Y8711539D01*
X2500000Y8326924D01*
X2500000Y7942308D01*
X2423077Y7942308D01*
X2346154Y7942308D01*
X2346154Y8326924D01*
X2346154Y8711539D01*
X2423077Y8711539D01*
G37*
G36*
X-76923Y9250000D02*
G01*
X-76923Y9173077D01*
X-153846Y9173077D01*
X-230769Y9173077D01*
X-230769Y9250000D01*
X-230769Y9326924D01*
X-153846Y9326924D01*
X-76923Y9326924D01*
X-76923Y9250000D01*
G37*
G36*
X76924Y8173077D02*
G01*
X76924Y8096154D01*
X0Y8096154D01*
X-76923Y8096154D01*
X-76923Y8173077D01*
X-76923Y8250000D01*
X0Y8250000D01*
X76924Y8250000D01*
X76924Y8173077D01*
G37*
G36*
X-1423076Y10250000D02*
G01*
X-1576923Y10250000D01*
X-1730769Y10250000D01*
X-1730769Y10173077D01*
X-1730769Y10019231D01*
X-1730769Y9788462D01*
X-1807692Y9788462D01*
X-1884615Y9788462D01*
X-1884615Y9711539D01*
X-1884615Y9634616D01*
X-1807692Y9634616D01*
X-1730769Y9634616D01*
X-1730769Y9480770D01*
X-1730769Y9326924D01*
X-1653846Y9326924D01*
X-1576923Y9326924D01*
X-1576923Y9480770D01*
X-1576923Y9634616D01*
X-1500000Y9634616D01*
X-1423076Y9634616D01*
X-1423076Y9788462D01*
X-1423076Y9942308D01*
X-1500000Y9942308D01*
X-1576923Y9942308D01*
X-1576923Y10019231D01*
X-1576923Y10096154D01*
X-1500000Y10096154D01*
X-1423076Y10096154D01*
X-1423076Y10019231D01*
X-1423076Y9942308D01*
X-1346153Y9942308D01*
X-1269230Y9942308D01*
X-1269230Y10096154D01*
X-1269230Y10250000D01*
X-1211538Y10250000D01*
X-1153846Y10250000D01*
X-1153846Y10096154D01*
X-1153846Y9942308D01*
X-923076Y9942308D01*
X-692307Y9942308D01*
X-692307Y10096154D01*
X-538461Y10096154D01*
X-538461Y9942308D01*
X-461538Y9942308D01*
X-384615Y9942308D01*
X-384615Y10019231D01*
X-384615Y10096154D01*
X-307692Y10096154D01*
X-230769Y10096154D01*
X-230769Y10173077D01*
X-230769Y10250000D01*
X-384615Y10250000D01*
X-538461Y10250000D01*
X-538461Y10096154D01*
X-692307Y10096154D01*
X-692307Y10173077D01*
X-692307Y10403847D01*
X-615384Y10403847D01*
X-538461Y10403847D01*
X-538461Y10480770D01*
X-538461Y10557693D01*
X-692307Y10557693D01*
X-846153Y10557693D01*
X-846153Y10615385D01*
X-846153Y10673077D01*
X-769230Y10673077D01*
X-692307Y10673077D01*
X-692307Y10750000D01*
X-692307Y10826924D01*
X-615384Y10826924D01*
X-538461Y10826924D01*
X-538461Y10750000D01*
X-538461Y10673077D01*
X-461538Y10673077D01*
X-384615Y10673077D01*
X-384615Y10538462D01*
X-384615Y10403847D01*
X-307692Y10403847D01*
X-230769Y10403847D01*
X-230769Y10480770D01*
X-230769Y10557693D01*
X-153846Y10557693D01*
X-76923Y10557693D01*
X-76923Y10480770D01*
X-76923Y10403847D01*
X0Y10403847D01*
X76924Y10403847D01*
X76924Y10326924D01*
X76924Y10250000D01*
X0Y10250000D01*
X-76923Y10250000D01*
X-76923Y10173077D01*
X-76923Y10096154D01*
X0Y10096154D01*
X76924Y10096154D01*
X76924Y9942308D01*
X76924Y9788462D01*
X0Y9788462D01*
X-76923Y9788462D01*
X-76923Y9865385D01*
X-76923Y9942308D01*
X-230769Y9942308D01*
X-384615Y9942308D01*
X-384615Y9865385D01*
X-384615Y9788462D01*
X-769230Y9788462D01*
X-1153846Y9788462D01*
X-1153846Y9480770D01*
X-1153846Y9173077D01*
X-1288461Y9173077D01*
X-1423076Y9173077D01*
X-1423076Y9250000D01*
X-1423076Y9326924D01*
X-1500000Y9326924D01*
X-1576923Y9326924D01*
X-1576923Y9250000D01*
X-1576923Y9173077D01*
X-1500000Y9173077D01*
X-1423076Y9173077D01*
X-1423076Y9096154D01*
X-1423076Y9019231D01*
X-1500000Y9019231D01*
X-1576923Y9019231D01*
X-1576923Y8942308D01*
X-1576923Y8788462D01*
X-1576923Y8557693D01*
X-1807692Y8557693D01*
X-2038461Y8557693D01*
X-2038461Y8634616D01*
X-2038461Y8711539D01*
X-2192307Y8711539D01*
X-2346153Y8711539D01*
X-2346153Y8865385D01*
X-2346153Y9019231D01*
X-2423076Y9019231D01*
X-2500000Y9019231D01*
X-2500000Y9173077D01*
X-2500000Y9326924D01*
X-2423076Y9326924D01*
X-2346153Y9326924D01*
X-2346153Y9173077D01*
X-2346153Y9019231D01*
X-2269230Y9019231D01*
X-2192307Y9019231D01*
X-2038461Y9019231D01*
X-2038461Y8942308D01*
X-2038461Y8865385D01*
X-1961538Y8865385D01*
X-1884615Y8865385D01*
X-1884615Y8942308D01*
X-1884615Y9019231D01*
X-1961538Y9019231D01*
X-2038461Y9019231D01*
X-2192307Y9019231D01*
X-2192307Y9250000D01*
X-2192307Y9326924D01*
X-2038461Y9326924D01*
X-2038461Y9250000D01*
X-2038461Y9173077D01*
X-1961538Y9173077D01*
X-1884615Y9173077D01*
X-1884615Y9096154D01*
X-1884615Y9019231D01*
X-1807692Y9019231D01*
X-1730769Y9019231D01*
X-1730769Y9096154D01*
X-1730769Y9173077D01*
X-1807692Y9173077D01*
X-1884615Y9173077D01*
X-1884615Y9250000D01*
X-1884615Y9326924D01*
X-1961538Y9326924D01*
X-2038461Y9326924D01*
X-2192307Y9326924D01*
X-2192307Y9480770D01*
X-2269230Y9480770D01*
X-2346153Y9480770D01*
X-2346153Y9557693D01*
X-2346153Y9634616D01*
X-2423076Y9634616D01*
X-2500000Y9634616D01*
X-2500000Y9711539D01*
X-2500000Y9788462D01*
X-2346153Y9788462D01*
X-2192307Y9788462D01*
X-2192307Y9634616D01*
X-2192307Y9480770D01*
X-2115384Y9480770D01*
X-2038461Y9480770D01*
X-2038461Y9711539D01*
X-2038461Y9942308D01*
X-2115384Y9942308D01*
X-2192307Y9942308D01*
X-2192307Y10250000D01*
X-2038461Y10250000D01*
X-2038461Y10173077D01*
X-2038461Y10096154D01*
X-1961538Y10096154D01*
X-1884615Y10096154D01*
X-1884615Y10173077D01*
X-1884615Y10250000D01*
X-1961538Y10250000D01*
X-2038461Y10250000D01*
X-2192307Y10250000D01*
X-2192307Y10403847D01*
X-1884615Y10403847D01*
X-1884615Y10326924D01*
X-1884615Y10250000D01*
X-1807692Y10250000D01*
X-1730769Y10250000D01*
X-1730769Y10326924D01*
X-1730769Y10403847D01*
X-1807692Y10403847D01*
X-1884615Y10403847D01*
X-2192307Y10403847D01*
X-2192307Y10557693D01*
X-1807692Y10557693D01*
X-1423076Y10557693D01*
X-1423076Y10403847D01*
X-1423076Y10326924D01*
X-1423076Y10250000D01*
G37*
G36*
X-1076923Y10673077D02*
G01*
X-1000000Y10673077D01*
X-1000000Y10461539D01*
X-1000000Y10250000D01*
X-1076923Y10250000D01*
X-1153846Y10250000D01*
X-1153846Y10461539D01*
X-1153846Y10673077D01*
X-1076923Y10673077D01*
G37*
G36*
X-1000000Y10903847D02*
G01*
X-1000000Y10826924D01*
X-1076923Y10826924D01*
X-1153846Y10826924D01*
X-1153846Y10750000D01*
X-1153846Y10673077D01*
X-1211538Y10673077D01*
X-1269230Y10673077D01*
X-1269230Y10826924D01*
X-1269230Y10980770D01*
X-1134615Y10980770D01*
X-1000000Y10980770D01*
X-1000000Y10903847D01*
G37*
G36*
X692308Y6826924D02*
G01*
X692308Y6750000D01*
X615385Y6750000D01*
X538462Y6750000D01*
X538462Y6826924D01*
X538462Y6903847D01*
X615385Y6903847D01*
X692308Y6903847D01*
X692308Y6826924D01*
G37*
G36*
X-2346153Y10019231D02*
G01*
X-2346153Y9942308D01*
X-2423076Y9942308D01*
X-2500000Y9942308D01*
X-2500000Y10019231D01*
X-2500000Y10096154D01*
X-2423076Y10096154D01*
X-2346153Y10096154D01*
X-2346153Y10019231D01*
G37*
G36*
X-2346153Y10326924D02*
G01*
X-2346153Y10250000D01*
X-2423076Y10250000D01*
X-2500000Y10250000D01*
X-2500000Y10326924D01*
X-2500000Y10403847D01*
X-2423076Y10403847D01*
X-2346153Y10403847D01*
X-2346153Y10326924D01*
G37*
G36*
X2500000Y11211539D02*
G01*
X2500000Y10673077D01*
X1961539Y10673077D01*
X1423077Y10673077D01*
X1423077Y11211539D01*
X1423077Y11596154D01*
X1615385Y11596154D01*
X1615385Y11230770D01*
X1615385Y10865385D01*
X1980770Y10865385D01*
X2346154Y10865385D01*
X2346154Y11230770D01*
X2346154Y11596154D01*
X1980770Y11596154D01*
X1615385Y11596154D01*
X1423077Y11596154D01*
X1423077Y11750000D01*
X1961539Y11750000D01*
X2500000Y11750000D01*
X2500000Y11230770D01*
X2500000Y11211539D01*
G37*
G36*
X-1423076Y11211539D02*
G01*
X-1423076Y10673077D01*
X-1961538Y10673077D01*
X-2500000Y10673077D01*
X-2500000Y11211539D01*
X-2500000Y11596154D01*
X-2346153Y11596154D01*
X-2346153Y11230770D01*
X-2346153Y10865385D01*
X-1980769Y10865385D01*
X-1615384Y10865385D01*
X-1615384Y11230770D01*
X-1615384Y11596154D01*
X-1980769Y11596154D01*
X-2346153Y11596154D01*
X-2500000Y11596154D01*
X-2500000Y11750000D01*
X-1961538Y11750000D01*
X-1423076Y11750000D01*
X-1423076Y11230770D01*
X-1423076Y11211539D01*
G37*
G36*
X-230769Y11211539D02*
G01*
X-230769Y11134616D01*
X-307692Y11134616D01*
X-384615Y11134616D01*
X-384615Y11211539D01*
X-384615Y11288462D01*
X-307692Y11288462D01*
X-230769Y11288462D01*
X-230769Y11211539D01*
G37*
G36*
X-1153846Y11211539D02*
G01*
X-1153846Y11134616D01*
X-1211538Y11134616D01*
X-1269230Y11134616D01*
X-1269230Y11211539D01*
X-1269230Y11288462D01*
X-1211538Y11288462D01*
X-1153846Y11288462D01*
X-1153846Y11211539D01*
G37*
G36*
X76924Y11673077D02*
G01*
X76924Y11596154D01*
X153847Y11596154D01*
X230770Y11596154D01*
X230770Y11673077D01*
X230770Y11750000D01*
X307693Y11750000D01*
X384616Y11750000D01*
X384616Y11673077D01*
X384616Y11596154D01*
X307693Y11596154D01*
X230770Y11596154D01*
X230770Y11519231D01*
X230770Y11442308D01*
X307693Y11442308D01*
X384616Y11442308D01*
X384616Y11365385D01*
X384616Y11288462D01*
X230770Y11288462D01*
X76924Y11288462D01*
X76924Y11365385D01*
X76924Y11442308D01*
X0Y11442308D01*
X-76923Y11442308D01*
X-76923Y11596154D01*
X-76923Y11750000D01*
X0Y11750000D01*
X76924Y11750000D01*
X76924Y11673077D01*
G37*
G36*
X-1000000Y11673077D02*
G01*
X-1000000Y11596154D01*
X-1076923Y11596154D01*
X-1153846Y11596154D01*
X-1153846Y11673077D01*
X-1153846Y11750000D01*
X-1076923Y11750000D01*
X-1000000Y11750000D01*
X-1000000Y11673077D01*
G37*
G36*
X2192308Y7288462D02*
G01*
X2192308Y7057693D01*
X1961539Y7057693D01*
X1730770Y7057693D01*
X1730770Y7288462D01*
X1730770Y7519231D01*
X1961539Y7519231D01*
X2192308Y7519231D01*
X2192308Y7288462D01*
G37*
G36*
X-1423076Y7750000D02*
G01*
X-1423076Y7673077D01*
X-1500000Y7673077D01*
X-1576923Y7673077D01*
X-1576923Y7750000D01*
X-1576923Y7826924D01*
X-1500000Y7826924D01*
X-1423076Y7826924D01*
X-1423076Y7750000D01*
G37*
G36*
X-1576923Y8326924D02*
G01*
X-1576923Y8250000D01*
X-1653846Y8250000D01*
X-1730769Y8250000D01*
X-1730769Y8326924D01*
X-1730769Y8403847D01*
X-1653846Y8403847D01*
X-1576923Y8403847D01*
X-1576923Y8326924D01*
G37*
G36*
X-1423076Y8480770D02*
G01*
X-1423076Y8403847D01*
X-1500000Y8403847D01*
X-1576923Y8403847D01*
X-1576923Y8480770D01*
X-1576923Y8557693D01*
X-1500000Y8557693D01*
X-1423076Y8557693D01*
X-1423076Y8480770D01*
G37*
G36*
X-1269230Y8634616D02*
G01*
X-1269230Y8557693D01*
X-1346153Y8557693D01*
X-1423076Y8557693D01*
X-1423076Y8634616D01*
X-1423076Y8711539D01*
X-1346153Y8711539D01*
X-1269230Y8711539D01*
X-1269230Y8634616D01*
G37*
G36*
X1576924Y8634616D02*
G01*
X1576924Y8557693D01*
X1500000Y8557693D01*
X1423077Y8557693D01*
X1423077Y8634616D01*
X1423077Y8711539D01*
X1500000Y8711539D01*
X1576924Y8711539D01*
X1576924Y8634616D01*
G37*
G36*
X769231Y9173077D02*
G01*
X846154Y9173077D01*
X846154Y9096154D01*
X846154Y9019231D01*
X923077Y9019231D01*
X1000000Y9019231D01*
X1000000Y8942308D01*
X1000000Y8865385D01*
X923077Y8865385D01*
X846154Y8865385D01*
X846154Y8788462D01*
X846154Y8711539D01*
X1000000Y8711539D01*
X1153847Y8711539D01*
X1153847Y8634616D01*
X1153847Y8557693D01*
X923077Y8557693D01*
X692308Y8557693D01*
X692308Y8711539D01*
X692308Y8865385D01*
X615385Y8865385D01*
X538462Y8865385D01*
X538462Y8942308D01*
X538462Y9019231D01*
X615385Y9019231D01*
X692308Y9019231D01*
X692308Y9096154D01*
X692308Y9173077D01*
X769231Y9173077D01*
G37*
G36*
X-76923Y9711539D02*
G01*
X-76923Y9634616D01*
X0Y9634616D01*
X76924Y9634616D01*
X76924Y9711539D01*
X76924Y9788462D01*
X153847Y9788462D01*
X230770Y9788462D01*
X230770Y9711539D01*
X230770Y9634616D01*
X307693Y9634616D01*
X384616Y9634616D01*
X384616Y9557693D01*
X384616Y9480770D01*
X307693Y9480770D01*
X230770Y9480770D01*
X230770Y9403847D01*
X230770Y9326924D01*
X384616Y9326924D01*
X538462Y9326924D01*
X538462Y9403847D01*
X538462Y9480770D01*
X615385Y9480770D01*
X692308Y9480770D01*
X692308Y9326924D01*
X692308Y9173077D01*
X384616Y9173077D01*
X76924Y9173077D01*
X76924Y9326924D01*
X76924Y9480770D01*
X0Y9480770D01*
X-76923Y9480770D01*
X-76923Y9557693D01*
X-76923Y9634616D01*
X-153846Y9634616D01*
X-230769Y9634616D01*
X-230769Y9480770D01*
X-230769Y9326924D01*
X-307692Y9326924D01*
X-384615Y9326924D01*
X-384615Y9557693D01*
X-384615Y9788462D01*
X-230769Y9788462D01*
X-76923Y9788462D01*
X-76923Y9711539D01*
G37*
G36*
X384616Y9865385D02*
G01*
X384616Y9788462D01*
X307693Y9788462D01*
X230770Y9788462D01*
X230770Y9865385D01*
X230770Y9942308D01*
X307693Y9942308D01*
X384616Y9942308D01*
X384616Y9865385D01*
G37*
G36*
X615385Y10403847D02*
G01*
X846154Y10403847D01*
X846154Y10326924D01*
X846154Y10250000D01*
X692308Y10250000D01*
X538462Y10250000D01*
X538462Y10173077D01*
X538462Y10096154D01*
X692308Y10096154D01*
X846154Y10096154D01*
X846154Y10173077D01*
X846154Y10250000D01*
X1000000Y10250000D01*
X1153847Y10250000D01*
X1153847Y10173077D01*
X1153847Y10096154D01*
X1153847Y9942308D01*
X1076924Y9942308D01*
X1000000Y9942308D01*
X1000000Y10019231D01*
X1000000Y10096154D01*
X923077Y10096154D01*
X846154Y10096154D01*
X846154Y10019231D01*
X846154Y9942308D01*
X615385Y9942308D01*
X384616Y9942308D01*
X384616Y10019231D01*
X384616Y10096154D01*
X230770Y10096154D01*
X76924Y10096154D01*
X76924Y10173077D01*
X76924Y10250000D01*
X230770Y10250000D01*
X384616Y10250000D01*
X384616Y10326924D01*
X384616Y10403847D01*
X615385Y10403847D01*
G37*
G36*
X384616Y10480770D02*
G01*
X384616Y10403847D01*
X307693Y10403847D01*
X230770Y10403847D01*
X230770Y10480770D01*
X230770Y10557693D01*
X307693Y10557693D01*
X384616Y10557693D01*
X384616Y10480770D01*
G37*
G36*
X1423077Y9096154D02*
G01*
X1423077Y9019231D01*
X1500000Y9019231D01*
X1576924Y9019231D01*
X1576924Y9096154D01*
X1576924Y9173077D01*
X1653847Y9173077D01*
X1730770Y9173077D01*
X1730770Y9096154D01*
X1730770Y9019231D01*
X1653847Y9019231D01*
X1576924Y9019231D01*
X1576924Y8942308D01*
X1576924Y8865385D01*
X1500000Y8865385D01*
X1423077Y8865385D01*
X1423077Y8942308D01*
X1423077Y9019231D01*
X1365385Y9019231D01*
X1307693Y9019231D01*
X1307693Y9096154D01*
X1307693Y9173077D01*
X1365385Y9173077D01*
X1423077Y9173077D01*
X1423077Y9096154D01*
G37*
G36*
X1576924Y9250000D02*
G01*
X1576924Y9173077D01*
X1500000Y9173077D01*
X1423077Y9173077D01*
X1423077Y9250000D01*
X1423077Y9326924D01*
X1500000Y9326924D01*
X1576924Y9326924D01*
X1576924Y9250000D01*
G37*
G36*
X-1153846Y8942308D02*
G01*
X-1153846Y8865385D01*
X-1288461Y8865385D01*
X-1423076Y8865385D01*
X-1423076Y8942308D01*
X-1423076Y9019231D01*
X-1288461Y9019231D01*
X-1153846Y9019231D01*
X-1153846Y8942308D01*
G37*
G36*
X-1000000Y9096154D02*
G01*
X-1000000Y9019231D01*
X-1076923Y9019231D01*
X-1153846Y9019231D01*
X-1153846Y9096154D01*
X-1153846Y9173077D01*
X-1076923Y9173077D01*
X-1000000Y9173077D01*
X-1000000Y9096154D01*
G37*
G36*
X-846153Y9250000D02*
G01*
X-846153Y9173077D01*
X-923076Y9173077D01*
X-1000000Y9173077D01*
X-1000000Y9250000D01*
X-1000000Y9326924D01*
X-923076Y9326924D01*
X-846153Y9326924D01*
X-846153Y9250000D01*
G37*
G36*
X-846153Y9557693D02*
G01*
X-846153Y9480770D01*
X-769230Y9480770D01*
X-692307Y9480770D01*
X-692307Y9557693D01*
X-692307Y9634616D01*
X-615384Y9634616D01*
X-538461Y9634616D01*
X-538461Y9557693D01*
X-538461Y9480770D01*
X-615384Y9480770D01*
X-692307Y9480770D01*
X-692307Y9403847D01*
X-692307Y9326924D01*
X-769230Y9326924D01*
X-846153Y9326924D01*
X-846153Y9403847D01*
X-846153Y9480770D01*
X-923076Y9480770D01*
X-1000000Y9480770D01*
X-1000000Y9557693D01*
X-1000000Y9634616D01*
X-923076Y9634616D01*
X-846153Y9634616D01*
X-846153Y9557693D01*
G37*
G36*
X1576924Y9865385D02*
G01*
X1576924Y9788462D01*
X1442308Y9788462D01*
X1307693Y9788462D01*
X1307693Y9865385D01*
X1307693Y9942308D01*
X1442308Y9942308D01*
X1576924Y9942308D01*
X1576924Y9865385D01*
G37*
G36*
X-846153Y10173077D02*
G01*
X-846153Y10096154D01*
X-923076Y10096154D01*
X-1000000Y10096154D01*
X-1000000Y10173077D01*
X-1000000Y10250000D01*
X-923076Y10250000D01*
X-846153Y10250000D01*
X-846153Y10173077D01*
G37*
G36*
X76924Y10692308D02*
G01*
X76924Y10557693D01*
X0Y10557693D01*
X-76923Y10557693D01*
X-76923Y10692308D01*
X-76923Y10826924D01*
X0Y10826924D01*
X76924Y10826924D01*
X76924Y10692308D01*
G37*
G36*
X384616Y10750000D02*
G01*
X384616Y10673077D01*
X307693Y10673077D01*
X230770Y10673077D01*
X230770Y10750000D01*
X230770Y10826924D01*
X307693Y10826924D01*
X384616Y10826924D01*
X384616Y10750000D01*
G37*
G36*
X-846153Y10750000D02*
G01*
X-846153Y10673077D01*
X-923076Y10673077D01*
X-1000000Y10673077D01*
X-1000000Y10750000D01*
X-1000000Y10826924D01*
X-923076Y10826924D01*
X-846153Y10826924D01*
X-846153Y10750000D01*
G37*
G36*
X2192308Y11211539D02*
G01*
X2192308Y10980770D01*
X1961539Y10980770D01*
X1730770Y10980770D01*
X1730770Y11211539D01*
X1730770Y11442308D01*
X1961539Y11442308D01*
X2192308Y11442308D01*
X2192308Y11211539D01*
G37*
G36*
X-1730769Y11211539D02*
G01*
X-1730769Y10980770D01*
X-1961538Y10980770D01*
X-2192307Y10980770D01*
X-2192307Y11211539D01*
X-2192307Y11442308D01*
X-1961538Y11442308D01*
X-1730769Y11442308D01*
X-1730769Y11211539D01*
G37*
D14*
%TO.C,H4*%
X13250000Y-10000000D02*
G75*
G02*
X6750000Y-10000000I-3250000J0D01*
G01*
X6750000Y-10000000D02*
G75*
G02*
X13250000Y-10000000I3250000J0D01*
G01*
%TO.C,H1*%
X-6750000Y10000000D02*
G75*
G02*
X-13250000Y10000000I-3250000J0D01*
G01*
X-13250000Y10000000D02*
G75*
G02*
X-6750000Y10000000I3250000J0D01*
G01*
%TO.C,H2*%
X13250000Y10000000D02*
G75*
G02*
X6750000Y10000000I-3250000J0D01*
G01*
X6750000Y10000000D02*
G75*
G02*
X13250000Y10000000I3250000J0D01*
G01*
%TO.C,H3*%
X-6750000Y-10000000D02*
G75*
G02*
X-13250000Y-10000000I-3250000J0D01*
G01*
X-13250000Y-10000000D02*
G75*
G02*
X-6750000Y-10000000I3250000J0D01*
G01*
D15*
%TO.C,J2*%
X-7345000Y6460000D02*
X-8725000Y6460000D01*
X-7345000Y5080000D02*
X-7345000Y6460000D01*
X-7345000Y3810000D02*
X-7345000Y-6460000D01*
X-7345000Y3810000D02*
X-9995000Y3810000D01*
X-7345000Y-6460000D02*
X-12645000Y-6460000D01*
X-9995000Y6460000D02*
X-12645000Y6460000D01*
X-9995000Y3810000D02*
X-9995000Y6460000D01*
X-12645000Y6460000D02*
X-12645000Y-6460000D01*
D13*
%TO.C,G\u002A\u002A\u002A*%
G36*
X6607390Y-159295D02*
G01*
X6764599Y-159306D01*
X6915202Y-159325D01*
X7059214Y-159353D01*
X7196653Y-159388D01*
X7327535Y-159432D01*
X7451878Y-159484D01*
X7569699Y-159544D01*
X7681015Y-159613D01*
X7785842Y-159690D01*
X7884197Y-159775D01*
X7976098Y-159868D01*
X8061561Y-159969D01*
X8140604Y-160079D01*
X8213243Y-160197D01*
X8279495Y-160324D01*
X8339377Y-160459D01*
X8392907Y-160602D01*
X8440101Y-160753D01*
X8480976Y-160913D01*
X8515549Y-161081D01*
X8543836Y-161258D01*
X8565856Y-161443D01*
X8581625Y-161636D01*
X8591160Y-161838D01*
X8594477Y-162049D01*
X8595642Y-163698D01*
X8599414Y-170800D01*
X8604566Y-181747D01*
X8610336Y-194956D01*
X8622766Y-224435D01*
X8333710Y-513841D01*
X8044654Y-803246D01*
X8337428Y-1096020D01*
X8630201Y-1388793D01*
X8630201Y-1415784D01*
X8630201Y-1442775D01*
X8447121Y-1625878D01*
X8264040Y-1808982D01*
X8237036Y-1808982D01*
X8210032Y-1808982D01*
X7917245Y-1516209D01*
X7624457Y-1223435D01*
X7405935Y-1441957D01*
X7187413Y-1660479D01*
X7480186Y-1953267D01*
X7772959Y-2246054D01*
X7772959Y-2273035D01*
X7772959Y-2300016D01*
X7589879Y-2483120D01*
X7406799Y-2666223D01*
X7379795Y-2666223D01*
X7352791Y-2666223D01*
X7060003Y-2373450D01*
X6767215Y-2080677D01*
X6548694Y-2299199D01*
X6330172Y-2517721D01*
X6622945Y-2810508D01*
X6915718Y-3103296D01*
X6915718Y-3130277D01*
X6915718Y-3157258D01*
X6732638Y-3340361D01*
X6549557Y-3523465D01*
X6522553Y-3523465D01*
X6495549Y-3523465D01*
X6202763Y-3230693D01*
X5909977Y-2937922D01*
X5586818Y-3261068D01*
X5263659Y-3584214D01*
X5234984Y-3584214D01*
X5206310Y-3584214D01*
X4883988Y-3261904D01*
X4561665Y-2939595D01*
X4269744Y-3231530D01*
X3977824Y-3523465D01*
X3949059Y-3523465D01*
X3920294Y-3523465D01*
X3737273Y-3340087D01*
X3554251Y-3156709D01*
X3554251Y-3130002D01*
X3554251Y-3103296D01*
X3847024Y-2810508D01*
X4139797Y-2517721D01*
X3921211Y-2299194D01*
X3702624Y-2080666D01*
X3412116Y-2373445D01*
X3121607Y-2666223D01*
X3092400Y-2666261D01*
X3063193Y-2666299D01*
X2880220Y-2481482D01*
X2697247Y-2296664D01*
X2697128Y-2271359D01*
X2697009Y-2246054D01*
X2989779Y-1953270D01*
X3282549Y-1660486D01*
X3064881Y-1442798D01*
X2847213Y-1225110D01*
X2555262Y-1517046D01*
X2263312Y-1808982D01*
X2236331Y-1808982D01*
X2209350Y-1808982D01*
X2024559Y-1624214D01*
X1839768Y-1439446D01*
X1839768Y-1414115D01*
X1839768Y-1388784D01*
X2131703Y-1096864D01*
X2162895Y-1065653D01*
X2198705Y-1029775D01*
X2232918Y-995442D01*
X2265248Y-962949D01*
X2295402Y-932587D01*
X2323094Y-904650D01*
X2348032Y-879430D01*
X2369927Y-857221D01*
X2388491Y-838314D01*
X2403433Y-823002D01*
X2414465Y-811579D01*
X2421296Y-804337D01*
X2423637Y-801569D01*
X2422357Y-799970D01*
X2416679Y-793873D01*
X2406729Y-783522D01*
X2392799Y-769212D01*
X2375181Y-751239D01*
X2354165Y-729898D01*
X2330045Y-705485D01*
X2303113Y-678294D01*
X2273659Y-648620D01*
X2241975Y-616760D01*
X2208355Y-583008D01*
X2173088Y-547660D01*
X2136468Y-511010D01*
X1849299Y-223826D01*
X1862284Y-192068D01*
X1875269Y-160310D01*
X5233159Y-159465D01*
X5320497Y-159443D01*
X5524432Y-159398D01*
X5721641Y-159361D01*
X5912141Y-159331D01*
X6095948Y-159310D01*
X6273081Y-159297D01*
X6443556Y-159292D01*
X6607390Y-159295D01*
G37*
G36*
X7913162Y6000052D02*
G01*
X7946423Y5999545D01*
X7975277Y5998723D01*
X7998616Y5997572D01*
X8067661Y5992158D01*
X8192836Y5977579D01*
X8315016Y5957069D01*
X8434135Y5930651D01*
X8550131Y5898346D01*
X8662939Y5860177D01*
X8772497Y5816167D01*
X8878740Y5766338D01*
X8981605Y5710713D01*
X9081028Y5649314D01*
X9176946Y5582163D01*
X9208104Y5558509D01*
X9297025Y5485407D01*
X9381261Y5407618D01*
X9460673Y5325397D01*
X9535121Y5239003D01*
X9604467Y5148691D01*
X9668571Y5054720D01*
X9727294Y4957345D01*
X9780497Y4856825D01*
X9828041Y4753416D01*
X9869786Y4647376D01*
X9905594Y4538961D01*
X9935325Y4428428D01*
X9958840Y4316035D01*
X9976000Y4202039D01*
X9986665Y4086696D01*
X9986706Y4085777D01*
X9986849Y4078262D01*
X9986988Y4064208D01*
X9987124Y4043773D01*
X9987257Y4017118D01*
X9987387Y3984404D01*
X9987513Y3945791D01*
X9987636Y3901437D01*
X9987755Y3851505D01*
X9987871Y3796154D01*
X9987984Y3735543D01*
X9988094Y3669833D01*
X9988200Y3599185D01*
X9988303Y3523758D01*
X9988403Y3443712D01*
X9988499Y3359208D01*
X9988592Y3270406D01*
X9988682Y3177465D01*
X9988768Y3080547D01*
X9988851Y2979810D01*
X9988930Y2875416D01*
X9989007Y2767523D01*
X9989079Y2656294D01*
X9989149Y2541886D01*
X9989215Y2424462D01*
X9989278Y2304180D01*
X9989337Y2181200D01*
X9989393Y2055684D01*
X9989446Y1927791D01*
X9989495Y1797682D01*
X9989541Y1665515D01*
X9989583Y1531452D01*
X9989622Y1395653D01*
X9989657Y1258277D01*
X9989690Y1119485D01*
X9989718Y979437D01*
X9989744Y838293D01*
X9989766Y696214D01*
X9989784Y553358D01*
X9989799Y409888D01*
X9989811Y265961D01*
X9989819Y121739D01*
X9989824Y-22618D01*
X9989825Y-166950D01*
X9989823Y-311097D01*
X9989817Y-454898D01*
X9989808Y-598195D01*
X9989796Y-740826D01*
X9989780Y-882632D01*
X9989760Y-1023452D01*
X9989737Y-1163127D01*
X9989711Y-1301495D01*
X9989681Y-1438398D01*
X9989648Y-1573674D01*
X9989611Y-1707164D01*
X9989570Y-1838708D01*
X9989527Y-1968146D01*
X9989479Y-2095316D01*
X9989428Y-2220060D01*
X9989374Y-2342218D01*
X9989316Y-2461628D01*
X9989255Y-2578131D01*
X9989190Y-2691568D01*
X9989121Y-2801776D01*
X9989049Y-2908598D01*
X9988974Y-3011872D01*
X9988895Y-3111438D01*
X9988812Y-3207136D01*
X9988726Y-3298807D01*
X9988637Y-3386290D01*
X9988543Y-3469424D01*
X9988447Y-3548050D01*
X9988346Y-3622008D01*
X9988243Y-3691137D01*
X9988135Y-3755278D01*
X9988024Y-3814270D01*
X9987910Y-3867953D01*
X9987791Y-3916167D01*
X9987670Y-3958752D01*
X9987544Y-3995548D01*
X9987415Y-4026394D01*
X9987283Y-4051131D01*
X9987147Y-4069599D01*
X9987007Y-4081636D01*
X9986864Y-4087084D01*
X9977160Y-4191322D01*
X9960253Y-4307703D01*
X9937125Y-4421916D01*
X9907829Y-4533733D01*
X9872421Y-4642926D01*
X9830953Y-4749267D01*
X9821364Y-4771078D01*
X9807937Y-4800070D01*
X9792568Y-4832037D01*
X9776025Y-4865456D01*
X9759072Y-4898801D01*
X9742478Y-4930546D01*
X9727008Y-4959167D01*
X9713428Y-4983138D01*
X9663235Y-5064439D01*
X9597012Y-5160189D01*
X9525709Y-5251593D01*
X9449494Y-5338494D01*
X9368536Y-5420729D01*
X9283004Y-5498140D01*
X9193066Y-5570565D01*
X9098893Y-5637846D01*
X9000651Y-5699821D01*
X8898511Y-5756330D01*
X8830186Y-5790139D01*
X8730538Y-5834236D01*
X8628954Y-5873037D01*
X8524903Y-5906696D01*
X8417848Y-5935364D01*
X8307258Y-5959196D01*
X8192597Y-5978345D01*
X8073332Y-5992963D01*
X8066035Y-5993627D01*
X8044614Y-5995040D01*
X8017778Y-5996259D01*
X7986459Y-5997283D01*
X7951588Y-5998106D01*
X7914099Y-5998727D01*
X7874923Y-5999141D01*
X7834992Y-5999346D01*
X7795239Y-5999337D01*
X7756595Y-5999112D01*
X7719994Y-5998668D01*
X7686366Y-5998000D01*
X7656645Y-5997105D01*
X7631761Y-5995981D01*
X7612649Y-5994623D01*
X7549144Y-5988236D01*
X7419522Y-5971889D01*
X7292769Y-5951235D01*
X7167583Y-5925999D01*
X7042662Y-5895906D01*
X6916705Y-5860679D01*
X6788410Y-5820043D01*
X6762466Y-5811262D01*
X6730347Y-5800141D01*
X6697698Y-5788598D01*
X6665510Y-5776996D01*
X6634774Y-5765701D01*
X6606480Y-5755076D01*
X6581619Y-5745488D01*
X6561182Y-5737300D01*
X6546159Y-5730876D01*
X6542469Y-5728895D01*
X6533001Y-5723665D01*
X6517892Y-5715261D01*
X6497262Y-5703749D01*
X6471233Y-5689200D01*
X6439927Y-5671680D01*
X6403464Y-5651258D01*
X6361967Y-5628003D01*
X6315556Y-5601982D01*
X6264353Y-5573263D01*
X6208480Y-5541916D01*
X6148058Y-5508008D01*
X6083207Y-5471607D01*
X6014051Y-5432782D01*
X5940709Y-5391600D01*
X5863304Y-5348130D01*
X5781957Y-5302441D01*
X5696789Y-5254600D01*
X5607921Y-5204675D01*
X5515476Y-5152736D01*
X5419574Y-5098849D01*
X5320337Y-5043083D01*
X5217887Y-4985507D01*
X5112344Y-4926189D01*
X5003830Y-4865196D01*
X4892466Y-4802597D01*
X4778375Y-4738461D01*
X4661677Y-4672855D01*
X4542493Y-4605847D01*
X4420946Y-4537507D01*
X4297156Y-4467901D01*
X4171245Y-4397099D01*
X4043335Y-4325168D01*
X3913546Y-4252177D01*
X3782001Y-4178194D01*
X3648819Y-4103287D01*
X3514124Y-4027524D01*
X3378037Y-3950974D01*
X230164Y-2180228D01*
X-759725Y-2180228D01*
X-1749613Y-2180228D01*
X-1767322Y-2206729D01*
X-1771371Y-2212641D01*
X-1799910Y-2248027D01*
X-1833614Y-2280730D01*
X-1871281Y-2309805D01*
X-1911708Y-2334306D01*
X-1953695Y-2353290D01*
X-1981105Y-2362735D01*
X-2007279Y-2369644D01*
X-2033630Y-2374104D01*
X-2062304Y-2376476D01*
X-2095443Y-2377119D01*
X-2100009Y-2377103D01*
X-2120600Y-2376898D01*
X-2136592Y-2376341D01*
X-2149792Y-2375232D01*
X-2162006Y-2373371D01*
X-2175043Y-2370559D01*
X-2190709Y-2366596D01*
X-2205203Y-2362532D01*
X-2254424Y-2344431D01*
X-2299980Y-2320814D01*
X-2341570Y-2291979D01*
X-2378893Y-2258224D01*
X-2411649Y-2219847D01*
X-2439536Y-2177147D01*
X-2462254Y-2130422D01*
X-2479503Y-2079971D01*
X-2488627Y-2046917D01*
X-2488627Y-1687D01*
X-2488627Y1781983D01*
X-1697197Y1781983D01*
X-1697197Y1D01*
X-1697197Y-1781982D01*
X-706358Y-1781982D01*
X284482Y-1781982D01*
X332288Y-1794511D01*
X337473Y-1795876D01*
X353025Y-1800140D01*
X366081Y-1804187D01*
X378030Y-1808618D01*
X390260Y-1814033D01*
X404161Y-1821035D01*
X421122Y-1830224D01*
X442532Y-1842199D01*
X448227Y-1845406D01*
X461093Y-1852647D01*
X479603Y-1863064D01*
X503619Y-1876578D01*
X533004Y-1893112D01*
X567618Y-1912589D01*
X607324Y-1934930D01*
X651983Y-1960057D01*
X701457Y-1987893D01*
X755607Y-2018360D01*
X814295Y-2051380D01*
X877383Y-2086875D01*
X944733Y-2124768D01*
X1016205Y-2164980D01*
X1091662Y-2207434D01*
X1170966Y-2252051D01*
X1253978Y-2298755D01*
X1340559Y-2347467D01*
X1430572Y-2398109D01*
X1523878Y-2450604D01*
X1620339Y-2504873D01*
X1719816Y-2560840D01*
X1822171Y-2618425D01*
X1927266Y-2677552D01*
X2034962Y-2738142D01*
X2145121Y-2800118D01*
X2257605Y-2863402D01*
X2372276Y-2927915D01*
X2488994Y-2993581D01*
X2607622Y-3060320D01*
X2728021Y-3128057D01*
X2850054Y-3196712D01*
X2973581Y-3266207D01*
X3098464Y-3336466D01*
X3224566Y-3407409D01*
X3351747Y-3478960D01*
X3479869Y-3551041D01*
X3608795Y-3623573D01*
X3738385Y-3696479D01*
X3868501Y-3769681D01*
X3999006Y-3843101D01*
X4129760Y-3916661D01*
X4260625Y-3990284D01*
X4391463Y-4063892D01*
X4522136Y-4137406D01*
X4652505Y-4210750D01*
X4782433Y-4283844D01*
X4911779Y-4356612D01*
X4911796Y-4356621D01*
X5053903Y-4436559D01*
X5190149Y-4513183D01*
X5320548Y-4586500D01*
X5445114Y-4656519D01*
X5563863Y-4723248D01*
X5676809Y-4786695D01*
X5783965Y-4846867D01*
X5885347Y-4903774D01*
X5980969Y-4957423D01*
X6070845Y-5007823D01*
X6154990Y-5054980D01*
X6233418Y-5098904D01*
X6306144Y-5139603D01*
X6373182Y-5177084D01*
X6434546Y-5211355D01*
X6490252Y-5242426D01*
X6540312Y-5270303D01*
X6584743Y-5294995D01*
X6623558Y-5316510D01*
X6656771Y-5334856D01*
X6684398Y-5350041D01*
X6706452Y-5362074D01*
X6722948Y-5370961D01*
X6733900Y-5376712D01*
X6739324Y-5379335D01*
X6806323Y-5404899D01*
X6878868Y-5430504D01*
X6954781Y-5455441D01*
X7032370Y-5479190D01*
X7109945Y-5501234D01*
X7185811Y-5521055D01*
X7258277Y-5538135D01*
X7308408Y-5548794D01*
X7434300Y-5571645D01*
X7558274Y-5588497D01*
X7680201Y-5599358D01*
X7799948Y-5604234D01*
X7917387Y-5603131D01*
X8032387Y-5596057D01*
X8144817Y-5583019D01*
X8254547Y-5564021D01*
X8361447Y-5539072D01*
X8465386Y-5508179D01*
X8566235Y-5471346D01*
X8622673Y-5447558D01*
X8718126Y-5401729D01*
X8809697Y-5350449D01*
X8897270Y-5293794D01*
X8980731Y-5231841D01*
X9059962Y-5164666D01*
X9134850Y-5092348D01*
X9200550Y-5020365D01*
X9265005Y-4940164D01*
X9324157Y-4856088D01*
X9377857Y-4768469D01*
X9425956Y-4677640D01*
X9468304Y-4583934D01*
X9504751Y-4487683D01*
X9535148Y-4389219D01*
X9559344Y-4288876D01*
X9577192Y-4186984D01*
X9588540Y-4083878D01*
X9588679Y-4080689D01*
X9588869Y-4071429D01*
X9589053Y-4056578D01*
X9589230Y-4036102D01*
X9589401Y-4009968D01*
X9589564Y-3978143D01*
X9589722Y-3940595D01*
X9589872Y-3897289D01*
X9590017Y-3848194D01*
X9590154Y-3793275D01*
X9590286Y-3732500D01*
X9590410Y-3665835D01*
X9590529Y-3593248D01*
X9590641Y-3514706D01*
X9590746Y-3430174D01*
X9590845Y-3339621D01*
X9590938Y-3243013D01*
X9591025Y-3140317D01*
X9591105Y-3031500D01*
X9591179Y-2916529D01*
X9591246Y-2795370D01*
X9591308Y-2667991D01*
X9591363Y-2534359D01*
X9591412Y-2394440D01*
X9591455Y-2248201D01*
X9591492Y-2095610D01*
X9591523Y-1936633D01*
X9591547Y-1771237D01*
X9591566Y-1599388D01*
X9591578Y-1421055D01*
X9591585Y-1236203D01*
X9591585Y-1044800D01*
X9591580Y-846813D01*
X9591569Y-642207D01*
X9591551Y-430952D01*
X9591528Y-213012D01*
X9591499Y11644D01*
X9591494Y50660D01*
X9591469Y215623D01*
X9591443Y378947D01*
X9591416Y540498D01*
X9591386Y700148D01*
X9591356Y857763D01*
X9591324Y1013215D01*
X9591291Y1166371D01*
X9591256Y1317100D01*
X9591220Y1465272D01*
X9591183Y1610756D01*
X9591145Y1753419D01*
X9591106Y1893133D01*
X9591066Y2029765D01*
X9591025Y2163184D01*
X9590983Y2293260D01*
X9590940Y2419861D01*
X9590897Y2542856D01*
X9590853Y2662115D01*
X9590808Y2777506D01*
X9590762Y2888899D01*
X9590716Y2996162D01*
X9590669Y3099164D01*
X9590622Y3197774D01*
X9590575Y3291862D01*
X9590527Y3381296D01*
X9590478Y3465946D01*
X9590430Y3545679D01*
X9590382Y3620366D01*
X9590333Y3689875D01*
X9590284Y3754076D01*
X9590235Y3812836D01*
X9590187Y3866026D01*
X9590138Y3913514D01*
X9590089Y3955169D01*
X9590041Y3990860D01*
X9589993Y4020457D01*
X9589945Y4043827D01*
X9589898Y4060841D01*
X9589851Y4071366D01*
X9589804Y4075273D01*
X9585172Y4123847D01*
X9572980Y4215501D01*
X9556358Y4303902D01*
X9534963Y4390538D01*
X9508449Y4476898D01*
X9476471Y4564473D01*
X9445706Y4637295D01*
X9400718Y4728631D01*
X9349982Y4816799D01*
X9293749Y4901530D01*
X9232265Y4982559D01*
X9165780Y5059618D01*
X9094543Y5132441D01*
X9018801Y5200761D01*
X8938803Y5264312D01*
X8854799Y5322827D01*
X8767036Y5376039D01*
X8675763Y5423681D01*
X8652034Y5434888D01*
X8552778Y5477141D01*
X8450567Y5513387D01*
X8345503Y5543625D01*
X8237685Y5567854D01*
X8127216Y5586073D01*
X8014196Y5598281D01*
X7898725Y5604478D01*
X7780905Y5604663D01*
X7660836Y5598836D01*
X7538619Y5586994D01*
X7414355Y5569138D01*
X7288145Y5545267D01*
X7160089Y5515380D01*
X7030288Y5479476D01*
X6898843Y5437554D01*
X6888020Y5433869D01*
X6848164Y5420135D01*
X6813675Y5407917D01*
X6783678Y5396853D01*
X6757300Y5386584D01*
X6733666Y5376748D01*
X6711903Y5366986D01*
X6691136Y5356936D01*
X6670492Y5346238D01*
X6649096Y5334532D01*
X6648534Y5334218D01*
X6641443Y5330241D01*
X6628645Y5323052D01*
X6610291Y5312737D01*
X6586534Y5299381D01*
X6557525Y5283071D01*
X6523418Y5263891D01*
X6484364Y5241928D01*
X6440516Y5217267D01*
X6392025Y5189993D01*
X6339044Y5160193D01*
X6281725Y5127952D01*
X6220221Y5093355D01*
X6154683Y5056488D01*
X6085263Y5017436D01*
X6012114Y4976286D01*
X5935388Y4933123D01*
X5855238Y4888033D01*
X5771814Y4841101D01*
X5685271Y4792412D01*
X5595758Y4742053D01*
X5503430Y4690109D01*
X5408438Y4636665D01*
X5310934Y4581807D01*
X5211071Y4525622D01*
X5109000Y4468194D01*
X5004874Y4409609D01*
X4898845Y4349952D01*
X4791065Y4289310D01*
X4681686Y4227768D01*
X4570861Y4165411D01*
X4458742Y4102325D01*
X4385188Y4060939D01*
X4265083Y3993359D01*
X4143839Y3925139D01*
X4021705Y3856419D01*
X3898934Y3787340D01*
X3775776Y3718043D01*
X3652482Y3648670D01*
X3529302Y3579361D01*
X3406488Y3510258D01*
X3284290Y3441502D01*
X3162958Y3373233D01*
X3042744Y3305594D01*
X2923899Y3238724D01*
X2806673Y3172766D01*
X2691317Y3107860D01*
X2578082Y3044148D01*
X2467218Y2981770D01*
X2358977Y2920867D01*
X2253609Y2861581D01*
X2151365Y2804053D01*
X2052495Y2748424D01*
X1957252Y2694835D01*
X1865884Y2643428D01*
X1778644Y2594342D01*
X1695782Y2547720D01*
X1617548Y2503702D01*
X1544194Y2462430D01*
X1475970Y2424044D01*
X1413127Y2388687D01*
X1355916Y2356498D01*
X381006Y1807984D01*
X332238Y1794984D01*
X283469Y1781983D01*
X-706864Y1781983D01*
X-1697197Y1781983D01*
X-2488627Y1781983D01*
X-2488627Y2043543D01*
X-2480849Y2072230D01*
X-2476610Y2087017D01*
X-2458011Y2138049D01*
X-2434458Y2184520D01*
X-2405882Y2226521D01*
X-2372216Y2264141D01*
X-2333391Y2297472D01*
X-2289339Y2326604D01*
X-2255987Y2343768D01*
X-2209731Y2361187D01*
X-2161852Y2372473D01*
X-2112986Y2377647D01*
X-2063768Y2376732D01*
X-2014832Y2369747D01*
X-1966814Y2356716D01*
X-1920348Y2337659D01*
X-1876071Y2312598D01*
X-1873015Y2310556D01*
X-1854273Y2296459D01*
X-1833880Y2278919D01*
X-1813293Y2259369D01*
X-1793965Y2239244D01*
X-1777353Y2219980D01*
X-1764912Y2203010D01*
X-1750257Y2180229D01*
X-759625Y2180229D01*
X231008Y2180229D01*
X3383521Y3953371D01*
X3433393Y3981422D01*
X3596206Y4072999D01*
X3753273Y4161346D01*
X3904700Y4246523D01*
X4050595Y4328589D01*
X4191063Y4407602D01*
X4326211Y4483622D01*
X4456147Y4556708D01*
X4580976Y4626919D01*
X4700805Y4694313D01*
X4815741Y4758951D01*
X4925891Y4820891D01*
X5031360Y4880193D01*
X5132257Y4936915D01*
X5228686Y4991116D01*
X5320756Y5042856D01*
X5408572Y5092194D01*
X5492241Y5139189D01*
X5571870Y5183899D01*
X5647565Y5226384D01*
X5719433Y5266704D01*
X5787581Y5304917D01*
X5852116Y5341081D01*
X5913143Y5375258D01*
X5970769Y5407504D01*
X6025102Y5437881D01*
X6076247Y5466446D01*
X6124312Y5493258D01*
X6169402Y5518378D01*
X6211626Y5541863D01*
X6251088Y5563774D01*
X6287896Y5584168D01*
X6322157Y5603106D01*
X6353977Y5620646D01*
X6383462Y5636847D01*
X6410720Y5651769D01*
X6435856Y5665471D01*
X6458979Y5678011D01*
X6480193Y5689449D01*
X6499606Y5699844D01*
X6517324Y5709255D01*
X6533455Y5717741D01*
X6548104Y5725361D01*
X6561378Y5732174D01*
X6573384Y5738240D01*
X6584229Y5743617D01*
X6594018Y5748364D01*
X6602860Y5752541D01*
X6610860Y5756207D01*
X6618124Y5759421D01*
X6624761Y5762242D01*
X6630875Y5764728D01*
X6636574Y5766940D01*
X6641965Y5768936D01*
X6647154Y5770775D01*
X6652247Y5772517D01*
X6657352Y5774220D01*
X6662575Y5775943D01*
X6668022Y5777747D01*
X6673800Y5779689D01*
X6680016Y5781828D01*
X6686776Y5784225D01*
X6700534Y5789155D01*
X6832444Y5833924D01*
X6961730Y5873145D01*
X7089210Y5907006D01*
X7215704Y5935694D01*
X7342031Y5959397D01*
X7469010Y5978302D01*
X7597461Y5992597D01*
X7598560Y5992698D01*
X7621562Y5994409D01*
X7650141Y5995929D01*
X7683187Y5997244D01*
X7719591Y5998340D01*
X7758244Y5999203D01*
X7780905Y5999554D01*
X7798037Y5999819D01*
X7837860Y6000176D01*
X7876605Y6000258D01*
X7913162Y6000052D01*
G37*
G36*
X4423956Y3806925D02*
G01*
X4426599Y3806171D01*
X4429829Y3804562D01*
X4433968Y3801792D01*
X4439334Y3797559D01*
X4446247Y3791560D01*
X4455027Y3783491D01*
X4465994Y3773049D01*
X4479468Y3759930D01*
X4495769Y3743831D01*
X4515216Y3724449D01*
X4538129Y3701481D01*
X4564829Y3674622D01*
X4595634Y3643570D01*
X4630865Y3608021D01*
X4828301Y3408758D01*
X4932843Y3150650D01*
X5037386Y2892543D01*
X5084717Y2894976D01*
X5094492Y2895405D01*
X5116388Y2896062D01*
X5143149Y2896588D01*
X5173572Y2896980D01*
X5206456Y2897235D01*
X5240596Y2897350D01*
X5274791Y2897322D01*
X5307838Y2897148D01*
X5338533Y2896826D01*
X5365675Y2896351D01*
X5388059Y2895722D01*
X5434822Y2894035D01*
X5523857Y3113407D01*
X5532120Y3133764D01*
X5547256Y3171045D01*
X5561887Y3207070D01*
X5575758Y3241215D01*
X5588617Y3272854D01*
X5600208Y3301362D01*
X5610278Y3326115D01*
X5618572Y3346487D01*
X5624838Y3361855D01*
X5628819Y3371592D01*
X5644747Y3410404D01*
X5836793Y3604465D01*
X5849377Y3617174D01*
X5878819Y3646854D01*
X5906854Y3675042D01*
X5933113Y3701369D01*
X5957224Y3725467D01*
X5978818Y3746968D01*
X5997523Y3765503D01*
X6012971Y3780704D01*
X6024791Y3792204D01*
X6032612Y3799634D01*
X6036064Y3802625D01*
X6042862Y3805264D01*
X6052803Y3806843D01*
X6052959Y3806843D01*
X6059046Y3805898D01*
X6070670Y3803355D01*
X6086968Y3799447D01*
X6107078Y3794406D01*
X6130136Y3788466D01*
X6155280Y3781861D01*
X6181648Y3774824D01*
X6208376Y3767589D01*
X6234603Y3760388D01*
X6259465Y3753456D01*
X6282099Y3747026D01*
X6301645Y3741331D01*
X6317237Y3736605D01*
X6328015Y3733081D01*
X6333115Y3730992D01*
X6339219Y3725387D01*
X6344842Y3716518D01*
X6345679Y3713925D01*
X6348252Y3704979D01*
X6352203Y3690679D01*
X6357339Y3671742D01*
X6363467Y3648885D01*
X6370395Y3622825D01*
X6377930Y3594280D01*
X6385878Y3563965D01*
X6395099Y3528703D01*
X6405275Y3489820D01*
X6415833Y3449504D01*
X6426356Y3409348D01*
X6436427Y3370945D01*
X6445629Y3335888D01*
X6453543Y3305769D01*
X6459401Y3283293D01*
X6466001Y3257447D01*
X6471849Y3233978D01*
X6476744Y3213714D01*
X6480488Y3197484D01*
X6482880Y3186116D01*
X6483722Y3180438D01*
X6483544Y3177539D01*
X6482562Y3167994D01*
X6480818Y3153189D01*
X6478422Y3134004D01*
X6475486Y3111317D01*
X6472119Y3086006D01*
X6468433Y3058950D01*
X6467161Y3049721D01*
X6462520Y3016026D01*
X6457313Y2978206D01*
X6451812Y2938219D01*
X6446284Y2898024D01*
X6440999Y2859581D01*
X6436228Y2824848D01*
X6430576Y2783783D01*
X6425626Y2748059D01*
X6421435Y2718122D01*
X6417936Y2693516D01*
X6415060Y2673785D01*
X6412741Y2658473D01*
X6410909Y2647123D01*
X6409498Y2639279D01*
X6408441Y2634485D01*
X6407668Y2632285D01*
X6408415Y2629995D01*
X6413643Y2627309D01*
X6420850Y2624578D01*
X6434353Y2618342D01*
X6452269Y2609325D01*
X6473862Y2597947D01*
X6498393Y2584625D01*
X6525126Y2569776D01*
X6553323Y2553819D01*
X6582248Y2537172D01*
X6611162Y2520253D01*
X6639328Y2503479D01*
X6666010Y2487269D01*
X6690470Y2472039D01*
X6711971Y2458209D01*
X6752909Y2431316D01*
X6760963Y2438240D01*
X6761643Y2438803D01*
X6767138Y2443182D01*
X6777405Y2451272D01*
X6792025Y2462744D01*
X6810577Y2477271D01*
X6832641Y2494523D01*
X6857797Y2514172D01*
X6885624Y2535890D01*
X6915701Y2559347D01*
X6947610Y2584215D01*
X6980928Y2610167D01*
X7192840Y2775169D01*
X7456579Y2847258D01*
X7473842Y2851971D01*
X7514284Y2862964D01*
X7552801Y2873368D01*
X7588884Y2883050D01*
X7622025Y2891876D01*
X7651712Y2899712D01*
X7677439Y2906423D01*
X7698695Y2911876D01*
X7714971Y2915937D01*
X7725758Y2918472D01*
X7730547Y2919347D01*
X7733166Y2918967D01*
X7736823Y2917405D01*
X7741676Y2914252D01*
X7748170Y2909106D01*
X7756744Y2901565D01*
X7767842Y2891224D01*
X7781906Y2877682D01*
X7799376Y2860536D01*
X7820695Y2839383D01*
X7846305Y2813819D01*
X7863183Y2796930D01*
X7885605Y2774426D01*
X7903912Y2755916D01*
X7918518Y2740941D01*
X7929836Y2729043D01*
X7938279Y2719762D01*
X7944260Y2712639D01*
X7948193Y2707214D01*
X7950491Y2703028D01*
X7951566Y2699622D01*
X7951833Y2696537D01*
X7951691Y2695277D01*
X7950138Y2687786D01*
X7946979Y2674506D01*
X7942350Y2655950D01*
X7936384Y2632633D01*
X7929214Y2605068D01*
X7920977Y2573768D01*
X7911804Y2539247D01*
X7901831Y2502019D01*
X7891191Y2462596D01*
X7880019Y2421493D01*
X7808206Y2158202D01*
X7649942Y1954061D01*
X7648046Y1951615D01*
X7622529Y1918716D01*
X7597972Y1887083D01*
X7574730Y1857167D01*
X7553152Y1829420D01*
X7533593Y1804296D01*
X7516405Y1782246D01*
X7501939Y1763724D01*
X7490549Y1749181D01*
X7482587Y1739070D01*
X7478405Y1733843D01*
X7465131Y1717766D01*
X7492123Y1676469D01*
X7498978Y1665921D01*
X7537032Y1605195D01*
X7573987Y1542666D01*
X7608592Y1480499D01*
X7639599Y1420862D01*
X7643685Y1412695D01*
X7651195Y1397767D01*
X7657346Y1385653D01*
X7661589Y1377429D01*
X7663376Y1374174D01*
X7664058Y1374183D01*
X7670202Y1374843D01*
X7682314Y1376341D01*
X7699894Y1378610D01*
X7722441Y1381584D01*
X7749455Y1385195D01*
X7780434Y1389375D01*
X7814877Y1394059D01*
X7852284Y1399178D01*
X7892154Y1404666D01*
X7933987Y1410455D01*
X7950654Y1412765D01*
X7992117Y1418488D01*
X8031604Y1423906D01*
X8068591Y1428949D01*
X8102556Y1433547D01*
X8132976Y1437629D01*
X8159327Y1441126D01*
X8181086Y1443968D01*
X8197729Y1446084D01*
X8208734Y1447405D01*
X8213578Y1447861D01*
X8214702Y1447729D01*
X8221893Y1446237D01*
X8234895Y1443193D01*
X8253197Y1438726D01*
X8276289Y1432965D01*
X8303659Y1426041D01*
X8334796Y1418084D01*
X8369190Y1409222D01*
X8406329Y1399585D01*
X8445701Y1389304D01*
X8486797Y1378508D01*
X8524769Y1368492D01*
X8568774Y1356845D01*
X8606961Y1346678D01*
X8639739Y1337877D01*
X8667514Y1330323D01*
X8690694Y1323902D01*
X8709684Y1318496D01*
X8724893Y1313990D01*
X8736726Y1310267D01*
X8745592Y1307211D01*
X8751896Y1304706D01*
X8756047Y1302635D01*
X8758450Y1300882D01*
X8760442Y1298445D01*
X8763059Y1293776D01*
X8766071Y1286674D01*
X8769666Y1276552D01*
X8774026Y1262825D01*
X8779336Y1244906D01*
X8785782Y1222210D01*
X8793548Y1194151D01*
X8802819Y1160143D01*
X8805648Y1149687D01*
X8813306Y1121123D01*
X8820324Y1094572D01*
X8826510Y1070783D01*
X8831671Y1050505D01*
X8835618Y1034487D01*
X8838158Y1023478D01*
X8839099Y1018229D01*
X8838115Y1009692D01*
X8834612Y999667D01*
X8833880Y998659D01*
X8828870Y993052D01*
X8819571Y983245D01*
X8806351Y969612D01*
X8789582Y952526D01*
X8769633Y932361D01*
X8746877Y909491D01*
X8721682Y884291D01*
X8694420Y857133D01*
X8665462Y828392D01*
X8635177Y798441D01*
X8440577Y606329D01*
X8193674Y505675D01*
X8182789Y501239D01*
X8144176Y485514D01*
X8107313Y470522D01*
X8072699Y456466D01*
X8040835Y443546D01*
X8012220Y431966D01*
X7987353Y421928D01*
X7966736Y413633D01*
X7950868Y407284D01*
X7940249Y403083D01*
X7935379Y401233D01*
X7923988Y397444D01*
X7926154Y380127D01*
X7926621Y375070D01*
X7927379Y362864D01*
X7928192Y345879D01*
X7929013Y325279D01*
X7929792Y302225D01*
X7930480Y277880D01*
X7930962Y257774D01*
X7931373Y233149D01*
X7931325Y213914D01*
X7930709Y199259D01*
X7929412Y188376D01*
X7927325Y180455D01*
X7924336Y174688D01*
X7920335Y170267D01*
X7915211Y166382D01*
X7914539Y165957D01*
X7912667Y165065D01*
X7910006Y164270D01*
X7906183Y163565D01*
X7900827Y162942D01*
X7893565Y162397D01*
X7884023Y161921D01*
X7871830Y161508D01*
X7856613Y161153D01*
X7837999Y160847D01*
X7815615Y160585D01*
X7789090Y160359D01*
X7758050Y160164D01*
X7722123Y159993D01*
X7680937Y159838D01*
X7634118Y159694D01*
X7581295Y159554D01*
X7522094Y159412D01*
X7473426Y159312D01*
X7408920Y159234D01*
X7351100Y159233D01*
X7299932Y159309D01*
X7255376Y159463D01*
X7217397Y159694D01*
X7185958Y160004D01*
X7161022Y160391D01*
X7142551Y160858D01*
X7130510Y161403D01*
X7124861Y162027D01*
X7119757Y163517D01*
X7113146Y166266D01*
X7108000Y170223D01*
X7104085Y176179D01*
X7101165Y184927D01*
X7099007Y197256D01*
X7097375Y213959D01*
X7096036Y235827D01*
X7094756Y263652D01*
X7092700Y305463D01*
X7088879Y361741D01*
X7083863Y414283D01*
X7077419Y464847D01*
X7069314Y515191D01*
X7059313Y567073D01*
X7047185Y622249D01*
X7022679Y716730D01*
X6988981Y821813D01*
X6949188Y924429D01*
X6903486Y1024310D01*
X6852060Y1121191D01*
X6795096Y1214805D01*
X6732780Y1304885D01*
X6665296Y1391166D01*
X6592831Y1473381D01*
X6515570Y1551263D01*
X6433698Y1624548D01*
X6347402Y1692967D01*
X6256867Y1756256D01*
X6231263Y1772744D01*
X6135687Y1829474D01*
X6037955Y1879974D01*
X5937871Y1924310D01*
X5835239Y1962552D01*
X5729862Y1994768D01*
X5621543Y2021026D01*
X5510086Y2041395D01*
X5395295Y2055942D01*
X5378244Y2057317D01*
X5351798Y2058684D01*
X5320842Y2059663D01*
X5286615Y2060261D01*
X5250355Y2060482D01*
X5213301Y2060334D01*
X5176693Y2059822D01*
X5141768Y2058953D01*
X5109767Y2057733D01*
X5081926Y2056168D01*
X5059486Y2054265D01*
X4979779Y2044356D01*
X4890949Y2029696D01*
X4805181Y2011416D01*
X4720878Y1989212D01*
X4651603Y1967760D01*
X4547615Y1929881D01*
X4446806Y1886239D01*
X4349355Y1837043D01*
X4255443Y1782500D01*
X4165250Y1722817D01*
X4078957Y1658201D01*
X3996745Y1588860D01*
X3918793Y1515002D01*
X3845282Y1436833D01*
X3776392Y1354562D01*
X3712304Y1268396D01*
X3653198Y1178541D01*
X3599255Y1085206D01*
X3550655Y988598D01*
X3507578Y888924D01*
X3470205Y786392D01*
X3438717Y681210D01*
X3413292Y573583D01*
X3394113Y463721D01*
X3388758Y424535D01*
X3384346Y386460D01*
X3381342Y351853D01*
X3379635Y319101D01*
X3379116Y286592D01*
X3379673Y252713D01*
X3380220Y233464D01*
X3380563Y216037D01*
X3380513Y203383D01*
X3380001Y194431D01*
X3378961Y188113D01*
X3377324Y183361D01*
X3375025Y179104D01*
X3374867Y178843D01*
X3373125Y175790D01*
X3371523Y173057D01*
X3369698Y170628D01*
X3367288Y168486D01*
X3363930Y166614D01*
X3359262Y164995D01*
X3352920Y163612D01*
X3344543Y162448D01*
X3333767Y161486D01*
X3320230Y160710D01*
X3303569Y160102D01*
X3283422Y159645D01*
X3259426Y159323D01*
X3231218Y159119D01*
X3198437Y159015D01*
X3160718Y158995D01*
X3117700Y159041D01*
X3069020Y159138D01*
X3014315Y159267D01*
X2953223Y159413D01*
X2561491Y160311D01*
X2549417Y173488D01*
X2537342Y186664D01*
X2539602Y264612D01*
X2539865Y273422D01*
X2540662Y297584D01*
X2541526Y320706D01*
X2542397Y341360D01*
X2543217Y358120D01*
X2543927Y369559D01*
X2545993Y396559D01*
X2288223Y501088D01*
X2030454Y605617D01*
X1830487Y804770D01*
X1802155Y833020D01*
X1765153Y870041D01*
X1732848Y902531D01*
X1705149Y930583D01*
X1681963Y954293D01*
X1663198Y973756D01*
X1648764Y989066D01*
X1638567Y1000317D01*
X1632516Y1007606D01*
X1630520Y1011026D01*
X1630747Y1012662D01*
X1632431Y1020418D01*
X1635602Y1033605D01*
X1640079Y1051505D01*
X1645678Y1073399D01*
X1652218Y1098571D01*
X1659514Y1126304D01*
X1667385Y1155878D01*
X1672553Y1175139D01*
X1681250Y1207216D01*
X1688546Y1233567D01*
X1694604Y1254729D01*
X1699590Y1271238D01*
X1703669Y1283632D01*
X1707006Y1292448D01*
X1709766Y1298222D01*
X1712114Y1301492D01*
X1712779Y1302068D01*
X1715933Y1303930D01*
X1721291Y1306239D01*
X1729247Y1309108D01*
X1740194Y1312648D01*
X1754528Y1316971D01*
X1772640Y1322191D01*
X1794927Y1328418D01*
X1821780Y1335766D01*
X1853595Y1344347D01*
X1890766Y1354273D01*
X1933686Y1365656D01*
X1982748Y1378609D01*
X1998065Y1382639D01*
X2038695Y1393269D01*
X2077496Y1403333D01*
X2113947Y1412701D01*
X2147526Y1421242D01*
X2177711Y1428827D01*
X2203981Y1435324D01*
X2225815Y1440602D01*
X2242691Y1444533D01*
X2254088Y1446985D01*
X2259485Y1447828D01*
X2260527Y1447779D01*
X2268021Y1447032D01*
X2281493Y1445440D01*
X2300406Y1443072D01*
X2324223Y1439999D01*
X2352409Y1436294D01*
X2384425Y1432025D01*
X2419736Y1427266D01*
X2457806Y1422085D01*
X2498097Y1416555D01*
X2540073Y1410745D01*
X2555848Y1408558D01*
X2596758Y1402928D01*
X2635511Y1397657D01*
X2671606Y1392809D01*
X2704537Y1388450D01*
X2733803Y1384643D01*
X2758901Y1381455D01*
X2779327Y1378950D01*
X2794579Y1377194D01*
X2804152Y1376251D01*
X2807546Y1376186D01*
X2808652Y1378469D01*
X2812556Y1386075D01*
X2818845Y1398160D01*
X2827082Y1413887D01*
X2836830Y1432421D01*
X2847653Y1452924D01*
X2858357Y1472946D01*
X2882737Y1517160D01*
X2908434Y1562089D01*
X2934437Y1606011D01*
X2959735Y1647203D01*
X2983317Y1683943D01*
X2990872Y1695468D01*
X2997920Y1706650D01*
X3001970Y1714087D01*
X3003471Y1718830D01*
X3002872Y1721931D01*
X3000623Y1724443D01*
X2999594Y1725568D01*
X2994662Y1731561D01*
X2986193Y1742154D01*
X2974570Y1756852D01*
X2960178Y1775160D01*
X2943401Y1796583D01*
X2924622Y1820624D01*
X2904227Y1846789D01*
X2882598Y1874581D01*
X2860121Y1903507D01*
X2837179Y1933069D01*
X2814156Y1962774D01*
X2791437Y1992124D01*
X2769405Y2020626D01*
X2748445Y2047783D01*
X2728940Y2073100D01*
X2711276Y2096082D01*
X2695836Y2116233D01*
X2683003Y2133059D01*
X2673163Y2146062D01*
X2666699Y2154748D01*
X2663996Y2158622D01*
X2663450Y2160109D01*
X2661157Y2167611D01*
X2657312Y2180866D01*
X2652053Y2199378D01*
X2645517Y2222654D01*
X2637843Y2250197D01*
X2629167Y2281515D01*
X2619628Y2316111D01*
X2609363Y2353490D01*
X2598510Y2393159D01*
X2587206Y2434623D01*
X2513842Y2704204D01*
X2621565Y2811775D01*
X2636020Y2826202D01*
X2659325Y2849393D01*
X2678573Y2868415D01*
X2694215Y2883676D01*
X2706701Y2895581D01*
X2716482Y2904539D01*
X2724008Y2910955D01*
X2729728Y2915237D01*
X2734092Y2917791D01*
X2737552Y2919026D01*
X2740557Y2919347D01*
X2741901Y2919156D01*
X2749274Y2917518D01*
X2762272Y2914333D01*
X2780289Y2909766D01*
X2802720Y2903977D01*
X2828963Y2897129D01*
X2858410Y2889383D01*
X2890459Y2880902D01*
X2924505Y2871848D01*
X2959942Y2862382D01*
X2996167Y2852667D01*
X3032574Y2842865D01*
X3068559Y2833137D01*
X3103517Y2823646D01*
X3136844Y2814554D01*
X3167935Y2806023D01*
X3196186Y2798214D01*
X3220992Y2791290D01*
X3241747Y2785412D01*
X3257849Y2780743D01*
X3261379Y2779628D01*
X3266033Y2777855D01*
X3271185Y2775431D01*
X3277236Y2772065D01*
X3284588Y2767463D01*
X3293642Y2761332D01*
X3304800Y2753382D01*
X3318462Y2743318D01*
X3335032Y2730850D01*
X3354910Y2715683D01*
X3378498Y2697527D01*
X3406197Y2676088D01*
X3438408Y2651074D01*
X3475534Y2622192D01*
X3501815Y2601727D01*
X3533494Y2577034D01*
X3563743Y2553430D01*
X3592075Y2531294D01*
X3618002Y2511010D01*
X3641037Y2492959D01*
X3660691Y2477523D01*
X3676479Y2465084D01*
X3687911Y2456023D01*
X3694501Y2450722D01*
X3718315Y2431146D01*
X3735001Y2442540D01*
X3761542Y2460276D01*
X3807496Y2489540D01*
X3856751Y2519373D01*
X3907454Y2548688D01*
X3957749Y2576396D01*
X4005782Y2601410D01*
X4016854Y2607005D01*
X4034417Y2616049D01*
X4047005Y2622884D01*
X4055355Y2627979D01*
X4060204Y2631806D01*
X4062287Y2634835D01*
X4062341Y2637537D01*
X4062147Y2638540D01*
X4061057Y2645474D01*
X4059149Y2658367D01*
X4056495Y2676706D01*
X4053169Y2699974D01*
X4049243Y2727658D01*
X4044791Y2759242D01*
X4039885Y2794211D01*
X4034598Y2832051D01*
X4029003Y2872247D01*
X4023173Y2914284D01*
X4021894Y2923522D01*
X4015071Y2973010D01*
X4009154Y3016289D01*
X4004095Y3053761D01*
X3999847Y3085829D01*
X3996359Y3112895D01*
X3993584Y3135362D01*
X3991473Y3153631D01*
X3989978Y3168104D01*
X3989050Y3179185D01*
X3988640Y3187276D01*
X3988701Y3192778D01*
X3989183Y3196094D01*
X3989306Y3196535D01*
X3990975Y3202728D01*
X3994188Y3214830D01*
X3998807Y3232313D01*
X4004693Y3254650D01*
X4011708Y3281312D01*
X4019712Y3311771D01*
X4028567Y3345501D01*
X4038134Y3381972D01*
X4048274Y3420657D01*
X4058848Y3461029D01*
X4060908Y3468893D01*
X4071422Y3508850D01*
X4081513Y3546930D01*
X4091042Y3582614D01*
X4099865Y3615386D01*
X4107843Y3644727D01*
X4114834Y3670121D01*
X4120696Y3691051D01*
X4125289Y3706999D01*
X4128470Y3717447D01*
X4130099Y3721879D01*
X4130189Y3722016D01*
X4136880Y3728860D01*
X4145879Y3734543D01*
X4149016Y3735760D01*
X4158980Y3738986D01*
X4173936Y3743434D01*
X4193000Y3748869D01*
X4215288Y3755058D01*
X4239916Y3761769D01*
X4265999Y3768767D01*
X4292653Y3775820D01*
X4318994Y3782695D01*
X4344138Y3789157D01*
X4367201Y3794974D01*
X4387299Y3799913D01*
X4403546Y3803739D01*
X4415060Y3806221D01*
X4420956Y3807124D01*
X4421581Y3807125D01*
X4423956Y3806925D01*
G37*
%TD*%
%LPC*%
D16*
%TO.C,J1*%
X4320000Y7580000D03*
X4320000Y11380000D03*
X-4320000Y7580000D03*
X-4320000Y11380000D03*
%TD*%
D17*
%TO.C,H4*%
X10000000Y-10000000D03*
%TD*%
%TO.C,H1*%
X-10000000Y10000000D03*
%TD*%
%TO.C,H2*%
X10000000Y10000000D03*
%TD*%
%TO.C,H3*%
X-10000000Y-10000000D03*
%TD*%
D18*
%TO.C,J2*%
X-8725000Y5080000D03*
D19*
X-11265000Y5080000D03*
X-8725000Y2540000D03*
X-11265000Y2540000D03*
X-8725000Y0D03*
X-11265000Y0D03*
X-8725000Y-2540000D03*
X-11265000Y-2540000D03*
X-8725000Y-5080000D03*
X-11265000Y-5080000D03*
%TD*%
%LPD*%
M02*
